SplineFontDB: 3.2
FontName: MittellinienNew
FullName: Mittellinien New
FamilyName: Mittellinien New
Weight: Regular
Copyright: Copyright (c) 2024, Daniel Stelzer
UComments: "2024-6-15: Created with FontForge (http://fontforge.org)"
Version: 001.000
ItalicAngle: 0
UnderlinePosition: -100
UnderlineWidth: 50
Ascent: 800
Descent: 200
InvalidEm: 0
LayerCount: 2
Layer: 0 0 "Back" 1
Layer: 1 0 "Fore" 0
XUID: [1021 694 1061630572 13936243]
OS2Version: 0
OS2_WeightWidthSlopeOnly: 0
OS2_UseTypoMetrics: 1
CreationTime: 1718469191
ModificationTime: 1718472236
OS2TypoAscent: 0
OS2TypoAOffset: 1
OS2TypoDescent: 0
OS2TypoDOffset: 1
OS2TypoLinegap: 0
OS2WinAscent: 0
OS2WinAOffset: 1
OS2WinDescent: 0
OS2WinDOffset: 1
HheadAscent: 0
HheadAOffset: 1
HheadDescent: 0
HheadDOffset: 1
OS2Vendor: 'PfEd'
Lookup: 4 0 1 "ligatures" { "ligsubtable"  } ['liga' ('latn' <'dflt' > 'xsux' <'dflt' > ) ]
MarkAttachClasses: 1
DEI: 91125
Encoding: ISO8859-1
UnicodeInterp: none
NameList: AGL For New Fonts
DisplaySize: -48
AntiAlias: 1
FitToEm: 0
WinInfo: 58 29 11
BeginPrivate: 0
EndPrivate
BeginChars: 675 419

StartChar: U12038
Encoding: 256 73784 0
Width: 1212
VWidth: 100
Flags: W
HStem: 287.5 25<219.097 1112.5>
VStem: 100 25<133.332 193.403 224.17 375.83 406.597 466.668>
LayerCount: 2
Fore
SplineSet
100 466.66796875 m 1
 125 466.66796875 l 1
 125 381.376953125 193.876953125 312.5 279.16796875 312.5 c 2
 1112.5 312.5 l 1
 1112.5 287.5 l 1
 279.16796875 287.5 l 2
 193.876953125 287.5 125 218.623046875 125 133.33203125 c 1
 100 133.33203125 l 1
 100 466.66796875 l 1
125 375.830078125 m 1
 125 224.169921875 l 1
 145.243164062 258.393554688 176.453125 285.291015625 213.857421875 300 c 1
 176.453125 314.708984375 145.243164062 341.606445312 125 375.830078125 c 1
EndSplineSet
EndChar

StartChar: U12400
Encoding: 257 74752 1
Width: 1212
VWidth: 100
Flags: W
HStem: 287.5 25<220.777 266.668 385.762 1112.5>
VStem: 100 25<133.332 193.949 224.17 375.83 406.051 466.668> 266.668 25<133.332 193.403 224.17 286.955 313.045 375.83 406.597 466.668>
LayerCount: 2
Fore
SplineSet
100 466.66796875 m 1
 125 466.66796875 l 1
 125 385.58984375 187.252929688 319.391601562 266.66796875 313.044921875 c 1
 266.66796875 466.66796875 l 1
 291.66796875 466.66796875 l 1
 291.66796875 381.376953125 360.541015625 312.5 445.83203125 312.5 c 2
 1112.5 312.5 l 1
 1112.5 287.5 l 1
 445.83203125 287.5 l 2
 360.541015625 287.5 291.66796875 218.623046875 291.66796875 133.33203125 c 1
 266.66796875 133.33203125 l 1
 266.66796875 286.955078125 l 1
 187.252929688 280.608398438 125 214.41015625 125 133.33203125 c 1
 100 133.33203125 l 1
 100 466.66796875 l 1
125 375.830078125 m 1
 125 224.169921875 l 1
 145.243164062 258.393554688 176.453125 285.291015625 213.857421875 300 c 1
 176.453125 314.708984375 145.243164062 341.606445312 125 375.830078125 c 1
291.66796875 375.830078125 m 1
 291.66796875 224.169921875 l 1
 311.91015625 258.392578125 343.118164062 285.291015625 380.521484375 300 c 1
 343.118164062 314.708984375 311.91015625 341.607421875 291.66796875 375.830078125 c 1
EndSplineSet
EndChar

StartChar: U1212c
Encoding: 258 74028 2
Width: 1212
VWidth: 100
Flags: W
HStem: 287.5 25<220.777 266.668 385.762 1112.5>
VStem: 100 25<133.332 193.949 224.17 375.83 406.051 466.668> 266.668 25<133.332 193.403 224.17 286.955 313.045 375.83 406.597 466.668>
LayerCount: 2
Fore
SplineSet
100 466.66796875 m 1
 125 466.66796875 l 1
 125 385.58984375 187.252929688 319.391601562 266.66796875 313.044921875 c 1
 266.66796875 466.66796875 l 1
 291.66796875 466.66796875 l 1
 291.66796875 381.376953125 360.541015625 312.5 445.83203125 312.5 c 2
 1112.5 312.5 l 1
 1112.5 287.5 l 1
 445.83203125 287.5 l 2
 360.541015625 287.5 291.66796875 218.623046875 291.66796875 133.33203125 c 1
 266.66796875 133.33203125 l 1
 266.66796875 286.955078125 l 1
 187.252929688 280.608398438 125 214.41015625 125 133.33203125 c 1
 100 133.33203125 l 1
 100 466.66796875 l 1
125 375.830078125 m 1
 125 224.169921875 l 1
 145.243164062 258.393554688 176.453125 285.291015625 213.857421875 300 c 1
 176.453125 314.708984375 145.243164062 341.606445312 125 375.830078125 c 1
291.66796875 375.830078125 m 1
 291.66796875 224.169921875 l 1
 311.91015625 258.392578125 343.118164062 285.291015625 380.521484375 300 c 1
 343.118164062 314.708984375 311.91015625 341.607421875 291.66796875 375.830078125 c 1
EndSplineSet
EndChar

StartChar: U1227e
Encoding: 259 74366 3
Width: 2218
VWidth: 100
Flags: W
HStem: -155.378 24.7317<1127.68 1202.59> 187.5 25<532.484 571.36 621.465 763.488 794.997 852.469> 287.5 25<220.777 266.668 385.762 1112.5 1445.83 1505.9 1536.67 1688.33 1719.1 1779.17> 437.5 25<536.109 600 625 688.891 713.891 745.832> 537.5 25<536.109 600 625 688.891 713.891 745.832> 637.5 25<536.857 599.252 625.748 688.143 714.639 745.832> 687.5 25<542.777 593.332 631.668 682.223 720.559 745.832> 730.647 24.7317<1127.68 1202.59>
VStem: 100 25<133.332 193.949 224.17 375.83 406.051 466.668> 266.668 25<133.332 193.403 224.17 286.955 313.045 375.83 406.597 466.668> 466.668 25<400 427.964 472.036 527.964 572.036 627.964> 511.109 25<400 432.938 467.062 532.938 567.062 632.938> 562.535 23.8091<-37.6838 -13.3316 112.316 136.743> 600 25<400 437.5 462.5 537.5 562.5 637.5> 679.977 25<-100 97.4799> 688.891 25<400 437.5 462.5 537.5 562.5 637.5> 1600 25<-200 29.7754 70.2246 193.403>
LayerCount: 2
Fore
SplineSet
1175.85546875 954.66015625 m 1xfffc80
 1198.21484375 943.48046875 l 1
 1187.11425206 921.279285365 1181.85309446 897.712515261 1181.85309446 874.515204554 c 0
 1181.85309446 818.004580725 1213.07549103 763.686517683 1267.16015625 736.64453125 c 2
 2118.08984375 311.1796875 l 1
 2112.5 300 l 1
 2118.08984375 288.8203125 l 1
 1625 42.275390625 l 1
 1625 -200 l 1
 1600 -200 l 1
 1600 29.775390625 l 1
 1267.16015625 -136.64453125 l 2
 1213.07549103 -163.686517683 1181.85309446 -218.004580725 1181.85309446 -274.515204554 c 0
 1181.85309446 -297.712515261 1187.11425206 -321.279285365 1198.21484375 -343.48046875 c 1
 1175.85546875 -354.66015625 l 1
 1026.78515625 -56.51953125 l 1
 1049.14453125 -45.33984375 l 1
 1076.18661602 -99.4240132802 1130.50448489 -130.646729622 1187.01539246 -130.646729622 c 0
 1210.2125298 -130.646729622 1233.77919782 -125.38564961 1255.98046875 -114.28515625 c 2
 1600 57.724609375 l 1
 1600 133.33203125 l 2
 1600 218.623046875 1531.12304688 287.5 1445.83203125 287.5 c 1
 1445.83203125 312.5 l 1
 1779.16796875 312.5 l 1
 1779.16796875 287.5 l 1
 1693.87695312 287.5 1625 218.623046875 1625 133.33203125 c 2
 1625 70.224609375 l 1
 2084.55078125 300 l 1
 1255.98046875 714.28515625 l 2
 1233.77919782 725.38564961 1210.2125298 730.646729622 1187.01539246 730.646729622 c 0
 1130.50448489 730.646729622 1076.18661602 699.42401328 1049.14453125 645.33984375 c 1
 1026.78515625 656.51953125 l 1
 1175.85546875 954.66015625 l 1xfffc80
1157.59179688 862.234375 m 1
 1089.76757812 726.5859375 l 1
 1118.76724203 745.297722272 1152.68979431 755.378449863 1187.3196956 755.378449863 c 0
 1192.58647784 755.378449863 1197.86962153 755.145275878 1203.15429688 754.673828125 c 1
 1176.27832031 784.556640625 1160.39257812 822.572265625 1157.59179688 862.234375 c 1
479.16796875 712.5 m 1
 568.0546875 712.5 l 1
 656.9453125 712.5 l 1
 745.83203125 712.5 l 1
 745.83203125 687.5 l 1
 730.435546875 687.5 717.766601562 676.890625 714.638671875 662.5 c 1
 745.83203125 662.5 l 1
 745.83203125 637.5 l 1
 713.890625 637.5 l 1
 713.890625 562.5 l 1
 745.83203125 562.5 l 1
 745.83203125 537.5 l 1
 713.890625 537.5 l 1
 713.890625 462.5 l 1
 745.83203125 462.5 l 1
 745.83203125 437.5 l 1
 713.890625 437.5 l 1
 713.890625 400 l 1
 688.890625 400 l 1
 688.890625 437.5 l 1xfffd80
 625 437.5 l 1
 625 400 l 1
 600 400 l 1
 600 437.5 l 1
 536.109375 437.5 l 1
 536.109375 400 l 1
 511.109375 400 l 1
 511.109375 432.9375 l 1
 499.48046875 426.6015625 491.66796875 414.291992188 491.66796875 400 c 1
 466.66796875 400 l 1
 466.66796875 500 l 1
 466.66796875 600 l 1
 466.66796875 700 l 1
 479.16796875 700 l 1
 479.16796875 712.5 l 1
568.0546875 687.5 m 0
 552.653320312 687.5 539.985351562 676.890625 536.857421875 662.5 c 1
 599.251953125 662.5 l 1
 596.124023438 676.890625 583.456054688 687.5 568.0546875 687.5 c 0
656.9453125 687.5 m 0
 641.543945312 687.5 628.875976562 676.890625 625.748046875 662.5 c 1
 688.142578125 662.5 l 1
 685.014648438 676.890625 672.346679688 687.5 656.9453125 687.5 c 0
495.705078125 682.9609375 m 1
 498.618164062 677.198242188 502.965820312 672.30859375 508.302734375 668.7578125 c 1
 505.641601562 674.6953125 501.234375 679.64453125 495.705078125 682.9609375 c 1
491.66796875 650.17578125 m 1
 491.74609375 650.1171875 491.82421875 650.05859375 491.90234375 650 c 1
 491.82421875 649.94140625 491.74609375 649.8828125 491.66796875 649.82421875 c 1
 491.66796875 650.17578125 l 1
536.109375 637.5 m 1
 536.109375 562.5 l 1
 600 562.5 l 1
 600 637.5 l 1
 536.109375 637.5 l 1
625 637.5 m 1
 625 562.5 l 1
 688.890625 562.5 l 1
 688.890625 637.5 l 1
 625 637.5 l 1
511.109375 632.9375 m 1
 499.48046875 626.6015625 491.66796875 614.291992188 491.66796875 600 c 0
 491.66796875 585.708007812 499.48046875 573.3984375 511.109375 567.0625 c 1
 511.109375 632.9375 l 1
491.66796875 550.17578125 m 1
 491.74609375 550.1171875 491.82421875 550.05859375 491.90234375 550 c 1
 491.82421875 549.94140625 491.74609375 549.8828125 491.66796875 549.82421875 c 1
 491.66796875 550.17578125 l 1
536.109375 537.5 m 1
 536.109375 462.5 l 1
 600 462.5 l 1
 600 537.5 l 1
 536.109375 537.5 l 1
625 537.5 m 1
 625 462.5 l 1
 688.890625 462.5 l 1
 688.890625 537.5 l 1
 625 537.5 l 1
511.109375 532.9375 m 1
 499.48046875 526.6015625 491.66796875 514.291992188 491.66796875 500 c 0
 491.66796875 485.708007812 499.48046875 473.3984375 511.109375 467.0625 c 1
 511.109375 532.9375 l 1
100 466.66796875 m 1
 125 466.66796875 l 1
 125 385.58984375 187.252929688 319.391601562 266.66796875 313.044921875 c 1
 266.66796875 466.66796875 l 1
 291.66796875 466.66796875 l 1
 291.66796875 381.376953125 360.541015625 312.5 445.83203125 312.5 c 2
 1112.5 312.5 l 1
 1112.5 287.5 l 1
 445.83203125 287.5 l 2
 360.541015625 287.5 291.66796875 218.623046875 291.66796875 133.33203125 c 1
 266.66796875 133.33203125 l 1
 266.66796875 286.955078125 l 1
 187.252929688 280.608398438 125 214.41015625 125 133.33203125 c 1
 100 133.33203125 l 1
 100 466.66796875 l 1
491.66796875 450.17578125 m 1
 491.74609375 450.1171875 491.82421875 450.05859375 491.90234375 450 c 1
 491.82421875 449.94140625 491.74609375 449.8828125 491.66796875 449.82421875 c 1
 491.66796875 450.17578125 l 1
125 375.830078125 m 1
 125 224.169921875 l 1
 145.243164062 258.393554688 176.453125 285.291015625 213.857421875 300 c 1
 176.453125 314.708984375 145.243164062 341.606445312 125 375.830078125 c 1
291.66796875 375.830078125 m 1
 291.66796875 224.169921875 l 1
 311.91015625 258.392578125 343.118164062 285.291015625 380.521484375 300 c 1
 343.118164062 314.708984375 311.91015625 341.607421875 291.66796875 375.830078125 c 1
1536.66992188 287.5 m 1
 1570.89355469 267.256835938 1597.79101562 236.046875 1612.5 198.642578125 c 1
 1627.20898438 236.046875 1654.10644531 267.256835938 1688.33007812 287.5 c 1
 1536.66992188 287.5 l 1
532.484375 212.5 m 1
 852.46875 212.5 l 1
 852.46875 187.5 l 1
 770.866210938 187.5 704.9765625 121.611328125 704.9765625 40.0078125 c 2
 704.9765625 -100 l 1
 679.9765625 -100 l 1
 679.9765625 40.0078125 l 2xfffe80
 679.9765625 97.298828125 647.479492188 146.807617188 599.888671875 171.244140625 c 1
 589.943021424 156.069731253 586.351638759 141.772423156 586.351638759 128.558975287 c 0
 586.351638759 118.680813372 588.35879718 109.408401216 591.21875 100.828125 c 0
 599.540039062 75.865234375 616.322265625 58.837890625 616.322265625 58.837890625 c 1
 607.484375 50 l 1
 616.322265625 41.162109375 l 1
 593.656565715 18.4964094652 586.344301633 -2.56163162858 586.344301633 -21.4141767391 c 0
 586.344301633 -31.30221307 588.35585703 -40.5835320701 591.21875 -49.171875 c 0
 599.540039062 -74.134765625 616.322265625 -91.162109375 616.322265625 -91.162109375 c 1
 598.646484375 -108.837890625 l 1
 514.806640625 -25 l 1
 589.80859375 50 l 1
 514.806640625 125 l 1
 571.94921875 182.140625 l 1
 559.387695312 185.607421875 546.166015625 187.5 532.484375 187.5 c 1
 532.484375 212.5 l 1
621.46484375 187.5 m 1
 653.302734375 168.21875 678.434570312 139.046875 692.4765625 104.150390625 c 1
 706.518554688 139.045898438 731.650390625 168.21875 763.48828125 187.5 c 1
 621.46484375 187.5 l 1
562.53515625 137.373046875 m 1
 550.162109375 125 l 1
 563.224609375 111.9375 l 1
 562.065429688 120.009765625 561.638671875 128.48828125 562.53515625 137.373046875 c 1
562.53515625 -12.626953125 m 1
 550.162109375 -25 l 1
 563.224609375 -38.0625 l 1
 562.065429688 -29.990234375 561.638671875 -21.51171875 562.53515625 -12.626953125 c 1
1089.76757812 -126.5859375 m 1
 1157.59179688 -262.234375 l 1
 1160.39257812 -222.572265625 1176.27832031 -184.556640625 1203.15429688 -154.673828125 c 1
 1197.86962153 -155.145275878 1192.58647784 -155.378449863 1187.3196956 -155.378449863 c 0
 1152.68979431 -155.378449863 1118.76724203 -145.297722272 1089.76757812 -126.5859375 c 1
EndSplineSet
EndChar

StartChar: U12044
Encoding: 260 73796 4
Width: 1712
VWidth: 100
Flags: W
HStem: 287.5 25<220.777 266.668 385.762 763.572 1062.85 1612.5> 787.5 25<789.582 849.653 880.42 1032.08 1062.85 1122.92>
VStem: 100 25<133.332 193.949 224.17 375.83 406.051 466.668> 266.668 25<133.332 193.403 224.17 286.955 313.045 375.83 406.597 466.668> 860.762 24.367<235.935 376.492> 943.75 25<-200 107.324 147.094 193.403 224.17 375.83 406.597 455.387 492.676 693.403> 1281.51 24.3245<-92.7672 37.3608 573.9 704.027>
LayerCount: 2
Fore
SplineSet
789.58203125 812.5 m 1
 1122.91796875 812.5 l 1
 1122.91796875 787.5 l 1
 1037.62695312 787.5 968.75 718.623046875 968.75 633.33203125 c 2
 968.75 466.66796875 l 2
 968.75 381.376953125 1037.62695312 312.5 1122.91796875 312.5 c 2
 1612.5 312.5 l 1
 1612.5 287.5 l 1
 1122.91796875 287.5 l 2
 1037.62695312 287.5 968.75 218.623046875 968.75 133.33203125 c 2
 968.75 -200 l 1
 943.75 -200 l 1
 943.75 107.32421875 l 1
 763.572265625 287.5 l 1
 445.83203125 287.5 l 2
 360.541015625 287.5 291.66796875 218.623046875 291.66796875 133.33203125 c 1
 266.66796875 133.33203125 l 1
 266.66796875 286.955078125 l 1
 187.252929688 280.608398438 125 214.41015625 125 133.33203125 c 1
 100 133.33203125 l 1
 100 466.66796875 l 1
 125 466.66796875 l 1
 125 385.58984375 187.252929688 319.391601562 266.66796875 313.044921875 c 1
 266.66796875 466.66796875 l 1
 291.66796875 466.66796875 l 1
 291.66796875 381.376953125 360.541015625 312.5 445.83203125 312.5 c 2
 763.572265625 312.5 l 1
 943.75 492.67578125 l 1
 943.75 633.33203125 l 2
 943.75 718.623046875 874.873046875 787.5 789.58203125 787.5 c 1
 789.58203125 812.5 l 1
1358.8671875 808.837890625 m 1
 1376.54492188 791.162109375 l 1
 1323.31881231 737.93470658 1305.83001216 686.345816822 1305.83001216 640.336512568 c 0
 1305.83001216 616.859391828 1310.38364856 594.835052493 1317.06640625 574.787109375 c 0
 1336.84570312 515.450195312 1376.54492188 475.505859375 1376.54492188 475.505859375 c 1
 1358.8671875 457.830078125 l 1
 1183.36523438 633.33203125 l 1
 1358.8671875 808.837890625 l 1
880.419921875 787.5 m 1
 914.643554688 767.256835938 941.541015625 736.046875 956.25 698.642578125 c 1
 970.958984375 736.046875 997.856445312 767.256835938 1032.08007812 787.5 c 1
 880.419921875 787.5 l 1
1293.203125 707.818359375 m 1
 1218.72070312 633.33203125 l 1
 1298.02734375 554.025390625 l 1
 1296.38769531 558.212890625 1294.81445312 562.487304688 1293.34960938 566.880859375 c 0
 1286.1709106 588.417480973 1281.50548561 612.578405661 1281.50548561 638.367866531 c 0
 1281.50548561 660.526325485 1284.94966522 683.887026706 1293.203125 707.818359375 c 1
943.75 455.38671875 m 1
 900.148257487 403.419729943 885.128632743 353.158171964 885.128632743 307.7144823 c 0
 885.128632743 281.173050968 890.252060199 256.275069404 897.796875 233.640625 c 0
 910.098632812 196.735351562 929.03515625 166.866210938 943.75 147.09375 c 1
 943.75 455.38671875 l 1
876.119140625 389.693359375 m 1
 786.42578125 300 l 1
 882.306640625 204.119140625 l 1
 879.377929688 211.073242188 876.577148438 218.237304688 874.078125 225.734375 c 0
 866.021974477 249.902318552 860.761603291 276.989722767 860.761603291 305.901427346 c 0
 860.761603291 332.566656498 865.236259105 360.78369938 876.119140625 389.693359375 c 1
125 375.830078125 m 1
 125 224.169921875 l 1
 145.243164062 258.393554688 176.453125 285.291015625 213.857421875 300 c 1
 176.453125 314.708984375 145.243164062 341.606445312 125 375.830078125 c 1
291.66796875 375.830078125 m 1
 291.66796875 224.169921875 l 1
 311.91015625 258.392578125 343.118164062 285.291015625 380.521484375 300 c 1
 343.118164062 314.708984375 311.91015625 341.607421875 291.66796875 375.830078125 c 1
968.75 375.830078125 m 1
 968.75 224.169921875 l 1
 988.993164062 258.393554688 1020.203125 285.291015625 1057.60742188 300 c 1
 1020.203125 314.708984375 988.993164062 341.606445312 968.75 375.830078125 c 1
1358.8671875 142.169921875 m 1
 1376.54492188 124.494140625 l 1
 1323.31881231 71.2680310601 1305.83001216 19.6791500948 1305.83001216 -26.3305793337 c 0
 1305.83001216 -49.8079170267 1310.38364856 -71.8325863092 1317.06640625 -91.880859375 c 0
 1336.84570312 -151.21875 1376.54492188 -191.16015625 1376.54492188 -191.16015625 c 1
 1358.8671875 -208.837890625 l 1
 1183.36523438 -33.33203125 l 1
 1358.8671875 142.169921875 l 1
1293.203125 41.15234375 m 1
 1218.72070312 -33.33203125 l 1
 1298.02734375 -112.640625 l 1
 1296.38769531 -108.453125 1294.81445312 -104.178710938 1293.34960938 -99.78515625 c 0
 1286.1709106 -78.2485346523 1281.50548561 -54.0873274466 1281.50548561 -28.2977574097 c 0
 1281.50548561 -6.13920465844 1284.94966522 17.2214623859 1293.203125 41.15234375 c 1
EndSplineSet
EndChar

StartChar: U122d3
Encoding: 261 74451 5
Width: 1712
VWidth: 100
Flags: W
HStem: -87.5 25<686.219 1112.5> 162.5 25<686.219 1100> 287.5 25<220.777 266.668 385.762 600 1219.1 1612.5> 412.5 25<686.219 1100> 662.5 25<686.219 1112.5>
VStem: 100 25<133.332 193.949 224.17 375.83 406.051 466.668> 266.668 25<133.332 193.403 224.17 286.955 313.045 375.83 406.597 466.668> 359.63 24.3245<-92.7672 37.3608 573.9 704.027> 600 25<-200 -148.719 -121.211 -28.7891 -1.28064 101.281 128.789 221.211 248.719 287.5 312.5 351.281 378.789 471.211 498.719 601.281 628.789 721.211 748.719 800> 1100 25<133.332 162.5 187.5 193.403 224.17 375.83 406.597 412.5 437.5 466.668>
LayerCount: 2
Fore
SplineSet
436.9921875 808.837890625 m 1
 454.669921875 791.162109375 l 1
 401.44381231 737.93470658 383.955012162 686.345816822 383.955012162 640.336512568 c 0
 383.955012162 616.859391828 388.508648561 594.835052493 395.19140625 574.787109375 c 0
 414.970703125 515.450195312 454.669921875 475.505859375 454.669921875 475.505859375 c 1
 436.9921875 457.830078125 l 1
 261.490234375 633.33203125 l 1
 436.9921875 808.837890625 l 1
600 800 m 1
 625 800 l 1
 625 737.720703125 675.220703125 687.5 737.5 687.5 c 2
 1112.5 687.5 l 1
 1112.5 662.5 l 1
 737.5 662.5 l 2
 675.220703125 662.5 625 612.279296875 625 550 c 0
 625 487.720703125 675.220703125 437.5 737.5 437.5 c 2
 1100 437.5 l 1
 1100 466.66796875 l 1
 1125 466.66796875 l 1
 1125 381.376953125 1193.87695312 312.5 1279.16796875 312.5 c 2
 1612.5 312.5 l 1
 1612.5 287.5 l 1
 1279.16796875 287.5 l 2
 1193.87695312 287.5 1125 218.623046875 1125 133.33203125 c 1
 1100 133.33203125 l 1
 1100 162.5 l 1
 737.5 162.5 l 2
 675.220703125 162.5 625 112.279296875 625 50 c 0
 625 -12.279296875 675.220703125 -62.5 737.5 -62.5 c 2
 1112.5 -62.5 l 1
 1112.5 -87.5 l 1
 737.5 -87.5 l 2
 675.220703125 -87.5 625 -137.720703125 625 -200 c 1
 600 -200 l 1
 600 50 l 1
 600 287.5 l 1
 445.83203125 287.5 l 2
 360.541015625 287.5 291.66796875 218.623046875 291.66796875 133.33203125 c 1
 266.66796875 133.33203125 l 1
 266.66796875 286.955078125 l 1
 187.252929688 280.608398438 125 214.41015625 125 133.33203125 c 1
 100 133.33203125 l 1
 100 466.66796875 l 1
 125 466.66796875 l 1
 125 385.58984375 187.252929688 319.391601562 266.66796875 313.044921875 c 1
 266.66796875 466.66796875 l 1
 291.66796875 466.66796875 l 1
 291.66796875 381.376953125 360.541015625 312.5 445.83203125 312.5 c 2
 600 312.5 l 1
 600 550 l 1
 600 800 l 1
625 721.2109375 m 1
 625 628.7890625 l 1
 639.01953125 648.740234375 658.190429688 664.758789062 680.572265625 675 c 1
 658.190429688 685.241210938 639.01953125 701.259765625 625 721.2109375 c 1
371.328125 707.818359375 m 1
 296.845703125 633.33203125 l 1
 376.15234375 554.025390625 l 1
 374.512695312 558.212890625 372.939453125 562.487304688 371.474609375 566.880859375 c 0
 364.295910595 588.417480973 359.630485611 612.578405661 359.630485611 638.367866531 c 0
 359.630485611 660.526325485 363.074665218 683.887026706 371.328125 707.818359375 c 1
625 471.2109375 m 1
 625 378.7890625 l 1
 639.01953125 398.740234375 658.190429688 414.758789062 680.572265625 425 c 1
 658.190429688 435.241210938 639.01953125 451.259765625 625 471.2109375 c 1
737.5 412.5 m 2
 675.220703125 412.5 625 362.279296875 625 300 c 0
 625 237.720703125 675.220703125 187.5 737.5 187.5 c 2
 1100 187.5 l 1
 1100 412.5 l 1
 737.5 412.5 l 2
125 375.830078125 m 1
 125 224.169921875 l 1
 145.243164062 258.393554688 176.453125 285.291015625 213.857421875 300 c 1
 176.453125 314.708984375 145.243164062 341.606445312 125 375.830078125 c 1
291.66796875 375.830078125 m 1
 291.66796875 224.169921875 l 1
 311.91015625 258.392578125 343.118164062 285.291015625 380.521484375 300 c 1
 343.118164062 314.708984375 311.91015625 341.607421875 291.66796875 375.830078125 c 1
1125 375.830078125 m 1
 1125 224.169921875 l 1
 1145.24316406 258.393554688 1176.453125 285.291015625 1213.85742188 300 c 1
 1176.453125 314.708984375 1145.24316406 341.606445312 1125 375.830078125 c 1
625 221.2109375 m 1
 625 128.7890625 l 1
 639.01953125 148.740234375 658.190429688 164.758789062 680.572265625 175 c 1
 658.190429688 185.241210938 639.01953125 201.259765625 625 221.2109375 c 1
436.9921875 142.169921875 m 1
 454.669921875 124.494140625 l 1
 401.44381231 71.2680310601 383.955012162 19.6791500948 383.955012162 -26.3305793337 c 0
 383.955012162 -49.8079170267 388.508648561 -71.8325863092 395.19140625 -91.880859375 c 0
 414.970703125 -151.21875 454.669921875 -191.16015625 454.669921875 -191.16015625 c 1
 436.9921875 -208.837890625 l 1
 261.490234375 -33.33203125 l 1
 436.9921875 142.169921875 l 1
371.328125 41.15234375 m 1
 296.845703125 -33.33203125 l 1
 376.15234375 -112.640625 l 1
 374.512695312 -108.453125 372.939453125 -104.178710938 371.474609375 -99.78515625 c 0
 364.295910595 -78.2485346523 359.630485611 -54.0873274466 359.630485611 -28.2977574097 c 0
 359.630485611 -6.13920465844 363.074665218 17.2214623859 371.328125 41.15234375 c 1
625 -28.7890625 m 1
 625 -121.2109375 l 1
 639.01953125 -101.259765625 658.190429688 -85.2412109375 680.572265625 -75 c 1
 658.190429688 -64.7587890625 639.01953125 -48.740234375 625 -28.7890625 c 1
EndSplineSet
EndChar

StartChar: U12108
Encoding: 262 73992 6
Width: 1712
VWidth: 100
Flags: W
HStem: 287.5 25<220.777 266.668 385.762 766.668> 787.5 25<612.5 672.571 703.338 854.996 885.762 1005.9 1036.67 1188.33 1219.1 1339.24 1370 1521.66 1552.43 1612.5>
VStem: 100 25<133.332 193.949 224.17 375.83 406.051 466.668> 266.668 25<133.332 193.403 224.17 286.955 313.045 375.83 406.597 466.668> 442.964 24.325<-92.7662 37.3603 573.9 704.027> 766.668 25<-200 287.5 312.5 693.403> 1100 25<-200 693.403> 1433.33 25<-200 693.403>
LayerCount: 2
Fore
SplineSet
612.5 812.5 m 1
 945.83203125 812.5 l 1
 1279.16796875 812.5 l 1
 1612.5 812.5 l 1
 1612.5 787.5 l 1
 1527.20898438 787.5 1458.33203125 718.623046875 1458.33203125 633.33203125 c 2
 1458.33203125 -200 l 1
 1433.33203125 -200 l 1
 1433.33203125 633.33203125 l 2
 1433.33203125 718.623046875 1364.45898438 787.5 1279.16796875 787.5 c 0
 1193.87695312 787.5 1125 718.623046875 1125 633.33203125 c 2
 1125 -200 l 1
 1100 -200 l 1
 1100 633.33203125 l 2
 1100 718.623046875 1031.12304688 787.5 945.83203125 787.5 c 0
 860.541015625 787.5 791.66796875 718.623046875 791.66796875 633.33203125 c 2
 791.66796875 -200 l 1
 766.66796875 -200 l 1
 766.66796875 287.5 l 1
 445.83203125 287.5 l 2
 360.541015625 287.5 291.66796875 218.623046875 291.66796875 133.33203125 c 1
 266.66796875 133.33203125 l 1
 266.66796875 286.955078125 l 1
 187.252929688 280.608398438 125 214.41015625 125 133.33203125 c 1
 100 133.33203125 l 1
 100 466.66796875 l 1
 125 466.66796875 l 1
 125 385.58984375 187.252929688 319.391601562 266.66796875 313.044921875 c 1
 266.66796875 466.66796875 l 1
 291.66796875 466.66796875 l 1
 291.66796875 381.376953125 360.541015625 312.5 445.83203125 312.5 c 2
 766.66796875 312.5 l 1
 766.66796875 633.33203125 l 2
 766.66796875 718.623046875 697.791015625 787.5 612.5 787.5 c 1
 612.5 812.5 l 1
520.330078125 808.837890625 m 1
 538.005859375 791.162109375 l 1
 484.778231931 737.934481931 467.289071866 686.345381355 467.289071866 640.335930014 c 0
 467.289071866 616.859027492 471.842688211 594.834886672 478.525390625 574.787109375 c 0
 498.3046875 515.450195312 538.005859375 475.5078125 538.005859375 475.5078125 c 1
 520.330078125 457.828125 l 1
 344.822265625 633.33203125 l 1
 520.330078125 808.837890625 l 1
703.337890625 787.5 m 1
 737.560546875 767.2578125 764.458984375 736.047851562 779.16796875 698.64453125 c 1
 793.876953125 736.047851562 820.7734375 767.2578125 854.99609375 787.5 c 1
 703.337890625 787.5 l 1
1036.66992188 787.5 m 1
 1070.89355469 767.256835938 1097.79101562 736.046875 1112.5 698.642578125 c 1
 1127.20898438 736.046875 1154.10644531 767.256835938 1188.33007812 787.5 c 1
 1036.66992188 787.5 l 1
1370.00390625 787.5 m 1
 1404.22558594 767.2578125 1431.12304688 736.048828125 1445.83203125 698.646484375 c 1
 1460.54101562 736.048828125 1487.43945312 767.2578125 1521.66210938 787.5 c 1
 1370.00390625 787.5 l 1
454.662109375 707.818359375 m 1
 380.177734375 633.333984375 l 1
 459.48828125 554.0234375 l 1
 457.848632812 558.211914062 456.2734375 562.487304688 454.80859375 566.880859375 c 0
 447.62989497 588.416955715 442.964469986 612.578202697 442.964469986 638.367921678 c 0
 442.964469986 660.526602402 446.408649593 683.887478011 454.662109375 707.818359375 c 1
125 375.830078125 m 1
 125 224.169921875 l 1
 145.243164062 258.393554688 176.453125 285.291015625 213.857421875 300 c 1
 176.453125 314.708984375 145.243164062 341.606445312 125 375.830078125 c 1
291.66796875 375.830078125 m 1
 291.66796875 224.169921875 l 1
 311.91015625 258.392578125 343.118164062 285.291015625 380.521484375 300 c 1
 343.118164062 314.708984375 311.91015625 341.607421875 291.66796875 375.830078125 c 1
520.330078125 142.171875 m 1
 538.005859375 124.4921875 l 1
 484.778231931 71.2658532915 467.289071866 19.6784740994 467.289071866 -26.3302451732 c 0
 467.289071866 -49.806774149 471.842688211 -71.830799008 478.525390625 -91.87890625 c 0
 498.3046875 -151.216796875 538.005859375 -191.16015625 538.005859375 -191.16015625 c 1
 520.330078125 -208.837890625 l 1
 344.822265625 -33.33203125 l 1
 520.330078125 142.171875 l 1
454.662109375 41.15234375 m 1
 380.177734375 -33.33203125 l 1
 459.48828125 -112.642578125 l 1
 457.848632812 -108.455078125 456.2734375 -104.178710938 454.80859375 -99.78515625 c 0
 447.629810986 -78.2482826931 442.9640783 -54.0867621174 442.9640783 -28.2968522645 c 0
 442.9640783 -6.13856849226 446.408310675 17.2217882331 454.662109375 41.15234375 c 1
EndSplineSet
EndChar

StartChar: U12109
Encoding: 263 73993 7
Width: 1712
VWidth: 100
Flags: W
HStem: 287.5 25<220.777 266.668 385.762 766.668> 787.5 25<612.5 672.571 703.338 854.996 885.762 1005.9 1036.67 1188.33 1219.1 1339.24 1370 1521.66 1552.43 1612.5>
VStem: 100 25<133.332 193.949 224.17 375.83 406.051 466.668> 266.668 25<133.332 193.403 224.17 286.955 313.045 375.83 406.597 466.668> 442.964 24.325<-92.7662 37.3603 573.9 704.027> 766.668 25<-200 287.5 312.5 693.403> 1100 25<-200 693.403> 1433.33 25<-200 693.403>
LayerCount: 2
Fore
SplineSet
612.5 812.5 m 1
 945.83203125 812.5 l 1
 1279.16796875 812.5 l 1
 1612.5 812.5 l 1
 1612.5 787.5 l 1
 1527.20898438 787.5 1458.33203125 718.623046875 1458.33203125 633.33203125 c 2
 1458.33203125 -200 l 1
 1433.33203125 -200 l 1
 1433.33203125 633.33203125 l 2
 1433.33203125 718.623046875 1364.45898438 787.5 1279.16796875 787.5 c 0
 1193.87695312 787.5 1125 718.623046875 1125 633.33203125 c 2
 1125 -200 l 1
 1100 -200 l 1
 1100 633.33203125 l 2
 1100 718.623046875 1031.12304688 787.5 945.83203125 787.5 c 0
 860.541015625 787.5 791.66796875 718.623046875 791.66796875 633.33203125 c 2
 791.66796875 -200 l 1
 766.66796875 -200 l 1
 766.66796875 287.5 l 1
 445.83203125 287.5 l 2
 360.541015625 287.5 291.66796875 218.623046875 291.66796875 133.33203125 c 1
 266.66796875 133.33203125 l 1
 266.66796875 286.955078125 l 1
 187.252929688 280.608398438 125 214.41015625 125 133.33203125 c 1
 100 133.33203125 l 1
 100 466.66796875 l 1
 125 466.66796875 l 1
 125 385.58984375 187.252929688 319.391601562 266.66796875 313.044921875 c 1
 266.66796875 466.66796875 l 1
 291.66796875 466.66796875 l 1
 291.66796875 381.376953125 360.541015625 312.5 445.83203125 312.5 c 2
 766.66796875 312.5 l 1
 766.66796875 633.33203125 l 2
 766.66796875 718.623046875 697.791015625 787.5 612.5 787.5 c 1
 612.5 812.5 l 1
520.330078125 808.837890625 m 1
 538.005859375 791.162109375 l 1
 484.778231931 737.934481931 467.289071866 686.345381355 467.289071866 640.335930014 c 0
 467.289071866 616.859027492 471.842688211 594.834886672 478.525390625 574.787109375 c 0
 498.3046875 515.450195312 538.005859375 475.5078125 538.005859375 475.5078125 c 1
 520.330078125 457.828125 l 1
 344.822265625 633.33203125 l 1
 520.330078125 808.837890625 l 1
703.337890625 787.5 m 1
 737.560546875 767.2578125 764.458984375 736.047851562 779.16796875 698.64453125 c 1
 793.876953125 736.047851562 820.7734375 767.2578125 854.99609375 787.5 c 1
 703.337890625 787.5 l 1
1036.66992188 787.5 m 1
 1070.89355469 767.256835938 1097.79101562 736.046875 1112.5 698.642578125 c 1
 1127.20898438 736.046875 1154.10644531 767.256835938 1188.33007812 787.5 c 1
 1036.66992188 787.5 l 1
1370.00390625 787.5 m 1
 1404.22558594 767.2578125 1431.12304688 736.048828125 1445.83203125 698.646484375 c 1
 1460.54101562 736.048828125 1487.43945312 767.2578125 1521.66210938 787.5 c 1
 1370.00390625 787.5 l 1
454.662109375 707.818359375 m 1
 380.177734375 633.333984375 l 1
 459.48828125 554.0234375 l 1
 457.848632812 558.211914062 456.2734375 562.487304688 454.80859375 566.880859375 c 0
 447.62989497 588.416955715 442.964469986 612.578202697 442.964469986 638.367921678 c 0
 442.964469986 660.526602402 446.408649593 683.887478011 454.662109375 707.818359375 c 1
125 375.830078125 m 1
 125 224.169921875 l 1
 145.243164062 258.393554688 176.453125 285.291015625 213.857421875 300 c 1
 176.453125 314.708984375 145.243164062 341.606445312 125 375.830078125 c 1
291.66796875 375.830078125 m 1
 291.66796875 224.169921875 l 1
 311.91015625 258.392578125 343.118164062 285.291015625 380.521484375 300 c 1
 343.118164062 314.708984375 311.91015625 341.607421875 291.66796875 375.830078125 c 1
520.330078125 142.171875 m 1
 538.005859375 124.4921875 l 1
 484.778231931 71.2658532915 467.289071866 19.6784740994 467.289071866 -26.3302451732 c 0
 467.289071866 -49.806774149 471.842688211 -71.830799008 478.525390625 -91.87890625 c 0
 498.3046875 -151.216796875 538.005859375 -191.16015625 538.005859375 -191.16015625 c 1
 520.330078125 -208.837890625 l 1
 344.822265625 -33.33203125 l 1
 520.330078125 142.171875 l 1
454.662109375 41.15234375 m 1
 380.177734375 -33.33203125 l 1
 459.48828125 -112.642578125 l 1
 457.848632812 -108.455078125 456.2734375 -104.178710938 454.80859375 -99.78515625 c 0
 447.629810986 -78.2482826931 442.9640783 -54.0867621174 442.9640783 -28.2968522645 c 0
 442.9640783 -6.13856849226 446.408310675 17.2217882331 454.662109375 41.15234375 c 1
EndSplineSet
EndChar

StartChar: U122fb
Encoding: 264 74491 8
Width: 1221
VWidth: 100
Flags: W
HStem: 218.542 24.6612<568.518 672.255> 287.5 25<220.777 266.668 385.762 582.324 642.678 671.021 694.504 1112.5>
VStem: 100 25<133.332 193.949 224.17 375.83 406.051 466.668> 266.668 25<133.332 193.403 224.17 286.955 313.045 375.83 406.597 466.668> 669.75 24.7539<239.248 287.5 312.5 343.439>
LayerCount: 2
Fore
SplineSet
100 466.66796875 m 1
 125 466.66796875 l 1
 125 385.58984375 187.252929688 319.391601562 266.66796875 313.044921875 c 1
 266.66796875 466.66796875 l 1
 291.66796875 466.66796875 l 1
 291.66796875 381.376953125 360.541015625 312.5 445.83203125 312.5 c 2
 607.322265625 312.5 l 1
 721.513671875 426.69140625 l 1
 739.19140625 409.013671875 l 1
 712.2265625 382.048828125 697.356445312 347.666015625 694.50390625 312.5 c 1
 1112.5 312.5 l 1
 1112.5 287.5 l 1
 694.50390625 287.5 l 1
 697.356445312 252.334960938 712.227539062 217.952148438 739.19140625 190.98828125 c 2
 1121.33984375 -191.16015625 l 1
 1103.66210938 -208.837890625 l 1
 721.513671875 173.310546875 l 2
 691.359375 203.46484375 651.9296875 218.541992188 612.5 218.541992188 c 0
 573.0703125 218.541992188 533.640625 203.46484375 503.486328125 173.310546875 c 1
 485.810546875 190.986328125 l 1
 582.32421875 287.5 l 1
 445.83203125 287.5 l 2
 360.541015625 287.5 291.66796875 218.623046875 291.66796875 133.33203125 c 1
 266.66796875 133.33203125 l 1
 266.66796875 286.955078125 l 1
 187.252929688 280.608398438 125 214.41015625 125 133.33203125 c 1
 100 133.33203125 l 1
 100 466.66796875 l 1
125 375.830078125 m 1
 125 224.169921875 l 1
 145.243164062 258.393554688 176.453125 285.291015625 213.857421875 300 c 1
 176.453125 314.708984375 145.243164062 341.606445312 125 375.830078125 c 1
291.66796875 375.830078125 m 1
 291.66796875 224.169921875 l 1
 311.91015625 258.392578125 343.118164062 285.291015625 380.521484375 300 c 1
 343.118164062 314.708984375 311.91015625 341.607421875 291.66796875 375.830078125 c 1
674.9609375 344.783203125 m 1
 642.677734375 312.5 l 1
 669.7734375 312.5 l 1
 670.532226562 323.361328125 672.236328125 334.170898438 674.9609375 344.783203125 c 1
617.67578125 287.5 m 1
 567.71484375 237.5390625 l 1
 582.41987348 241.31394259 597.500603382 243.203203584 612.57756942 243.203203584 c 0
 636.988406776 243.203203584 661.389377442 238.250647535 684.169921875 228.330078125 c 1
 675.93359375 247.243164062 671.146484375 267.274414062 669.75 287.5 c 1
 617.67578125 287.5 l 1
EndSplineSet
EndChar

StartChar: U1202d
Encoding: 265 73773 9
Width: 1212
VWidth: 100
Flags: W
HStem: 287.5 25<220.777 266.668 385.762 766.668 791.668 1112.5> 787.5 25<612.539 672.596 703.367 854.965 885.739 945.793>
VStem: 100 25<133.332 193.949 224.17 375.83 406.051 466.668> 266.668 25<133.332 193.403 224.17 286.955 313.045 375.83 406.597 466.668> 766.668 25<-200 287.5 312.5 693.429>
LayerCount: 2
Fore
SplineSet
612.5390625 812.5 m 1
 945.79296875 812.5 l 1
 945.79296875 787.5 l 1
 860.525390625 787.5 791.66796875 718.642578125 791.66796875 633.375 c 2
 791.66796875 312.5 l 1
 1112.5 312.5 l 1
 1112.5 287.5 l 1
 791.66796875 287.5 l 1
 791.66796875 -200 l 1
 766.66796875 -200 l 1
 766.66796875 287.5 l 1
 445.83203125 287.5 l 2
 360.541015625 287.5 291.66796875 218.623046875 291.66796875 133.33203125 c 1
 266.66796875 133.33203125 l 1
 266.66796875 286.955078125 l 1
 187.252929688 280.608398438 125 214.41015625 125 133.33203125 c 1
 100 133.33203125 l 1
 100 466.66796875 l 1
 125 466.66796875 l 1
 125 385.58984375 187.252929688 319.391601562 266.66796875 313.044921875 c 1
 266.66796875 466.66796875 l 1
 291.66796875 466.66796875 l 1
 291.66796875 381.376953125 360.541015625 312.5 445.83203125 312.5 c 2
 766.66796875 312.5 l 1
 766.66796875 633.375 l 2
 766.66796875 718.642578125 697.810546875 787.5 612.5390625 787.5 c 1
 612.5390625 812.5 l 1
703.3671875 787.5 m 1
 737.576171875 767.263671875 764.462890625 736.065429688 779.16796875 698.677734375 c 1
 793.873046875 736.064453125 820.7578125 767.263671875 854.96484375 787.5 c 1
 703.3671875 787.5 l 1
125 375.830078125 m 1
 125 224.169921875 l 1
 145.243164062 258.393554688 176.453125 285.291015625 213.857421875 300 c 1
 176.453125 314.708984375 145.243164062 341.606445312 125 375.830078125 c 1
291.66796875 375.830078125 m 1
 291.66796875 224.169921875 l 1
 311.91015625 258.392578125 343.118164062 285.291015625 380.521484375 300 c 1
 343.118164062 314.708984375 311.91015625 341.607421875 291.66796875 375.830078125 c 1
EndSplineSet
EndChar

StartChar: U12033
Encoding: 266 73779 10
Width: 1712
VWidth: 100
Flags: W
HStem: -45.832 25<663.539 1433.33> 287.5 25<220.777 266.668 385.762 1433.33> 620.832 25<663.539 1432.79> 787.5 25<1279.17 1339.78 1370 1521.66 1552.43 1612.5>
VStem: 100 25<133.332 193.949 224.17 375.83 406.051 466.668> 266.668 25<133.332 193.403 224.17 286.955 313.045 375.83 406.597 466.668> 544.445 25<-200 -139.929 -109.162 42.4941 73.2617 133.332 466.668 526.738 557.504 709.162 739.929 800> 1433.33 25<-200 -45.832 -20.832 287.5 312.5 620.832 645.832 691.723>
LayerCount: 2
Fore
SplineSet
1279.16796875 812.5 m 1
 1612.5 812.5 l 1
 1612.5 787.5 l 1
 1527.20898438 787.5 1458.33203125 718.623046875 1458.33203125 633.33203125 c 2
 1458.33203125 -200 l 1
 1433.33203125 -200 l 1
 1433.33203125 -45.83203125 l 1
 723.609375 -45.83203125 l 2
 638.318359375 -45.83203125 569.4453125 -114.708984375 569.4453125 -200 c 1
 544.4453125 -200 l 1
 544.4453125 133.33203125 l 1
 569.4453125 133.33203125 l 1
 569.4453125 48.041015625 638.318359375 -20.83203125 723.609375 -20.83203125 c 2
 1433.33203125 -20.83203125 l 1
 1433.33203125 287.5 l 1
 445.83203125 287.5 l 2
 360.541015625 287.5 291.66796875 218.623046875 291.66796875 133.33203125 c 1
 266.66796875 133.33203125 l 1
 266.66796875 286.955078125 l 1
 187.252929688 280.608398438 125 214.41015625 125 133.33203125 c 1
 100 133.33203125 l 1
 100 466.66796875 l 1
 125 466.66796875 l 1
 125 385.58984375 187.252929688 319.391601562 266.66796875 313.044921875 c 1
 266.66796875 466.66796875 l 1
 291.66796875 466.66796875 l 1
 291.66796875 381.376953125 360.541015625 312.5 445.83203125 312.5 c 2
 1433.33203125 312.5 l 1
 1433.33203125 620.83203125 l 1
 723.609375 620.83203125 l 2
 638.318359375 620.83203125 569.4453125 551.958984375 569.4453125 466.66796875 c 1
 544.4453125 466.66796875 l 1
 544.4453125 800 l 1
 569.4453125 800 l 1
 569.4453125 714.708984375 638.318359375 645.83203125 723.609375 645.83203125 c 2
 1432.78515625 645.83203125 l 1
 1426.43847656 725.247070312 1360.24609375 787.5 1279.16796875 787.5 c 1
 1279.16796875 812.5 l 1
1370.00390625 787.5 m 1
 1404.22558594 767.2578125 1431.12304688 736.048828125 1445.83203125 698.646484375 c 1
 1460.54101562 736.048828125 1487.43945312 767.2578125 1521.66210938 787.5 c 1
 1370.00390625 787.5 l 1
569.4453125 709.162109375 m 1
 569.4453125 557.50390625 l 1
 589.6875 591.725585938 620.896484375 618.624023438 658.298828125 633.33203125 c 1
 620.896484375 648.041015625 589.686523438 674.939453125 569.4453125 709.162109375 c 1
125 375.830078125 m 1
 125 224.169921875 l 1
 145.243164062 258.393554688 176.453125 285.291015625 213.857421875 300 c 1
 176.453125 314.708984375 145.243164062 341.606445312 125 375.830078125 c 1
291.66796875 375.830078125 m 1
 291.66796875 224.169921875 l 1
 311.91015625 258.392578125 343.118164062 285.291015625 380.521484375 300 c 1
 343.118164062 314.708984375 311.91015625 341.607421875 291.66796875 375.830078125 c 1
569.4453125 42.494140625 m 1
 569.4453125 -109.162109375 l 1
 589.6875 -74.939453125 620.896484375 -48.041015625 658.298828125 -33.33203125 c 1
 620.896484375 -18.6240234375 589.6875 8.2724609375 569.4453125 42.494140625 c 1
EndSplineSet
EndChar

StartChar: U12224
Encoding: 267 74276 11
Width: 1712
VWidth: 100
Flags: W
HStem: -45.832 25<496.874 945.832> 287.5 25<220.777 266.668 385.762 945.832> 620.832 25<496.874 945.832> 787.5 25<945.832 1005.9 1036.67 1188.33 1219.1 1339.24 1370 1521.66 1552.43 1612.5>
VStem: 100 25<133.332 193.949 224.17 375.83 406.051 466.668> 266.668 25<133.332 193.403 224.17 286.955 313.045 375.83 406.597 466.668> 377.777 25<-200 -139.929 -109.162 42.4961 73.2617 133.332 466.668 526.738 557.504 709.162 739.929 800> 1100 25<300 693.403> 1114.23 24.3584<-23.4195 139.427> 1433.33 25<300 693.403> 1447.56 24.3584<-23.4189 139.427>
LayerCount: 2
Fore
SplineSet
945.83203125 812.5 m 1xff40
 1279.16796875 812.5 l 1
 1612.5 812.5 l 1
 1612.5 787.5 l 1
 1527.20898438 787.5 1458.33203125 718.623046875 1458.33203125 633.33203125 c 2
 1458.33203125 300 l 1
 1433.33203125 300 l 1
 1433.33203125 633.33203125 l 2
 1433.33203125 718.623046875 1364.45898438 787.5 1279.16796875 787.5 c 0
 1193.87695312 787.5 1125 718.623046875 1125 633.33203125 c 2
 1125 300 l 1
 1100 300 l 1
 1100 633.33203125 l 2
 1100 718.623046875 1031.12304688 787.5 945.83203125 787.5 c 1
 945.83203125 812.5 l 1xff40
377.77734375 800 m 1
 402.77734375 800 l 1
 402.77734375 714.708984375 471.654296875 645.83203125 556.9453125 645.83203125 c 2
 945.83203125 645.83203125 l 1
 945.83203125 620.83203125 l 1
 556.9453125 620.83203125 l 2
 471.653320312 620.83203125 402.77734375 551.958984375 402.77734375 466.66796875 c 1
 377.77734375 466.66796875 l 1
 377.77734375 800 l 1
1036.66992188 787.5 m 1
 1070.89355469 767.256835938 1097.79101562 736.046875 1112.5 698.642578125 c 1
 1127.20898438 736.046875 1154.10644531 767.256835938 1188.33007812 787.5 c 1
 1036.66992188 787.5 l 1
1370.00390625 787.5 m 1
 1404.22558594 767.2578125 1431.12304688 736.048828125 1445.83203125 698.646484375 c 1
 1460.54101562 736.048828125 1487.43945312 767.2578125 1521.66210938 787.5 c 1
 1370.00390625 787.5 l 1
402.77734375 709.162109375 m 1
 402.77734375 557.50390625 l 1
 423.01953125 591.725585938 454.228515625 618.623046875 491.630859375 633.33203125 c 1
 454.228515625 648.041015625 423.01953125 674.940429688 402.77734375 709.162109375 c 1
100 466.66796875 m 1
 125 466.66796875 l 1
 125 385.58984375 187.252929688 319.391601562 266.66796875 313.044921875 c 1
 266.66796875 466.66796875 l 1
 291.66796875 466.66796875 l 1
 291.66796875 381.376953125 360.541015625 312.5 445.83203125 312.5 c 2
 945.83203125 312.5 l 1
 945.83203125 287.5 l 1
 445.83203125 287.5 l 2
 360.541015625 287.5 291.66796875 218.623046875 291.66796875 133.33203125 c 1
 266.66796875 133.33203125 l 1
 266.66796875 286.955078125 l 1
 187.252929688 280.608398438 125 214.41015625 125 133.33203125 c 1
 100 133.33203125 l 1
 100 466.66796875 l 1
125 375.830078125 m 1
 125 224.169921875 l 1
 145.243164062 258.393554688 176.453125 285.291015625 213.857421875 300 c 1
 176.453125 314.708984375 145.243164062 341.606445312 125 375.830078125 c 1
291.66796875 375.830078125 m 1
 291.66796875 224.169921875 l 1
 311.91015625 258.392578125 343.118164062 285.291015625 380.521484375 300 c 1
 343.118164062 314.708984375 311.91015625 341.607421875 291.66796875 375.830078125 c 1
1228.66210938 308.837890625 m 1
 1246.33789062 291.162109375 l 1
 1165.33220131 210.156420064 1138.5863502 130.796519454 1138.5863502 60.096655668 c 0xfe80
 1138.5863502 24.2709061147 1145.45402686 -9.33115900579 1155.609375 -39.796875 c 0
 1185.80566406 -130.384765625 1246.33789062 -191.162109375 1246.33789062 -191.162109375 c 1
 1228.66210938 -208.837890625 l 1
 969.822265625 50 l 1
 1228.66210938 308.837890625 l 1
1561.99414062 308.837890625 m 1
 1579.671875 291.162109375 l 1
 1498.66530938 210.155543755 1471.91889558 130.794802444 1471.91889558 60.0943612052 c 0xfe20
 1471.91889558 24.2694714164 1478.78627491 -9.33180939967 1488.94140625 -39.796875 c 0
 1519.13769531 -130.384765625 1579.671875 -191.162109375 1579.671875 -191.162109375 c 1
 1561.99414062 -208.837890625 l 1
 1303.15429688 50 l 1
 1561.99414062 308.837890625 l 1
1142.2265625 187.05078125 m 1
 1005.17578125 50 l 1
 1152.01953125 -96.84375 l 1
 1144.64550781 -81.642578125 1137.73242188 -65.228515625 1131.890625 -47.703125 c 0
 1121.2284544 -15.7166131908 1114.22796557 20.059735831 1114.22796557 58.2395310251 c 0xfe80
 1114.22796557 98.9996284282 1122.2066558 142.499013469 1142.2265625 187.05078125 c 1
1475.55664062 187.048828125 m 1
 1338.5078125 50 l 1
 1485.3515625 -96.841796875 l 1
 1477.97753906 -81.6416015625 1471.06640625 -65.2275390625 1465.22460938 -47.703125 c 0
 1454.56181568 -15.714743903 1447.56044634 20.0636889071 1447.56044634 58.2456498206 c 0xfe20
 1447.56044634 99.0034460788 1455.53833404 142.500003338 1475.55664062 187.048828125 c 1
377.77734375 133.33203125 m 1
 402.77734375 133.33203125 l 1
 402.77734375 48.041015625 471.653320312 -20.83203125 556.9453125 -20.83203125 c 2
 945.83203125 -20.83203125 l 1
 945.83203125 -45.83203125 l 1
 556.9453125 -45.83203125 l 2
 471.654296875 -45.83203125 402.77734375 -114.708984375 402.77734375 -200 c 1
 377.77734375 -200 l 1
 377.77734375 133.33203125 l 1
402.77734375 42.49609375 m 1
 402.77734375 -109.162109375 l 1
 423.01953125 -74.939453125 454.229492188 -48.041015625 491.6328125 -33.33203125 c 1
 454.229492188 -18.623046875 423.01953125 8.2734375 402.77734375 42.49609375 c 1
EndSplineSet
EndChar

StartChar: U12261
Encoding: 268 74337 12
Width: 1212
VWidth: 100
Flags: W
HStem: 287.5 25<219.097 357.322 392.676 628.318 653.393 1112.5>
VStem: 100 25<133.332 193.403 224.17 375.83 406.597 466.668> 628.297 24.2637<201.534 287.5 312.5 431.076>
LayerCount: 2
Fore
SplineSet
853.662109375 808.837890625 m 1
 871.337890625 791.162109375 l 1
 707.001072419 626.825291169 652.560421512 464.167988883 652.560421512 319.39814152 c 0
 652.560421512 317.094208886 652.574209682 314.794806603 652.6015625 312.5 c 1
 1112.5 312.5 l 1
 1112.5 287.5 l 1
 653.392578125 287.5 l 1
 656.729492188 226.5390625 669.315429688 169.083984375 686.859375 116.453125 c 0
 748.3046875 -67.8837890625 871.337890625 -191.162109375 871.337890625 -191.162109375 c 1
 853.662109375 -208.837890625 l 1
 357.322265625 287.5 l 1
 279.16796875 287.5 l 2
 193.876953125 287.5 125 218.623046875 125 133.33203125 c 1
 100 133.33203125 l 1
 100 466.66796875 l 1
 125 466.66796875 l 1
 125 381.376953125 193.876953125 312.5 279.16796875 312.5 c 2
 357.322265625 312.5 l 1
 853.662109375 808.837890625 l 1
719.990234375 639.814453125 m 1
 392.67578125 312.5 l 1
 628.318359375 312.5 l 1
 628.303967209 314.214728508 628.2967295 315.931933317 628.2967295 317.651584652 c 0
 628.2967295 418.614553639 653.245232397 528.01074155 719.990234375 639.814453125 c 1
125 375.830078125 m 1
 125 224.169921875 l 1
 145.243164062 258.393554688 176.453125 285.291015625 213.857421875 300 c 1
 176.453125 314.708984375 145.243164062 341.606445312 125 375.830078125 c 1
392.67578125 287.5 m 1
 744.41015625 -64.234375 l 1
 714.987304688 -16.0439453125 685.235351562 42.263671875 663.140625 108.546875 c 0
 644.891601562 163.294921875 632.049804688 223.514648438 628.91015625 287.5 c 1
 392.67578125 287.5 l 1
EndSplineSet
EndChar

StartChar: U121b0
Encoding: 269 74160 13
Width: 1221
VWidth: 100
Flags: W
HStem: 287.5 25<219.097 315.654 351.01 493.971 519.113 862.5>
VStem: 100 25<133.332 193.403 224.17 375.83 406.597 466.668> 494.598 24.5156<212.868 287.5 312.5 408.395> 989.228 24.3584<-23.4195 139.427 476.581 639.427>
LayerCount: 2
Fore
SplineSet
1103.66210938 808.837890625 m 1
 1121.33789062 791.162109375 l 1
 1040.33220131 710.156420064 1013.5863502 630.796519454 1013.5863502 560.096655668 c 0
 1013.5863502 524.270906115 1020.45402686 490.668840994 1030.609375 460.203125 c 0
 1060.80566406 369.615234375 1121.33789062 308.837890625 1121.33789062 308.837890625 c 1
 1112.5 300 l 1
 1121.33789062 291.162109375 l 1
 1040.33220131 210.156420064 1013.5863502 130.796519454 1013.5863502 60.096655668 c 0
 1013.5863502 24.2709061147 1020.45402686 -9.33115900579 1030.609375 -39.796875 c 0
 1060.80566406 -130.384765625 1121.33789062 -191.162109375 1121.33789062 -191.162109375 c 1
 1103.66210938 -208.837890625 l 1
 844.822265625 50 l 1
 1094.82421875 300 l 1
 844.822265625 550 l 1
 1103.66210938 808.837890625 l 1
1017.2265625 687.05078125 m 1
 880.17578125 550 l 1
 1027.01953125 403.15625 l 1
 1019.64550781 418.357421875 1012.73242188 434.771484375 1006.890625 452.296875 c 0
 996.228454397 484.283386809 989.227965571 520.059735831 989.227965571 558.239531025 c 0
 989.227965571 598.999628428 997.206655804 642.499013469 1017.2265625 687.05078125 c 1
645.330078125 642.171875 m 1
 663.0078125 624.4921875 l 1
 553.956054688 515.44140625 518.091796875 408.06640625 518.267578125 312.5 c 1
 862.5 312.5 l 1
 862.5 287.5 l 1
 519.11328125 287.5 l 1
 521.696289062 248.911132812 529.849609375 212.481445312 541.025390625 178.953125 c 0
 581.638671875 57.1162109375 663.0078125 -24.4921875 663.0078125 -24.4921875 c 1
 645.330078125 -42.169921875 l 1
 315.654296875 287.5 l 1
 279.16796875 287.5 l 2
 193.876953125 287.5 125 218.623046875 125 133.33203125 c 1
 100 133.33203125 l 1
 100 466.66796875 l 1
 125 466.66796875 l 1
 125 381.376953125 193.876953125 312.5 279.16796875 312.5 c 2
 315.654296875 312.5 l 1
 645.330078125 642.171875 l 1
541.28125 502.76953125 m 1
 351.009765625 312.5 l 1
 493.970703125 312.5 l 1
 494.129882812 372.475585938 507.31640625 436.857421875 541.28125 502.76953125 c 1
125 375.830078125 m 1
 125 224.169921875 l 1
 145.243164062 258.393554688 176.453125 285.291015625 213.857421875 300 c 1
 176.453125 314.708984375 145.243164062 341.606445312 125 375.830078125 c 1
351.009765625 287.5 m 1
 555.955078125 82.55859375 l 1
 541.7265625 108.836914062 528.145507812 138.5390625 517.30859375 171.048828125 c 0
 505.420898438 206.7109375 496.997070312 245.893554688 494.59765625 287.5 c 1
 351.009765625 287.5 l 1
1017.2265625 187.05078125 m 1
 880.17578125 50 l 1
 1027.01953125 -96.84375 l 1
 1019.64550781 -81.642578125 1012.73242188 -65.228515625 1006.890625 -47.703125 c 0
 996.228454397 -15.7166131908 989.227965571 20.059735831 989.227965571 58.2395310251 c 0
 989.227965571 98.9996284282 997.206655804 142.499013469 1017.2265625 187.05078125 c 1
EndSplineSet
EndChar

StartChar: U12041
Encoding: 270 73793 14
Width: 1221
VWidth: 100
Flags: W
HStem: 287.5 25<219.097 940.654>
VStem: 100 25<133.332 193.403 224.17 375.83 406.597 466.668> 1026.3 24.3251<240.565 370.693>
LayerCount: 2
Fore
SplineSet
1103.66210938 475.505859375 m 1
 1121.33984375 457.830078125 l 1
 1068.1113358 404.601570177 1050.6216213 353.010358817 1050.6216213 306.999179537 c 0
 1050.6216213 283.522544796 1055.17493611 261.498629176 1061.85742188 241.451171875 c 0
 1081.63671875 182.11328125 1121.33984375 142.169921875 1121.33984375 142.169921875 c 1
 1103.66210938 124.4921875 l 1
 940.654296875 287.5 l 1
 279.16796875 287.5 l 2
 193.876953125 287.5 125 218.623046875 125 133.33203125 c 1
 100 133.33203125 l 1
 100 466.66796875 l 1
 125 466.66796875 l 1
 125 381.376953125 193.876953125 312.5 279.16796875 312.5 c 2
 940.654296875 312.5 l 1
 1103.66210938 475.505859375 l 1
125 375.830078125 m 1
 125 224.169921875 l 1
 145.243164062 258.393554688 176.453125 285.291015625 213.857421875 300 c 1
 176.453125 314.708984375 145.243164062 341.606445312 125 375.830078125 c 1
1037.99414062 374.484375 m 1
 963.509765625 300 l 1
 1042.8203125 220.689453125 l 1
 1041.18066406 224.876953125 1039.60546875 229.153320312 1038.140625 233.546875 c 0
 1030.96192622 255.083496598 1026.29650124 279.244703803 1026.29650124 305.03427384 c 0
 1026.29650124 327.192826592 1029.74068084 350.553493636 1037.99414062 374.484375 c 1
EndSplineSet
EndChar

StartChar: U12458
Encoding: 271 74840 15
Width: 1221
VWidth: 100
Flags: W
HStem: 287.5 25<219.097 940.654>
VStem: 100 25<133.332 193.403 224.17 375.83 406.597 466.668> 1026.3 24.3251<240.565 370.693>
LayerCount: 2
Fore
SplineSet
1103.66210938 475.505859375 m 1
 1121.33984375 457.830078125 l 1
 1068.1113358 404.601570177 1050.6216213 353.010358817 1050.6216213 306.999179537 c 0
 1050.6216213 283.522544796 1055.17493611 261.498629176 1061.85742188 241.451171875 c 0
 1081.63671875 182.11328125 1121.33984375 142.169921875 1121.33984375 142.169921875 c 1
 1103.66210938 124.4921875 l 1
 940.654296875 287.5 l 1
 279.16796875 287.5 l 2
 193.876953125 287.5 125 218.623046875 125 133.33203125 c 1
 100 133.33203125 l 1
 100 466.66796875 l 1
 125 466.66796875 l 1
 125 381.376953125 193.876953125 312.5 279.16796875 312.5 c 2
 940.654296875 312.5 l 1
 1103.66210938 475.505859375 l 1
125 375.830078125 m 1
 125 224.169921875 l 1
 145.243164062 258.393554688 176.453125 285.291015625 213.857421875 300 c 1
 176.453125 314.708984375 145.243164062 341.606445312 125 375.830078125 c 1
1037.99414062 374.484375 m 1
 963.509765625 300 l 1
 1042.8203125 220.689453125 l 1
 1041.18066406 224.876953125 1039.60546875 229.153320312 1038.140625 233.546875 c 0
 1030.96192622 255.083496598 1026.29650124 279.244703803 1026.29650124 305.03427384 c 0
 1026.29650124 327.192826592 1029.74068084 350.553493636 1037.99414062 374.484375 c 1
EndSplineSet
EndChar

StartChar: U12074
Encoding: 272 73844 16
Width: 2221
VWidth: 100
Flags: W
HStem: -143.203 24.6612<1068.52 1172.25> 287.5 25<219.097 1099.46> 454.168 25<945.832 1006.45 1036.67 1188.33 1219.1 1279.17> 718.542 24.6612<1068.52 1172.25>
VStem: 100 25<133.332 193.403 224.17 375.83 406.597 466.668> 609.63 24.3245<-92.7672 37.3608 573.9 704.027> 1100 25<133.332 287.5 312.5 358.391> 1169.3 24.6625<-243.982 -140.246 740.246 843.982>
LayerCount: 2
Fore
SplineSet
1221.51367188 926.69140625 m 1
 1239.19140625 909.013671875 l 1
 1209.03710938 878.859375 1193.95996094 839.430175781 1193.95996094 800.000976562 c 0
 1193.95996094 760.571777344 1209.03710938 721.142578125 1239.19140625 690.98828125 c 2
 1612.50195312 317.677734375 l 1
 2103.66210938 808.83984375 l 1
 2121.33984375 791.162109375 l 1
 1630.1796875 300 l 1
 2121.33984375 -191.162109375 l 1
 2103.66210938 -208.83984375 l 1
 1612.50195312 282.322265625 l 1
 1239.19140625 -90.98828125 l 2
 1209.03710938 -121.142578125 1193.95996094 -160.571777344 1193.95996094 -200.000976562 c 0
 1193.95996094 -239.430175781 1209.03710938 -278.859375 1239.19140625 -309.013671875 c 1
 1221.51367188 -326.69140625 l 1
 985.810546875 -90.986328125 l 1
 1003.48632812 -73.310546875 l 1
 1033.640625 -103.46484375 1073.0703125 -118.541992188 1112.5 -118.541992188 c 0
 1151.9296875 -118.541992188 1191.359375 -103.46484375 1221.51367188 -73.310546875 c 2
 1594.82421875 300 l 1
 1221.51367188 673.310546875 l 2
 1191.359375 703.46484375 1151.9296875 718.541992188 1112.5 718.541992188 c 0
 1073.0703125 718.541992188 1033.640625 703.46484375 1003.48632812 673.310546875 c 1
 985.810546875 690.986328125 l 1
 1221.51367188 926.69140625 l 1
1174.9609375 844.783203125 m 1
 1067.71484375 737.5390625 l 1
 1082.41987348 741.31394259 1097.50060338 743.203203584 1112.57756942 743.203203584 c 0
 1136.98840678 743.203203584 1161.38937744 738.250647535 1184.16992188 728.330078125 c 1
 1174.24981324 751.110347065 1169.29748791 775.51108893 1169.29748791 799.921905281 c 0
 1169.29748791 814.99828943 1171.18651832 830.078516421 1174.9609375 844.783203125 c 1
686.9921875 808.837890625 m 1
 704.669921875 791.162109375 l 1
 651.44381231 737.93470658 633.955012162 686.345816822 633.955012162 640.336512568 c 0
 633.955012162 616.859391828 638.508648561 594.835052493 645.19140625 574.787109375 c 0
 664.970703125 515.450195312 704.669921875 475.505859375 704.669921875 475.505859375 c 1
 686.9921875 457.830078125 l 1
 511.490234375 633.33203125 l 1
 686.9921875 808.837890625 l 1
621.328125 707.818359375 m 1
 546.845703125 633.33203125 l 1
 626.15234375 554.025390625 l 1
 624.512695312 558.212890625 622.939453125 562.487304688 621.474609375 566.880859375 c 0
 614.295910595 588.417480973 609.630485611 612.578405661 609.630485611 638.367866531 c 0
 609.630485611 660.526325485 613.074665218 683.887026706 621.328125 707.818359375 c 1
945.83203125 479.16796875 m 1
 1279.16796875 479.16796875 l 1
 1279.16796875 454.16796875 l 1
 1193.87695312 454.16796875 1125 385.291015625 1125 300 c 2
 1125 133.33203125 l 1
 1100 133.33203125 l 1
 1100 287.5 l 1
 279.16796875 287.5 l 2
 193.876953125 287.5 125 218.623046875 125 133.33203125 c 1
 100 133.33203125 l 1
 100 466.66796875 l 1
 125 466.66796875 l 1
 125 381.376953125 193.876953125 312.5 279.16796875 312.5 c 2
 1099.45507812 312.5 l 1
 1093.10839844 391.915039062 1026.91015625 454.16796875 945.83203125 454.16796875 c 1
 945.83203125 479.16796875 l 1
1036.66992188 454.16796875 m 1
 1070.89355469 433.924804688 1097.79101562 402.71484375 1112.5 365.310546875 c 1
 1127.20898438 402.71484375 1154.10644531 433.924804688 1188.33007812 454.16796875 c 1
 1036.66992188 454.16796875 l 1
125 375.830078125 m 1
 125 224.169921875 l 1
 145.243164062 258.393554688 176.453125 285.291015625 213.857421875 300 c 1
 176.453125 314.708984375 145.243164062 341.606445312 125 375.830078125 c 1
686.9921875 142.169921875 m 1
 704.669921875 124.494140625 l 1
 651.44381231 71.2680310601 633.955012162 19.6791500948 633.955012162 -26.3305793337 c 0
 633.955012162 -49.8079170267 638.508648561 -71.8325863092 645.19140625 -91.880859375 c 0
 664.970703125 -151.21875 704.669921875 -191.16015625 704.669921875 -191.16015625 c 1
 686.9921875 -208.837890625 l 1
 511.490234375 -33.33203125 l 1
 686.9921875 142.169921875 l 1
621.328125 41.15234375 m 1
 546.845703125 -33.33203125 l 1
 626.15234375 -112.640625 l 1
 624.512695312 -108.453125 622.939453125 -104.178710938 621.474609375 -99.78515625 c 0
 614.295910595 -78.2485346523 609.630485611 -54.0873274466 609.630485611 -28.2977574097 c 0
 609.630485611 -6.13920465844 613.074665218 17.2214623859 621.328125 41.15234375 c 1
1184.16992188 -128.330078125 m 1
 1161.38937744 -138.250647535 1136.98840678 -143.203203584 1112.57756942 -143.203203584 c 0
 1097.50060338 -143.203203584 1082.41987348 -141.31394259 1067.71484375 -137.5390625 c 1
 1174.9609375 -244.783203125 l 1
 1171.18651832 -230.078516421 1169.29748791 -214.99828943 1169.29748791 -199.921905281 c 0
 1169.29748791 -175.51108893 1174.24981324 -151.110347065 1184.16992188 -128.330078125 c 1
EndSplineSet
EndChar

StartChar: U1223e
Encoding: 273 74302 17
Width: 1712
VWidth: 100
Flags: W
HStem: 287.5 25<219.097 940.654> 787.5 25<1279.17 1339.56 1370 1415.66 1439.39 1521.66 1552.43 1612.5>
VStem: 100 25<133.332 193.403 224.17 375.83 406.597 466.668> 1072.56 24.3753<226.575 389.603> 1322.56 24.3858<476.572 639.049> 1433.33 25<-200 294.824 333.615 693.403>
LayerCount: 2
Fore
SplineSet
1279.16796875 812.5 m 1
 1612.5 812.5 l 1
 1612.5 787.5 l 1
 1527.20898438 787.5 1458.33203125 718.623046875 1458.33203125 633.33203125 c 2
 1458.33203125 -200 l 1
 1433.33203125 -200 l 1
 1433.33203125 294.82421875 l 1
 1195.96875 532.185546875 l 1
 1121.75805943 454.27245119 1096.93573073 378.126192578 1096.93573073 310.020289723 c 0
 1096.93573073 274.222939421 1103.79337221 240.646890666 1113.94140625 210.203125 c 0
 1144.13769531 119.615234375 1204.671875 58.837890625 1204.671875 58.837890625 c 1
 1186.99414062 41.162109375 l 1
 940.654296875 287.5 l 1
 279.16796875 287.5 l 2
 193.876953125 287.5 125 218.623046875 125 133.33203125 c 1
 100 133.33203125 l 1
 100 466.66796875 l 1
 125 466.66796875 l 1
 125 381.376953125 193.876953125 312.5 279.16796875 312.5 c 2
 940.654296875 312.5 l 1
 1178.15429688 550 l 1
 1379.01171875 750.85546875 l 1
 1352.12988281 773.704101562 1317.30175781 787.5 1279.16796875 787.5 c 1
 1279.16796875 812.5 l 1
1370.00390625 787.5 m 1
 1379.43359375 781.922851562 1388.28222656 775.484375 1396.49804688 768.341796875 c 1
 1415.65625 787.5 l 1
 1370.00390625 787.5 l 1
1451.12109375 787.5 m 1
 1438.171875 774.29296875 1426.63378906 761.133789062 1416.43164062 748.05078125 c 1
 1428.71289062 733.388671875 1438.71191406 716.752929688 1445.83203125 698.646484375 c 1
 1460.54101562 736.048828125 1487.43945312 767.2578125 1521.66210938 787.5 c 1
 1451.12109375 787.5 l 1
1401.3671875 727.39453125 m 1
 1361.43787191 668.761785136 1346.94622532 612.023585229 1346.94622532 559.981357388 c 0
 1346.94622532 524.198325741 1353.79732426 490.635370957 1363.94140625 460.203125 c 0
 1382.63867188 404.111328125 1412.94433594 359.49609375 1433.33203125 333.615234375 c 1
 1433.33203125 633.33203125 l 2
 1433.33203125 668.786132812 1421.40136719 701.380859375 1401.3671875 727.39453125 c 1
1350.55664062 687.048828125 m 1
 1213.5078125 550 l 1
 1360.3515625 403.158203125 l 1
 1352.97753906 418.358398438 1346.06640625 434.772460938 1340.22460938 452.296875 c 0
 1329.56181568 484.285256097 1322.56044634 520.063688907 1322.56044634 558.245649821 c 0
 1322.56044634 599.003446079 1330.53833404 642.500003338 1350.55664062 687.048828125 c 1
1100.55664062 437.048828125 m 1
 963.5078125 300 l 1
 1110.3515625 153.158203125 l 1
 1102.97753906 168.358398438 1096.06640625 184.772460938 1090.22460938 202.296875 c 0
 1079.56181568 234.285256097 1072.56044634 270.063688907 1072.56044634 308.245649821 c 0
 1072.56044634 349.003446079 1080.53833404 392.500003338 1100.55664062 437.048828125 c 1
125 375.830078125 m 1
 125 224.169921875 l 1
 145.243164062 258.393554688 176.453125 285.291015625 213.857421875 300 c 1
 176.453125 314.708984375 145.243164062 341.606445312 125 375.830078125 c 1
EndSplineSet
EndChar

StartChar: U12034
Encoding: 274 73780 18
Width: 1212
VWidth: 100
Flags: W
HStem: 287.5 25<219.097 773.99> 787.5 25<779.168 839.238 870.004 1021.66 1052.43 1112.5>
VStem: 100 25<133.332 193.403 224.17 375.83 406.597 466.668> 526.297 24.3251<-92.7663 37.3586 573.9 704.025> 859.63 24.3325<239.849 370.817> 933.332 25<-200 128.152 168.246 434.295 471.846 693.403>
LayerCount: 2
Fore
SplineSet
779.16796875 812.5 m 1
 1112.5 812.5 l 1
 1112.5 787.5 l 1
 1027.20898438 787.5 958.33203125 718.623046875 958.33203125 633.33203125 c 2
 958.33203125 -200 l 1
 933.33203125 -200 l 1
 933.33203125 128.15234375 l 1
 773.990234375 287.5 l 1
 279.16796875 287.5 l 2
 193.876953125 287.5 125 218.623046875 125 133.33203125 c 1
 100 133.33203125 l 1
 100 466.66796875 l 1
 125 466.66796875 l 1
 125 381.376953125 193.876953125 312.5 279.16796875 312.5 c 2
 773.990234375 312.5 l 1
 933.33203125 471.845703125 l 1
 933.33203125 633.33203125 l 2
 933.33203125 718.623046875 864.458984375 787.5 779.16796875 787.5 c 1
 779.16796875 812.5 l 1
603.662109375 808.837890625 m 1
 621.33984375 791.162109375 l 1
 568.111335802 737.933601427 550.621621304 686.343674557 550.621621304 640.333646721 c 0
 550.621621304 616.857599489 555.174936108 594.834236742 561.857421875 574.787109375 c 0
 581.63671875 515.450195312 621.33984375 475.5078125 621.33984375 475.5078125 c 1
 603.662109375 457.828125 l 1
 428.154296875 633.33203125 l 1
 603.662109375 808.837890625 l 1
870.00390625 787.5 m 1
 904.225585938 767.2578125 931.123046875 736.048828125 945.83203125 698.646484375 c 1
 960.541015625 736.048828125 987.440429688 767.2578125 1021.66210938 787.5 c 1
 870.00390625 787.5 l 1
537.994140625 707.81640625 m 1
 463.509765625 633.33203125 l 1
 542.8203125 554.025390625 l 1
 541.180664062 558.212890625 539.60546875 562.487304688 538.140625 566.880859375 c 0
 530.96192622 588.416955715 526.296501236 612.577637663 526.296501236 638.366834398 c 0
 526.296501236 660.525066406 529.740680843 683.885524886 537.994140625 707.81640625 c 1
933.33203125 434.294921875 m 1
 896.660085049 389.427700752 883.962970112 346.1724321 883.962970112 306.969027159 c 0
 883.962970112 283.503689396 888.511919383 261.489998135 895.19140625 241.451171875 c 0
 905.360351562 210.944335938 920.734375 185.708007812 933.33203125 168.24609375 c 1
 933.33203125 434.294921875 l 1
125 375.830078125 m 1
 125 224.169921875 l 1
 145.243164062 258.393554688 176.453125 285.291015625 213.857421875 300 c 1
 176.453125 314.708984375 145.243164062 341.606445312 125 375.830078125 c 1
871.328125 374.486328125 m 1
 796.845703125 300 l 1
 876.150390625 220.69140625 l 1
 874.510742188 224.877929688 872.938476562 229.154296875 871.474609375 233.546875 c 0
 864.295910595 255.083496598 859.630485611 279.244986321 859.630485611 305.034969436 c 0
 859.630485611 327.193877107 863.074665218 350.554995456 871.328125 374.486328125 c 1
603.662109375 142.171875 m 1
 621.33984375 124.4921875 l 1
 568.111335802 71.2649728088 550.621621304 19.6767673584 550.621621304 -26.3325284302 c 0
 550.621621304 -49.8082021437 555.174936108 -71.831448949 561.857421875 -91.87890625 c 0
 581.63671875 -151.216796875 621.33984375 -191.16015625 621.33984375 -191.16015625 c 1
 603.662109375 -208.837890625 l 1
 428.154296875 -33.33203125 l 1
 603.662109375 142.171875 l 1
537.994140625 41.150390625 m 1
 463.509765625 -33.33203125 l 1
 542.818359375 -112.640625 l 1
 541.178710938 -108.454101562 539.604492188 -104.177734375 538.140625 -99.78515625 c 0
 530.96192622 -78.2485346523 526.296501236 -54.0878924812 526.296501236 -28.2988446899 c 0
 526.296501236 -6.14074065519 529.740680843 17.2195092609 537.994140625 41.150390625 c 1
EndSplineSet
EndChar

StartChar: U1222c
Encoding: 275 74284 19
Width: 1221
VWidth: 100
Flags: W
HStem: 287.5 25<219.097 612.5>
VStem: 100 25<133.332 193.403 224.17 375.83 406.597 466.668> 739.228 24.3584<-23.4195 139.427 476.581 639.427> 989.228 24.3584<-23.4195 139.427 476.581 639.427>
LayerCount: 2
Fore
SplineSet
853.662109375 808.837890625 m 1
 871.337890625 791.162109375 l 1
 790.332201314 710.156420064 763.5863502 630.796519454 763.5863502 560.096655668 c 0
 763.5863502 524.270906115 770.454026859 490.668840994 780.609375 460.203125 c 0
 810.805664062 369.615234375 871.337890625 308.837890625 871.337890625 308.837890625 c 1
 862.5 300 l 1
 871.337890625 291.162109375 l 1
 790.332201314 210.156420064 763.5863502 130.796519454 763.5863502 60.096655668 c 0
 763.5863502 24.2709061147 770.454026859 -9.33115900579 780.609375 -39.796875 c 0
 810.805664062 -130.384765625 871.337890625 -191.162109375 871.337890625 -191.162109375 c 1
 853.662109375 -208.837890625 l 1
 594.822265625 50 l 1
 844.82421875 300 l 1
 594.822265625 550 l 1
 853.662109375 808.837890625 l 1
1103.66210938 808.837890625 m 1
 1121.33789062 791.162109375 l 1
 1040.33220131 710.156420064 1013.5863502 630.796519454 1013.5863502 560.096655668 c 0
 1013.5863502 524.270906115 1020.45402686 490.668840994 1030.609375 460.203125 c 0
 1060.80566406 369.615234375 1121.33789062 308.837890625 1121.33789062 308.837890625 c 1
 1112.5 300 l 1
 1121.33789062 291.162109375 l 1
 1040.33220131 210.156420064 1013.5863502 130.796519454 1013.5863502 60.096655668 c 0
 1013.5863502 24.2709061147 1020.45402686 -9.33115900579 1030.609375 -39.796875 c 0
 1060.80566406 -130.384765625 1121.33789062 -191.162109375 1121.33789062 -191.162109375 c 1
 1103.66210938 -208.837890625 l 1
 844.822265625 50 l 1
 1094.82421875 300 l 1
 844.822265625 550 l 1
 1103.66210938 808.837890625 l 1
767.2265625 687.05078125 m 1
 630.17578125 550 l 1
 777.01953125 403.15625 l 1
 769.645507812 418.357421875 762.732421875 434.771484375 756.890625 452.296875 c 0
 746.228454397 484.283386809 739.227965571 520.059735831 739.227965571 558.239531025 c 0
 739.227965571 598.999628428 747.206655804 642.499013469 767.2265625 687.05078125 c 1
1017.2265625 687.05078125 m 1
 880.17578125 550 l 1
 1027.01953125 403.15625 l 1
 1019.64550781 418.357421875 1012.73242188 434.771484375 1006.890625 452.296875 c 0
 996.228454397 484.283386809 989.227965571 520.059735831 989.227965571 558.239531025 c 0
 989.227965571 598.999628428 997.206655804 642.499013469 1017.2265625 687.05078125 c 1
100 466.66796875 m 1
 125 466.66796875 l 1
 125 381.376953125 193.876953125 312.5 279.16796875 312.5 c 2
 612.5 312.5 l 1
 612.5 287.5 l 1
 279.16796875 287.5 l 2
 193.876953125 287.5 125 218.623046875 125 133.33203125 c 1
 100 133.33203125 l 1
 100 466.66796875 l 1
125 375.830078125 m 1
 125 224.169921875 l 1
 145.243164062 258.393554688 176.453125 285.291015625 213.857421875 300 c 1
 176.453125 314.708984375 145.243164062 341.606445312 125 375.830078125 c 1
767.2265625 187.05078125 m 1
 630.17578125 50 l 1
 777.01953125 -96.84375 l 1
 769.645507812 -81.642578125 762.732421875 -65.228515625 756.890625 -47.703125 c 0
 746.228454397 -15.7166131908 739.227965571 20.059735831 739.227965571 58.2395310251 c 0
 739.227965571 98.9996284282 747.206655804 142.499013469 767.2265625 187.05078125 c 1
1017.2265625 187.05078125 m 1
 880.17578125 50 l 1
 1027.01953125 -96.84375 l 1
 1019.64550781 -81.642578125 1012.73242188 -65.228515625 1006.890625 -47.703125 c 0
 996.228454397 -15.7166131908 989.227965571 20.059735831 989.227965571 58.2395310251 c 0
 989.227965571 98.9996284282 997.206655804 142.499013469 1017.2265625 187.05078125 c 1
EndSplineSet
EndChar

StartChar: U12075
Encoding: 276 73845 20
Width: 2220
VWidth: 100
Flags: W
HStem: -146.038 24.6875<1404.99 1509.58> 218.541 24.6619<1095.14 1198.86> 287.5 25<220.777 266.668 385.762 791.73> 323.017 24.7143<861.306 927.906> 494.119 24.7137<1032.41 1099.01> 721.353 24.6855<1404.99 1509.58>
VStem: 100 25<133.332 193.949 224.17 375.83 406.051 466.668> 266.668 25<133.332 193.403 224.17 286.955 313.045 375.83 406.597 466.668> 451.834 24.325<-92.7672 37.3591 573.9 704.026> 920.279 24.7164<340.103 406.702> 1091.38 24.7171<511.206 577.805> 1195.91 24.6622<240.245 343.98> 1482.07 24.666<-274.836 -176.861 776.862 874.837>
LayerCount: 2
Fore
SplineSet
1516.31640625 941.953125 m 1
 1536.50390625 927.205078125 l 1
 1516.4183928 899.713073017 1506.73852164 867.858435545 1506.73852164 836.304662861 c 0
 1506.73852164 788.814320733 1528.66543945 742.005499812 1570.04492188 711.77734375 c 1
 1555.29882812 691.58984375 l 1
 1527.80595324 711.673683951 1495.95175411 721.352559449 1464.39856947 721.352559449 c 0
 1416.90712987 721.352559449 1370.09760751 699.426066434 1339.8671875 658.048828125 c 1
 1339.8671875 658.046875 l 1
 1329.7734375 665.421875 l 1
 1319.6796875 672.794921875 l 1
 1319.6796875 672.796875 l 2
 1319.68359375 672.802734375 1319.69335938 672.80859375 1319.69335938 672.814453125 c 2
 1516.3046875 941.93359375 l 2
 1516.30664062 941.939453125 1516.31640625 941.9453125 1516.31640625 941.951171875 c 2
 1516.31640625 941.953125 l 1
1555.29882812 691.58984375 m 1
 1570.046875 711.77734375 l 1
 2119.875 310.09375 l 1
 2112.5 300 l 1
 2119.875 289.90625 l 1
 1570.046875 -111.77734375 l 1
 1570.04492188 -111.775390625 l 1
 1528.66543945 -142.003546687 1506.73852164 -188.812367608 1506.73852164 -236.302709736 c 0
 1506.73852164 -267.85648242 1516.4183928 -299.711119892 1536.50390625 -327.203125 c 1
 1516.31640625 -341.951171875 l 1
 1516.3046875 -341.93359375 l 1
 1319.69335938 -72.814453125 l 2
 1319.68945312 -72.80859375 1319.6796875 -72.802734375 1319.6796875 -72.796875 c 2
 1319.6796875 -72.794921875 l 1
 1329.7734375 -65.421875 l 1
 1339.8671875 -58.046875 l 1
 1370.09760751 -99.4241133091 1416.90712987 -121.350606324 1464.39856947 -121.350606324 c 0
 1495.95175411 -121.350606324 1527.80595324 -111.671730826 1555.29882812 -91.587890625 c 1
 1555.29882812 -91.58984375 l 1
 2091.31054688 300 l 1
 1555.29882812 691.58984375 l 1
1482.91601562 853.85546875 m 1
 1393.453125 731.396484375 l 1
 1415.97577901 741.07081015 1440.22248116 746.038057658 1464.61734266 746.038057658 c 0
 1479.79252606 746.038057658 1495.02504188 744.115908951 1509.93554688 740.208984375 c 1
 1491.56495758 769.174560812 1482.0725433 802.647146383 1482.0725433 836.4357112 c 0
 1482.0725433 842.240054453 1482.35266281 848.053722198 1482.91601562 853.85546875 c 1
529.197265625 808.837890625 m 1
 546.875 791.162109375 l 1
 493.648009938 737.933826062 476.158655358 686.344109996 476.158655358 640.334229235 c 0
 476.158655358 616.857963802 480.711990212 594.834402552 487.39453125 574.787109375 c 0
 507.173828125 515.450195312 546.875 475.5078125 546.875 475.5078125 c 1
 529.197265625 457.830078125 l 1
 353.693359375 633.33203125 l 1
 529.197265625 808.837890625 l 1
463.53125 707.81640625 m 1
 389.048828125 633.33203125 l 1
 468.353515625 554.02734375 l 1
 466.713867188 558.213867188 465.141601562 562.48828125 463.677734375 566.880859375 c 0
 456.499119586 588.416703742 451.834002294 612.577354812 451.834002294 638.366320875 c 0
 451.834002294 660.524915677 455.27812914 683.885650324 463.53125 707.81640625 c 1
1130.27148438 651.04296875 m 1
 1147.94921875 633.365234375 l 1
 1126.71496582 612.130981441 1116.09777831 584.392597913 1116.09777831 556.653716177 c 0
 1116.09777831 528.915791234 1126.71423339 501.177368118 1147.94726562 479.94140625 c 2
 1224.66210938 403.23046875 l 1
 1248.12304688 426.69140625 l 1
 1265.79882812 409.013671875 l 1
 1235.64489746 378.858764645 1220.56774902 339.428879978 1220.56774902 299.99915493 c 0
 1220.56774902 260.569749121 1235.64465332 221.140502929 1265.79882812 190.986328125 c 2
 1319.05273438 137.736328125 l 1
 1301.37695312 120.05859375 l 1
 1248.12304688 173.30859375 l 1
 1248.12109375 173.30859375 l 1
 1217.96643032 203.463257183 1178.53825522 218.540649955 1139.11011705 218.540649955 c 0
 1099.69059877 218.540649955 1060.27111739 203.46984898 1030.11914062 173.328125 c 0
 1030.11328125 173.322265625 1030.11132812 173.31640625 1030.1015625 173.310546875 c 2
 1012.42382812 190.986328125 l 1
 1035.8828125 214.447265625 l 1
 959.16796875 291.162109375 l 2
 937.933471692 312.398559569 910.195726044 323.016967774 882.457407416 323.016967774 c 0
 854.719407671 323.016967774 826.98083496 312.39880371 805.744140625 291.162109375 c 1
 796.90625 300 l 1
 796.90625 287.5 l 1
 445.83203125 287.5 l 2
 360.541015625 287.5 291.66796875 218.623046875 291.66796875 133.33203125 c 1
 266.66796875 133.33203125 l 1
 266.66796875 286.955078125 l 1
 187.252929688 280.608398438 125 214.41015625 125 133.33203125 c 1
 100 133.33203125 l 1
 100 466.66796875 l 1
 125 466.66796875 l 1
 125 385.58984375 187.252929688 319.391601562 266.66796875 313.044921875 c 1
 266.66796875 466.66796875 l 1
 291.66796875 466.66796875 l 1
 291.66796875 381.376953125 360.541015625 312.5 445.83203125 312.5 c 2
 791.73046875 312.5 l 1
 959.16796875 479.939453125 l 1
 959.169921875 479.939453125 l 1
 1130.27148438 651.04296875 l 1
1093.17773438 578.59375 m 1
 1031.61914062 517.03515625 l 1
 1038.87083382 518.233987108 1046.19761967 518.832875667 1053.52247937 518.832875667 c 0
 1069.10416277 518.832875667 1084.67713019 516.122832893 1099.5 510.712890625 c 1
 1094.09048301 525.536415387 1091.3806522 541.110555943 1091.3806522 556.692910158 c 0
 1091.3806522 564.017073092 1091.97932844 571.343050649 1093.17773438 578.59375 c 1
1053.55859375 494.119140625 m 0
 1025.8203125 494.119140625 998.083984375 483.5 976.84765625 462.263671875 c 1
 976.845703125 462.263671875 l 1
 976.845703125 462.26171875 l 1
 955.612182613 441.025268601 944.995483389 413.288066124 944.995483389 385.550873596 c 0
 944.995483389 357.812724322 955.612915035 330.074584999 976.84765625 308.837890625 c 2
 1053.56054688 232.125 l 1
 1206.98632812 385.552734375 l 1
 1130.27148438 462.263671875 l 1
 1130.26953125 462.263671875 l 1
 1109.03515625 483.5 1081.296875 494.119140625 1053.55859375 494.119140625 c 0
922.076171875 407.4921875 m 1
 860.517578125 345.93359375 l 1
 867.769271323 347.132424608 875.096057165 347.731313167 882.420916875 347.731313167 c 0
 898.002600272 347.731313167 913.575567686 345.021270393 928.3984375 339.611328125 c 1
 922.988920509 354.434852887 920.279089701 370.008993443 920.279089701 385.591347658 c 0
 920.279089701 392.915510592 920.877765945 400.241488149 922.076171875 407.4921875 c 1
125 375.830078125 m 1
 125 224.169921875 l 1
 145.243164062 258.393554688 176.453125 285.291015625 213.857421875 300 c 1
 176.453125 314.708984375 145.243164062 341.606445312 125 375.830078125 c 1
291.66796875 375.830078125 m 1
 291.66796875 224.169921875 l 1
 311.91015625 258.392578125 343.118164062 285.291015625 380.521484375 300 c 1
 343.118164062 314.708984375 311.91015625 341.607421875 291.66796875 375.830078125 c 1
1201.56835938 344.78125 m 1
 1094.33007812 237.5390625 l 1
 1109.03439197 241.313481677 1124.11410375 243.202512087 1139.18993903 243.202512087 c 0
 1163.59986669 243.202512087 1187.99963164 238.25018676 1210.77929688 228.330078125 c 1
 1200.8586174 251.111054185 1195.90554647 275.513062925 1195.90554647 299.924966371 c 0
 1195.90554647 314.999749708 1197.79429187 330.078306175 1201.56835938 344.78125 c 1
529.197265625 142.169921875 m 1
 546.875 124.494140625 l 1
 493.648009938 71.2671505631 476.158655358 19.6774432693 476.158655358 -26.3328626874 c 0
 476.158655358 -49.8093450745 480.711990212 -71.8332362606 487.39453125 -91.880859375 c 0
 507.173828125 -151.21875 546.875 -191.16015625 546.875 -191.16015625 c 1
 529.197265625 -208.837890625 l 1
 353.693359375 -33.33203125 l 1
 529.197265625 142.169921875 l 1
463.53125 41.150390625 m 1
 389.048828125 -33.33203125 l 1
 468.353515625 -112.638671875 l 1
 466.713867188 -108.452148438 465.141601562 -104.177734375 463.677734375 -99.78515625 c 0
 456.499035595 -78.2485346523 451.833610611 -54.0878924812 451.833610611 -28.2988446899 c 0
 451.833610611 -6.14074065519 455.277790218 17.2195092609 463.53125 41.150390625 c 1
1393.453125 -131.396484375 m 1
 1482.91601562 -253.85546875 l 1
 1482.35266281 -248.053722198 1482.0725433 -242.240054453 1482.0725433 -236.4357112 c 0
 1482.0725433 -202.647146383 1491.56495758 -169.174560812 1509.93554688 -140.208984375 c 1
 1495.02504188 -144.115908951 1479.79252606 -146.038057658 1464.61734266 -146.038057658 c 0
 1440.22248116 -146.038057658 1415.97577901 -141.07081015 1393.453125 -131.396484375 c 1
EndSplineSet
EndChar

StartChar: U12226
Encoding: 277 74278 21
Width: 1212
VWidth: 100
Flags: W
HStem: 287.5 25<219.097 600 625 1112.5> 787.5 25<445.832 505.903 536.67 688.33 719.097 779.168>
VStem: 100 25<133.332 193.403 224.17 375.83 406.597 466.668> 600 25<-200 287.5 312.5 693.403>
LayerCount: 2
Fore
SplineSet
445.83203125 812.5 m 1
 779.16796875 812.5 l 1
 779.16796875 787.5 l 1
 693.876953125 787.5 625 718.623046875 625 633.33203125 c 2
 625 312.5 l 1
 1112.5 312.5 l 1
 1112.5 287.5 l 1
 625 287.5 l 1
 625 -200 l 1
 600 -200 l 1
 600 287.5 l 1
 279.16796875 287.5 l 2
 193.876953125 287.5 125 218.623046875 125 133.33203125 c 1
 100 133.33203125 l 1
 100 466.66796875 l 1
 125 466.66796875 l 1
 125 381.376953125 193.876953125 312.5 279.16796875 312.5 c 2
 600 312.5 l 1
 600 633.33203125 l 2
 600 718.623046875 531.123046875 787.5 445.83203125 787.5 c 1
 445.83203125 812.5 l 1
536.669921875 787.5 m 1
 570.893554688 767.256835938 597.791015625 736.046875 612.5 698.642578125 c 1
 627.208984375 736.046875 654.106445312 767.256835938 688.330078125 787.5 c 1
 536.669921875 787.5 l 1
125 375.830078125 m 1
 125 224.169921875 l 1
 145.243164062 258.393554688 176.453125 285.291015625 213.857421875 300 c 1
 176.453125 314.708984375 145.243164062 341.606445312 125 375.830078125 c 1
EndSplineSet
EndChar

StartChar: U12047
Encoding: 278 73799 22
Width: 1212
VWidth: 100
Flags: W
HStem: 287.5 25<219.097 600 625 1112.5> 787.5 25<445.832 505.903 536.67 688.33 719.097 779.168>
VStem: 100 25<133.332 193.403 224.17 375.83 406.597 466.668> 600 25<-200 287.5 312.5 693.403>
LayerCount: 2
Fore
SplineSet
445.83203125 812.5 m 1
 779.16796875 812.5 l 1
 779.16796875 787.5 l 1
 693.876953125 787.5 625 718.623046875 625 633.33203125 c 2
 625 312.5 l 1
 1112.5 312.5 l 1
 1112.5 287.5 l 1
 625 287.5 l 1
 625 -200 l 1
 600 -200 l 1
 600 287.5 l 1
 279.16796875 287.5 l 2
 193.876953125 287.5 125 218.623046875 125 133.33203125 c 1
 100 133.33203125 l 1
 100 466.66796875 l 1
 125 466.66796875 l 1
 125 381.376953125 193.876953125 312.5 279.16796875 312.5 c 2
 600 312.5 l 1
 600 633.33203125 l 2
 600 718.623046875 531.123046875 787.5 445.83203125 787.5 c 1
 445.83203125 812.5 l 1
536.669921875 787.5 m 1
 570.893554688 767.256835938 597.791015625 736.046875 612.5 698.642578125 c 1
 627.208984375 736.046875 654.106445312 767.256835938 688.330078125 787.5 c 1
 536.669921875 787.5 l 1
125 375.830078125 m 1
 125 224.169921875 l 1
 145.243164062 258.393554688 176.453125 285.291015625 213.857421875 300 c 1
 176.453125 314.708984375 145.243164062 341.606445312 125 375.830078125 c 1
EndSplineSet
EndChar

StartChar: U1244f
Encoding: 279 74831 23
Width: 1212
VWidth: 100
Flags: W
HStem: 287.5 25<219.097 600 625 1112.5> 787.5 25<445.832 505.903 536.67 688.33 719.097 779.168>
VStem: 100 25<133.332 193.403 224.17 375.83 406.597 466.668> 600 25<-200 287.5 312.5 693.403>
LayerCount: 2
Fore
SplineSet
445.83203125 812.5 m 1
 779.16796875 812.5 l 1
 779.16796875 787.5 l 1
 693.876953125 787.5 625 718.623046875 625 633.33203125 c 2
 625 312.5 l 1
 1112.5 312.5 l 1
 1112.5 287.5 l 1
 625 287.5 l 1
 625 -200 l 1
 600 -200 l 1
 600 287.5 l 1
 279.16796875 287.5 l 2
 193.876953125 287.5 125 218.623046875 125 133.33203125 c 1
 100 133.33203125 l 1
 100 466.66796875 l 1
 125 466.66796875 l 1
 125 381.376953125 193.876953125 312.5 279.16796875 312.5 c 2
 600 312.5 l 1
 600 633.33203125 l 2
 600 718.623046875 531.123046875 787.5 445.83203125 787.5 c 1
 445.83203125 812.5 l 1
536.669921875 787.5 m 1
 570.893554688 767.256835938 597.791015625 736.046875 612.5 698.642578125 c 1
 627.208984375 736.046875 654.106445312 767.256835938 688.330078125 787.5 c 1
 536.669921875 787.5 l 1
125 375.830078125 m 1
 125 224.169921875 l 1
 145.243164062 258.393554688 176.453125 285.291015625 213.857421875 300 c 1
 176.453125 314.708984375 145.243164062 341.606445312 125 375.830078125 c 1
EndSplineSet
EndChar

StartChar: U122e1
Encoding: 280 74465 24
Width: 879
VWidth: 100
Flags: W
HStem: 287.5 25<219.097 582.324> 572.096 24.6622<214.964 318.7> 787.5 25<445.832 505.903 536.67 688.33 719.097 779.168>
VStem: 100 25<133.332 193.403 224.17 375.83 406.597 466.668> 315.742 24.6616<593.8 697.535> 600 25<-200 287.5 330.18 693.403>
LayerCount: 2
Fore
SplineSet
445.83203125 812.5 m 1
 779.16796875 812.5 l 1
 779.16796875 787.5 l 1
 693.876953125 787.5 625 718.623046875 625 633.33203125 c 2
 625 -200 l 1
 600 -200 l 1
 600 287.5 l 1
 279.16796875 287.5 l 2
 193.876953125 287.5 125 218.623046875 125 133.33203125 c 1
 100 133.33203125 l 1
 100 466.66796875 l 1
 125 466.66796875 l 1
 125 381.376953125 193.876953125 312.5 279.16796875 312.5 c 2
 582.32421875 312.5 l 1
 367.95703125 526.865234375 l 2
 337.803100583 557.019165042 298.375469387 572.096069343 258.947237304 572.096069343 c 0
 219.518047539 572.096069343 180.088256857 557.01843262 149.931640625 526.86328125 c 1
 149.931640625 526.865234375 l 1
 132.255859375 544.541015625 l 1
 132.255859375 544.54296875 l 2
 132.26171875 544.548828125 132.26953125 544.5546875 132.275390625 544.560546875 c 2
 367.95703125 780.244140625 l 1
 367.958984375 780.24609375 l 1
 385.63671875 762.568359375 l 1
 355.48156738 732.411743143 340.403930657 692.981952461 340.403930657 653.552762696 c 0
 340.403930657 614.124530613 355.480834958 574.696899417 385.634765625 544.54296875 c 2
 600 330.1796875 l 1
 600 633.33203125 l 2
 600 718.623046875 531.123046875 787.5 445.83203125 787.5 c 1
 445.83203125 812.5 l 1
536.669921875 787.5 m 1
 570.893554688 767.256835938 597.791015625 736.046875 612.5 698.642578125 c 1
 627.208984375 736.046875 654.106445312 767.256835938 688.330078125 787.5 c 1
 536.669921875 787.5 l 1
321.40625 698.337890625 m 1
 214.16015625 591.09375 l 1
 228.865428383 594.868969462 243.946109299 596.75831856 259.022908125 596.75831856 c 0
 283.433825071 596.75831856 307.834565117 591.805389394 330.615234375 581.884765625 c 1
 320.69507139 604.665159374 315.742372934 629.066043806 315.742372934 653.476994009 c 0
 315.742372934 668.553244483 317.631491453 683.633334366 321.40625 698.337890625 c 1
125 375.830078125 m 1
 125 224.169921875 l 1
 145.243164062 258.393554688 176.453125 285.291015625 213.857421875 300 c 1
 176.453125 314.708984375 145.243164062 341.606445312 125 375.830078125 c 1
EndSplineSet
EndChar

StartChar: U1222e
Encoding: 281 74286 25
Width: 1719
VWidth: 100
Flags: W
HStem: -147.823 24.6959<849.083 946.057> 287.5 25<219.097 849.455> 454.168 25<695.832 756.449 786.67 938.33 969.097 1029.17> 723.127 24.6959<849.083 946.057>
VStem: 100 25<133.332 193.403 224.17 375.83 406.597 466.668> 850 25<133.332 287.5 312.5 358.391> 914.702 24.6717<-256.16 -187.301 787.302 856.16>
LayerCount: 2
Fore
SplineSet
944.548828125 945.609375 m 1
 965.349609375 931.7421875 l 1
 947.783927943 905.392940186 939.373309622 875.660253159 939.373309622 846.267350025 c 0
 939.373309622 796.494846063 963.490234897 747.696651298 1008.109375 717.951171875 c 2
 1619.43359375 310.400390625 l 1
 1612.5 300 l 1
 1619.43359375 289.599609375 l 1
 1008.109375 -117.951171875 l 2
 963.490234897 -147.696651298 939.373309622 -196.494460044 939.373309622 -246.266920057 c 0
 939.373309622 -275.659797236 947.783927943 -305.392577603 965.349609375 -331.7421875 c 1
 944.548828125 -345.609375 l 1
 759.650390625 -68.2578125 l 1
 780.451171875 -54.390625 l 1
 810.196678401 -99.009805759 858.994548971 -123.127120347 908.76705611 -123.127120347 c 0
 938.159888987 -123.127120347 967.892618259 -114.716407537 994.2421875 -97.150390625 c 2
 1589.96679688 300 l 1
 994.2421875 697.150390625 l 2
 967.892618259 714.716407537 938.159888987 723.127120347 908.76705611 723.127120347 c 0
 858.994548971 723.127120347 810.196678401 699.009805759 780.451171875 654.390625 c 1
 759.650390625 668.2578125 l 1
 944.548828125 945.609375 l 1
914.962890625 856.16015625 m 1
 830.83984375 729.974609375 l 1
 855.251264216 741.726161384 882.013259099 747.823003989 909.015268014 747.823003989 c 0
 921.640295328 747.823003989 934.317792409 746.490165629 946.83203125 743.779296875 c 1
 925.740184483 774.076962446 914.701603505 810.033194599 914.701603505 846.458818017 c 0
 914.701603505 849.690111119 914.788469934 852.925098025 914.962890625 856.16015625 c 1
695.83203125 479.16796875 m 1
 1029.16796875 479.16796875 l 1
 1029.16796875 454.16796875 l 1
 943.876953125 454.16796875 875 385.291015625 875 300 c 2
 875 133.33203125 l 1
 850 133.33203125 l 1
 850 287.5 l 1
 279.16796875 287.5 l 2
 193.876953125 287.5 125 218.623046875 125 133.33203125 c 1
 100 133.33203125 l 1
 100 466.66796875 l 1
 125 466.66796875 l 1
 125 381.376953125 193.876953125 312.5 279.16796875 312.5 c 2
 849.455078125 312.5 l 1
 843.108398438 391.915039062 776.91015625 454.16796875 695.83203125 454.16796875 c 1
 695.83203125 479.16796875 l 1
786.669921875 454.16796875 m 1
 820.893554688 433.924804688 847.791015625 402.71484375 862.5 365.310546875 c 1
 877.208984375 402.71484375 904.106445312 433.924804688 938.330078125 454.16796875 c 1
 786.669921875 454.16796875 l 1
125 375.830078125 m 1
 125 224.169921875 l 1
 145.243164062 258.393554688 176.453125 285.291015625 213.857421875 300 c 1
 176.453125 314.708984375 145.243164062 341.606445312 125 375.830078125 c 1
830.83984375 -129.974609375 m 1
 914.962890625 -256.16015625 l 1
 914.788469934 -252.925098025 914.701603505 -249.690111119 914.701603505 -246.458818017 c 0
 914.701603505 -210.033194599 925.740184483 -174.076962446 946.83203125 -143.779296875 c 1
 934.317792409 -146.490165629 921.640295328 -147.823003989 909.015268014 -147.823003989 c 0
 882.013259099 -147.823003989 855.251264216 -141.726161384 830.83984375 -129.974609375 c 1
EndSplineSet
EndChar

StartChar: U1235a
Encoding: 282 74586 26
Width: 1603
VWidth: 100
Flags: W
HStem: 99.6589 24.6801<1075.66 1143.08> 287.5 25<219.097 850> 313.46 24.7613<918.304 952.725> 438.469 24.7522<1043.46 1077.72> 563.469 24.7526<1168.46 1202.72> 787.5 25<695.832 755.903 786.67 938.33 969.097 1029.17>
VStem: 100 25<133.332 193.403 224.17 375.83 406.597 466.668> 850 25<-200 287.5 330.176 693.403> 949.279 24.7528<334.779 369.042> 1074.28 24.7526<459.779 494.043> 1176.45 24.6609<-1.13067 102.604> 1199.28 24.7526<584.779 619.043>
LayerCount: 2
Fore
SplineSet
695.83203125 812.5 m 1xffe0
 1029.16796875 812.5 l 1
 1029.16796875 787.5 l 1
 943.876953125 787.5 875 718.623046875 875 633.33203125 c 2
 875 330.17578125 l 1
 978.662109375 433.837890625 l 1
 1103.66210938 558.837890625 l 1
 1103.66210938 558.83984375 l 1
 1228.66210938 683.83984375 l 1
 1246.33789062 666.162109375 l 1
 1231.46704102 651.290283195 1224.03124999 631.894626842 1224.03124999 612.499044757 c 0xffd0
 1224.03124999 593.1040995 1231.46655274 573.709228508 1246.33789062 558.837890625 c 2
 1432.1484375 373.02734375 l 1
 1485.81054688 426.689453125 l 1
 1503.48828125 409.01171875 l 1
 1246.33789062 151.86328125 l 1
 1228.66210938 169.541015625 l 1
 1289.47265625 230.3515625 l 1
 1103.66015625 416.162109375 l 2
 1088.78869629 431.033569334 1069.3946055 438.469116212 1050.00047759 438.469116212 c 0
 1030.60603128 438.469116212 1011.21154785 431.033325193 996.33984375 416.162109375 c 0
 981.467773438 401.290039063 974.031494117 381.893990051 974.031494117 362.498089576 c 0
 974.031494117 343.103462717 981.466796875 323.708984375 996.337890625 308.837890625 c 2
 1171.77539062 133.40234375 l 1
 1192.52148438 140.859375 1212.00683594 152.888671875 1228.65820312 169.541015625 c 1
 1246.33789062 151.86328125 l 1
 1216.18395996 121.706909171 1201.10681152 82.2775127948 1201.10681152 42.8486422452 c 0
 1201.10681152 3.42009092797 1216.18371582 -36.0079345713 1246.33789062 -66.162109375 c 1
 1228.66210938 -83.837890625 l 1
 992.95703125 151.865234375 l 1
 1010.6328125 169.54296875 l 1
 1010.63476562 169.54296875 l 1
 1040.78369165 139.3948541 1080.19641259 124.338999727 1119.61350689 124.338999727 c 0
 1127.63864689 124.338999727 1135.66396817 124.963081398 1143.61132812 126.2109375 c 1
 978.66015625 291.162109375 l 2
 963.793160337 306.029105288 944.408357541 313.460053165 925.022008013 313.460053165 c 0
 907.174727843 313.460053165 889.326136781 307.162146494 875 294.5703125 c 1
 875 -200 l 1
 850 -200 l 1
 850 287.5 l 1
 279.16796875 287.5 l 2
 193.876953125 287.5 125 218.623046875 125 133.33203125 c 1
 100 133.33203125 l 1
 100 466.66796875 l 1
 125 466.66796875 l 1
 125 381.376953125 193.876953125 312.5 279.16796875 312.5 c 2
 850 312.5 l 1
 850 633.33203125 l 2
 850 718.623046875 781.123046875 787.5 695.83203125 787.5 c 1
 695.83203125 812.5 l 1xffe0
786.669921875 787.5 m 1
 820.893554688 767.256835938 847.791015625 736.046875 862.5 698.642578125 c 1
 877.208984375 736.046875 904.106445312 767.256835938 938.330078125 787.5 c 1
 786.669921875 787.5 l 1
1199.515625 619.337890625 m 1
 1168.16210938 587.984375 l 1
 1170.50588114 588.141975459 1172.85383958 588.221347232 1175.20147413 588.221347232 c 0
 1184.63689922 588.221347232 1194.06709245 586.939229113 1203.19921875 584.30078125 c 1
 1200.56077089 593.432907553 1199.27865277 602.86310078 1199.27865277 612.29852587 c 0
 1199.27865277 614.646160419 1199.35802454 616.994118857 1199.515625 619.337890625 c 1
1175 563.46875 m 0
 1155.60546875 563.46875 1136.20898438 556.033203125 1121.33789062 541.162109375 c 0
 1106.46704102 526.290283195 1099.03124999 506.894626842 1099.03124999 487.499044757 c 0
 1099.03124999 468.1040995 1106.46655274 448.709228508 1121.33789062 433.837890625 c 2
 1307.1484375 248.02734375 l 1
 1414.47265625 355.3515625 l 1
 1228.66015625 541.162109375 l 2
 1213.7890625 556.033203125 1194.39453125 563.46875 1175 563.46875 c 0
1074.515625 494.337890625 m 1
 1043.16210938 462.984375 l 1
 1045.50588114 463.141975459 1047.85383958 463.221347232 1050.20147413 463.221347232 c 0
 1059.63689922 463.221347232 1069.06709245 461.939229113 1078.19921875 459.30078125 c 1
 1075.56077089 468.432907553 1074.27865277 477.86310078 1074.27865277 487.29852587 c 0
 1074.27865277 489.646160419 1074.35802454 491.994118857 1074.515625 494.337890625 c 1
125 375.830078125 m 1
 125 224.169921875 l 1
 145.243164062 258.393554688 176.453125 285.291015625 213.857421875 300 c 1
 176.453125 314.708984375 145.243164062 341.606445312 125 375.830078125 c 1
949.515625 369.337890625 m 1
 918.162109375 337.984375 l 1
 920.505881143 338.141975459 922.853839581 338.221347232 925.20147413 338.221347232 c 0
 934.63689922 338.221347232 944.067092447 336.939229113 953.19921875 334.30078125 c 1
 950.560770887 343.432907553 949.278652768 352.86310078 949.278652768 362.29852587 c 0
 949.278652768 364.646160419 949.358024541 366.994118857 949.515625 369.337890625 c 1
1191.31835938 114.51953125 m 1
 1191.16308594 114.452148438 1191.00488281 114.395507812 1190.84960938 114.328125 c 1
 1190.98828125 114.189453125 l 1
 1173.31054688 96.51171875 l 1
 1164.49609375 105.326171875 l 1
 1149.80310772 101.548827242 1134.72881653 99.6589309023 1119.6513211 99.6589309023 c 0
 1104.60111878 99.6589309023 1089.5477238 101.541991301 1074.8671875 105.310546875 c 1
 1182.109375 -1.931640625 l 1
 1178.33495582 12.7726732232 1176.44592541 27.8525273589 1176.44592541 42.9285930045 c 0xffe0
 1176.44592541 67.3388936535 1181.39825074 91.7392623103 1191.31835938 114.51953125 c 1
EndSplineSet
EndChar

StartChar: U12137
Encoding: 283 74039 27
Width: 1212
VWidth: 100
Flags: W
HStem: 287.5 25<219.097 600> 787.5 25<445.832 505.903 536.67 688.33 719.097 839.238 870.004 1021.66 1052.43 1112.5>
VStem: 100 25<133.332 193.403 224.17 375.83 406.597 466.668> 600 25<-200 287.5 312.5 693.403> 780.896 24.3566<226.58 389.425> 933.332 25<-200 693.403>
LayerCount: 2
Fore
SplineSet
445.83203125 812.5 m 1
 779.16796875 812.5 l 1
 1112.5 812.5 l 1
 1112.5 787.5 l 1
 1027.20898438 787.5 958.33203125 718.623046875 958.33203125 633.33203125 c 2
 958.33203125 -200 l 1
 933.33203125 -200 l 1
 933.33203125 633.33203125 l 2
 933.33203125 718.623046875 864.458984375 787.5 779.16796875 787.5 c 0
 693.876953125 787.5 625 718.623046875 625 633.33203125 c 2
 625 -200 l 1
 600 -200 l 1
 600 287.5 l 1
 279.16796875 287.5 l 2
 193.876953125 287.5 125 218.623046875 125 133.33203125 c 1
 100 133.33203125 l 1
 100 466.66796875 l 1
 125 466.66796875 l 1
 125 381.376953125 193.876953125 312.5 279.16796875 312.5 c 2
 600 312.5 l 1
 600 633.33203125 l 2
 600 718.623046875 531.123046875 787.5 445.83203125 787.5 c 1
 445.83203125 812.5 l 1
536.669921875 787.5 m 1
 570.893554688 767.256835938 597.791015625 736.046875 612.5 698.642578125 c 1
 627.208984375 736.046875 654.106445312 767.256835938 688.330078125 787.5 c 1
 536.669921875 787.5 l 1
870.00390625 787.5 m 1
 904.225585938 767.2578125 931.123046875 736.048828125 945.83203125 698.646484375 c 1
 960.541015625 736.048828125 987.440429688 767.2578125 1021.66210938 787.5 c 1
 870.00390625 787.5 l 1
895.328125 558.837890625 m 1
 913.005859375 541.162109375 l 1
 831.999293755 460.155543755 805.252879954 380.794802444 805.252879954 310.094361205 c 0
 805.252879954 274.269471416 812.120259284 240.6681906 822.275390625 210.203125 c 0
 852.471679688 119.615234375 913.005859375 58.837890625 913.005859375 58.837890625 c 1
 895.328125 41.162109375 l 1
 636.490234375 300 l 1
 895.328125 558.837890625 l 1
808.89453125 437.048828125 m 1
 671.845703125 300 l 1
 818.6875 153.158203125 l 1
 811.313476562 168.358398438 804.400390625 184.772460938 798.55859375 202.296875 c 0
 787.896518661 234.283100268 780.896288181 270.058866413 780.896288181 308.237930135 c 0
 780.896288181 348.997953781 788.874960811 392.497190753 808.89453125 437.048828125 c 1
125 375.830078125 m 1
 125 224.169921875 l 1
 145.243164062 258.393554688 176.453125 285.291015625 213.857421875 300 c 1
 176.453125 314.708984375 145.243164062 341.606445312 125 375.830078125 c 1
EndSplineSet
EndChar

StartChar: LIG_MUD
Encoding: 284 -1 28
Width: 1596
VWidth: 100
Flags: W
HStem: 218.542 24.6609<1318.52 1422.25> 287.5 25<219.097 766.668> 787.5 25<612.5 672.571 703.338 854.996 885.762 1005.9 1036.67 1188.33 1219.1 1279.17>
VStem: 100 25<133.332 193.403 224.17 375.83 406.597 466.668> 766.668 25<-200 287.5 312.5 693.403> 947.56 24.3584<226.581 389.427> 1100 25<-200 301.553 330.176 693.403> 1419.3 24.6625<240.246 343.982>
LayerCount: 2
Fore
SplineSet
612.5 812.5 m 1
 945.83203125 812.5 l 1
 1279.16796875 812.5 l 1
 1279.16796875 787.5 l 1
 1193.87695312 787.5 1125 718.623046875 1125 633.33203125 c 2
 1125 330.17578125 l 1
 1186.9921875 392.169921875 l 1
 1186.99414062 392.169921875 l 1
 1270.3125 475.48828125 l 2
 1270.31835938 475.494140625 1270.3203125 475.5 1270.33007812 475.505859375 c 2
 1353.66015625 558.837890625 l 1
 1371.33789062 541.16015625 l 1
 1362.22070312 532.04296875 1357.66210938 520.187988281 1357.66210938 508.333007812 c 0
 1357.66210938 496.478027344 1362.22070312 484.623046875 1371.33789062 475.505859375 c 1
 1371.33984375 475.505859375 l 1
 1445.83203125 401.009765625 l 1
 1471.51367188 426.69140625 l 1
 1489.19140625 409.013671875 l 1
 1459.03710938 378.859375 1443.95996094 339.430175781 1443.95996094 300.000976562 c 0
 1443.95996094 260.571777344 1459.03710938 221.142578125 1489.19140625 190.98828125 c 2
 1496.33984375 183.83984375 l 1
 1478.66210938 166.162109375 l 1
 1471.51367188 173.310546875 l 2
 1441.359375 203.46484375 1401.93017578 218.541992188 1362.50097656 218.541992188 c 0
 1323.07177734 218.541992188 1283.64257812 203.46484375 1253.48828125 173.310546875 c 1
 1235.81054688 190.986328125 l 1
 1261.49023438 216.666015625 l 1
 1186.99414062 291.16015625 l 1
 1186.99414062 291.162109375 l 1
 1177.87778642 300.278463581 1166.02481842 304.836119006 1154.17150885 304.836119006 c 0
 1143.84481225 304.836119006 1133.5178564 301.376844157 1125 294.458984375 c 1
 1125 -200 l 1
 1100 -200 l 1
 1100 633.33203125 l 2
 1100 718.623046875 1031.12304688 787.5 945.83203125 787.5 c 0
 860.541015625 787.5 791.66796875 718.623046875 791.66796875 633.33203125 c 2
 791.66796875 -200 l 1
 766.66796875 -200 l 1
 766.66796875 287.5 l 1
 279.16796875 287.5 l 2
 193.876953125 287.5 125 218.623046875 125 133.33203125 c 1
 100 133.33203125 l 1
 100 466.66796875 l 1
 125 466.66796875 l 1
 125 381.376953125 193.876953125 312.5 279.16796875 312.5 c 2
 766.66796875 312.5 l 1
 766.66796875 633.33203125 l 2
 766.66796875 718.623046875 697.791015625 787.5 612.5 787.5 c 1
 612.5 812.5 l 1
703.337890625 787.5 m 1
 737.560546875 767.2578125 764.458984375 736.047851562 779.16796875 698.64453125 c 1
 793.876953125 736.047851562 820.7734375 767.2578125 854.99609375 787.5 c 1
 703.337890625 787.5 l 1
1036.66992188 787.5 m 1
 1070.89355469 767.256835938 1097.79101562 736.046875 1112.5 698.642578125 c 1
 1127.20898438 736.046875 1154.10644531 767.256835938 1188.33007812 787.5 c 1
 1036.66992188 787.5 l 1
1061.99414062 558.837890625 m 1
 1079.671875 541.162109375 l 1
 998.66530938 460.155543755 971.918895579 380.794802444 971.918895579 310.094361205 c 0
 971.918895579 274.269471416 978.786274909 240.6681906 988.94140625 210.203125 c 0
 1019.13769531 119.615234375 1079.671875 58.837890625 1079.671875 58.837890625 c 1
 1061.99414062 41.162109375 l 1
 803.154296875 300 l 1
 1061.99414062 558.837890625 l 1
1333.078125 502.900390625 m 1
 1326.26757812 496.08984375 l 1
 1328.87792969 495.892578125 1331.48046875 495.587890625 1334.06054688 495.107421875 c 1
 1333.58007812 497.6875 1333.27441406 500.290039062 1333.078125 502.900390625 c 1
1320.83417793 471.505860003 m 0
 1308.98417822 471.505860003 1297.13378843 466.95019594 1288.01757812 457.83984375 c 0
 1288.01757812 457.8359375 1288.0078125 457.833007812 1288.0078125 457.830078125 c 1
 1288.00585938 457.830078125 l 1
 1278.88867188 448.712890625 1274.33007812 436.856933594 1274.33007812 425.000976562 c 0
 1274.33007812 413.145019531 1278.88867188 401.2890625 1288.00585938 392.171875 c 1
 1270.33007812 374.494140625 l 1
 1261.21289062 383.611328125 1249.35644531 388.169921875 1237.5 388.169921875 c 0
 1225.64355469 388.169921875 1213.78710938 383.611328125 1204.66992188 374.494140625 c 1
 1204.66992188 374.4921875 l 1
 1195.55261231 365.374877933 1190.99377441 353.519702086 1190.99377441 341.664562895 c 0
 1190.99377441 329.809741149 1195.55236817 317.954956058 1204.66992188 308.837890625 c 2
 1279.16796875 234.34375 l 1
 1344.82226562 300 l 1
 1270.33007812 374.494140625 l 1
 1288.0078125 392.169921875 l 1
 1362.5 317.677734375 l 1
 1428.15625 383.333984375 l 1
 1353.66210938 457.830078125 l 2
 1344.55859651 466.933590988 1332.71210855 471.504881348 1320.83417793 471.505860003 c 0
975.556640625 437.048828125 m 1
 838.5078125 300 l 1
 985.3515625 153.158203125 l 1
 977.977539062 168.358398438 971.06640625 184.772460938 965.224609375 202.296875 c 0
 954.561815676 234.285256097 947.56044634 270.063688907 947.56044634 308.245649821 c 0
 947.56044634 349.003446079 955.53833404 392.500003338 975.556640625 437.048828125 c 1
1249.74414062 419.568359375 m 1
 1242.93164062 412.755859375 l 1
 1245.54296875 412.559570312 1248.14550781 412.25390625 1250.7265625 411.7734375 c 1
 1250.24609375 414.354492188 1249.94042969 416.95703125 1249.74414062 419.568359375 c 1
125 375.830078125 m 1
 125 224.169921875 l 1
 145.243164062 258.393554688 176.453125 285.291015625 213.857421875 300 c 1
 176.453125 314.708984375 145.243164062 341.606445312 125 375.830078125 c 1
1424.9609375 344.783203125 m 1
 1317.71679688 237.5390625 l 1
 1332.42135313 241.313821047 1347.50144302 243.202939566 1362.57769349 243.202939566 c 0
 1386.98864369 243.202939566 1411.38952813 238.25024111 1434.16992188 228.330078125 c 1
 1424.24981324 251.110347065 1419.29748791 275.51108893 1419.29748791 299.921905281 c 0
 1419.29748791 314.99828943 1421.18651832 330.078516421 1424.9609375 344.783203125 c 1
1166.41015625 336.232421875 m 1
 1159.59960938 329.421875 l 1
 1162.20996094 329.224609375 1164.8125 328.919921875 1167.39257812 328.439453125 c 1
 1166.91210938 331.01953125 1166.60742188 333.622070312 1166.41015625 336.232421875 c 1
EndSplineSet
Ligature2: "ligsubtable" U12137 U1212d
EndChar

StartChar: U1223a
Encoding: 285 74298 29
Width: 1212
VWidth: 100
Flags: W
HStem: 216.074 25<683.941 719.262 791.475 826.793> 287.5 25<219.097 385.734 541.09 576.409 600.709 624.322 648.62 720.299 743.561 767.174 804.281 826.793> 787.5 25<255.383 309.091 339.594 456.877 487.381 541.09 826.793 880.504 911.008 1028.29 1058.79 1112.5>
VStem: 100 25<133.332 193.403 224.17 375.83 406.597 466.668> 385.734 25<-200 287.5 312.5 710.856> 600.016 25<-200 263.893> 685.67 24.3584<476.581 639.427> 742.867 25<-200 192.467> 957.148 25<-200 710.857>
LayerCount: 2
Fore
SplineSet
255.3828125 812.5 m 1
 541.08984375 812.5 l 1
 541.08984375 787.5 l 1
 468.950195312 787.5 410.734375 729.287109375 410.734375 657.1484375 c 2
 410.734375 -200 l 1
 385.734375 -200 l 1
 385.734375 287.5 l 1
 279.16796875 287.5 l 2
 193.876953125 287.5 125 218.623046875 125 133.33203125 c 1
 100 133.33203125 l 1
 100 466.66796875 l 1
 125 466.66796875 l 1
 125 381.376953125 193.876953125 312.5 279.16796875 312.5 c 2
 385.734375 312.5 l 1
 385.734375 657.1484375 l 2
 385.734375 729.288085938 327.521484375 787.5 255.3828125 787.5 c 1
 255.3828125 812.5 l 1
826.79296875 812.5 m 1
 1112.5 812.5 l 1
 1112.5 787.5 l 1
 1040.36035156 787.5 982.1484375 729.288085938 982.1484375 657.1484375 c 2
 982.1484375 -200 l 1
 957.1484375 -200 l 1
 957.1484375 657.1484375 l 2
 957.1484375 729.288085938 898.936523438 787.5 826.79296875 787.5 c 1
 826.79296875 812.5 l 1
800.103515625 808.837890625 m 1
 817.78125 791.162109375 l 1
 736.77468438 710.155543755 710.028270579 630.794802444 710.028270579 560.094361205 c 0
 710.028270579 524.269471416 716.895649909 490.6681906 727.05078125 460.203125 c 0
 753.06640625 382.15625 801.400390625 326.486328125 814.33984375 312.5 c 1
 826.79296875 312.5 l 1
 826.79296875 287.5 l 1
 798.3984375 287.5 774.8828125 267.700195312 769.19140625 241.07421875 c 1
 826.79296875 241.07421875 l 1
 826.79296875 216.07421875 l 1
 794.104492188 216.07421875 767.8671875 189.837890625 767.8671875 157.1484375 c 2
 767.8671875 -200 l 1
 742.8671875 -200 l 1
 742.8671875 157.1484375 l 2
 742.8671875 189.838867188 716.634765625 216.07421875 683.94140625 216.07421875 c 1
 683.94140625 241.07421875 l 1
 741.54296875 241.07421875 l 1
 735.852539062 267.700195312 712.33984375 287.5 683.94140625 287.5 c 0
 651.247070312 287.5 625.015625 261.263671875 625.015625 228.57421875 c 2
 625.015625 -200 l 1
 600.015625 -200 l 1
 600.015625 228.57421875 l 2
 600.015625 261.262695312 573.779296875 287.5 541.08984375 287.5 c 1
 541.08984375 312.5 l 1
 683.94140625 312.5 l 1
 778.765625 312.5 l 1
 541.263671875 550 l 1
 800.103515625 808.837890625 l 1
339.59375 787.5 m 1
 365.401367188 770.767578125 385.998046875 746.670898438 398.234375 718.1171875 c 1
 410.471679688 746.671875 431.068359375 770.766601562 456.876953125 787.5 c 1
 339.59375 787.5 l 1
911.0078125 787.5 m 1
 936.815429688 770.767578125 957.412109375 746.670898438 969.6484375 718.1171875 c 1
 981.884765625 746.670898438 1002.48144531 770.767578125 1028.2890625 787.5 c 1
 911.0078125 787.5 l 1
713.666015625 687.048828125 m 1
 576.6171875 550 l 1
 723.4609375 403.158203125 l 1
 716.086914062 418.358398438 709.17578125 434.772460938 703.333984375 452.296875 c 0
 692.671190676 484.285256097 685.66982134 520.063688907 685.66982134 558.245649821 c 0
 685.66982134 599.003446079 693.64770904 642.500003338 713.666015625 687.048828125 c 1
125 375.830078125 m 1
 125 224.169921875 l 1
 145.243164062 258.393554688 176.453125 285.291015625 213.857421875 300 c 1
 176.453125 314.708984375 145.243164062 341.606445312 125 375.830078125 c 1
600.708984375 287.5 m 1
 605.212890625 282.943359375 609.138671875 277.837890625 612.515625 272.357421875 c 1
 615.892578125 277.836914062 619.818359375 282.943359375 624.322265625 287.5 c 1
 600.708984375 287.5 l 1
743.560546875 287.5 m 1
 748.064453125 282.943359375 751.990234375 277.836914062 755.3671875 272.357421875 c 1
 758.744140625 277.837890625 762.669921875 282.943359375 767.173828125 287.5 c 1
 743.560546875 287.5 l 1
743.560546875 216.07421875 m 1
 748.064453125 211.517578125 751.990234375 206.411132812 755.3671875 200.931640625 c 1
 758.744140625 206.412109375 762.669921875 211.517578125 767.173828125 216.07421875 c 1
 743.560546875 216.07421875 l 1
EndSplineSet
EndChar

StartChar: U122e5
Encoding: 286 74469 30
Width: 1712
VWidth: 100
Flags: W
HStem: 287.5 25<219.097 683.332 1135.76 1612.5> 787.5 25<529.168 589.238 620.004 771.662 802.429 922.571 953.338 1105 1135.76 1195.83>
VStem: 100 25<133.332 193.403 224.17 375.83 406.597 466.668> 683.332 25<-200 287.5 312.5 693.403> 1016.67 25<-200 193.403 224.17 375.83 406.597 693.403>
LayerCount: 2
Fore
SplineSet
529.16796875 812.5 m 1
 862.5 812.5 l 1
 1195.83203125 812.5 l 1
 1195.83203125 787.5 l 1
 1110.54101562 787.5 1041.66796875 718.623046875 1041.66796875 633.33203125 c 2
 1041.66796875 466.66796875 l 2
 1041.66796875 381.376953125 1110.54101562 312.5 1195.83203125 312.5 c 2
 1612.5 312.5 l 1
 1612.5 287.5 l 1
 1195.83203125 287.5 l 2
 1110.54101562 287.5 1041.66796875 218.623046875 1041.66796875 133.33203125 c 2
 1041.66796875 -200 l 1
 1016.66796875 -200 l 1
 1016.66796875 133.33203125 l 1
 1016.66796875 466.66796875 l 1
 1016.66796875 633.33203125 l 2
 1016.66796875 718.623046875 947.791015625 787.5 862.5 787.5 c 0
 777.208984375 787.5 708.33203125 718.623046875 708.33203125 633.33203125 c 2
 708.33203125 -200 l 1
 683.33203125 -200 l 1
 683.33203125 287.5 l 1
 279.16796875 287.5 l 2
 193.876953125 287.5 125 218.623046875 125 133.33203125 c 1
 100 133.33203125 l 1
 100 466.66796875 l 1
 125 466.66796875 l 1
 125 381.376953125 193.876953125 312.5 279.16796875 312.5 c 2
 683.33203125 312.5 l 1
 683.33203125 633.33203125 l 2
 683.33203125 718.623046875 614.458984375 787.5 529.16796875 787.5 c 1
 529.16796875 812.5 l 1
620.00390625 787.5 m 1
 654.225585938 767.2578125 681.123046875 736.048828125 695.83203125 698.646484375 c 1
 710.541015625 736.048828125 737.440429688 767.2578125 771.662109375 787.5 c 1
 620.00390625 787.5 l 1
953.337890625 787.5 m 1
 987.560546875 767.2578125 1014.45898438 736.047851562 1029.16796875 698.64453125 c 1
 1043.87695312 736.047851562 1070.7734375 767.2578125 1104.99609375 787.5 c 1
 953.337890625 787.5 l 1
125 375.830078125 m 1
 125 224.169921875 l 1
 145.243164062 258.393554688 176.453125 285.291015625 213.857421875 300 c 1
 176.453125 314.708984375 145.243164062 341.606445312 125 375.830078125 c 1
1041.66796875 375.830078125 m 1
 1041.66796875 224.169921875 l 1
 1061.91015625 258.392578125 1093.11816406 285.291015625 1130.52148438 300 c 1
 1093.11816406 314.708984375 1061.91015625 341.607421875 1041.66796875 375.830078125 c 1
EndSplineSet
EndChar

StartChar: U12100
Encoding: 287 73984 31
Width: 1571
VWidth: 100
Flags: W
HStem: 218.542 24.6609<1268.52 1372.25> 287.5 25<219.097 666.668> 308.281 24.8126<1063.27 1081.07> 408.289 24.8047<1163.27 1181.06> 508.289 24.8047<1263.27 1281.06> 787.5 25<512.5 572.571 603.338 754.996 785.762 905.903 936.67 1088.33 1119.1 1179.17>
VStem: 100 25<133.332 193.403 224.17 375.83 406.597 466.668> 666.668 25<-200 287.5 312.5 693.403> 1000 25<-200 302.35 330.176 693.403> 1079.41 24.8047<331.436 349.229> 1179.41 24.8047<431.436 449.229> 1279.41 24.8047<531.436 549.229> 1369.3 24.6625<240.246 343.982>
LayerCount: 2
Fore
SplineSet
512.5 812.5 m 1xdff8
 845.83203125 812.5 l 1
 1179.16796875 812.5 l 1
 1179.16796875 787.5 l 1
 1093.87695312 787.5 1025 718.623046875 1025 633.33203125 c 2
 1025 330.17578125 l 1
 1103.66015625 408.837890625 l 1
 1103.66210938 408.837890625 l 1
 1203.66015625 508.837890625 l 1
 1203.66210938 508.837890625 l 1
 1303.66015625 608.837890625 l 1
 1321.33789062 591.16015625 l 1
 1309.91992188 579.7421875 1304.2109375 564.870605469 1304.2109375 549.999023438 c 0
 1304.2109375 535.127441406 1309.91992188 520.255859375 1321.33789062 508.837890625 c 2
 1412.5 417.677734375 l 1
 1421.51367188 426.69140625 l 1
 1439.19140625 409.013671875 l 1
 1409.03710938 378.859375 1393.95996094 339.430175781 1393.95996094 300.000976562 c 0
 1393.95996094 260.571777344 1409.03710938 221.142578125 1439.19140625 190.98828125 c 2
 1471.33984375 158.83984375 l 1
 1453.66210938 141.162109375 l 1
 1421.51367188 173.310546875 l 2
 1391.359375 203.46484375 1351.93017578 218.541992188 1312.50097656 218.541992188 c 0
 1273.07177734 218.541992188 1233.64257812 203.46484375 1203.48828125 173.310546875 c 1
 1185.81054688 190.986328125 l 1
 1194.82421875 200 l 1
 1103.66210938 291.162109375 l 2
 1092.24791614 302.576302607 1077.38481157 308.281110868 1062.52034572 308.281110868 c 0xbff8
 1049.18487227 308.281110868 1035.84830318 303.68956089 1025 294.509765625 c 1
 1025 -200 l 1
 1000 -200 l 1
 1000 633.33203125 l 2
 1000 718.623046875 931.123046875 787.5 845.83203125 787.5 c 0
 760.541015625 787.5 691.66796875 718.623046875 691.66796875 633.33203125 c 2
 691.66796875 -200 l 1
 666.66796875 -200 l 1
 666.66796875 287.5 l 1
 279.16796875 287.5 l 2
 193.876953125 287.5 125 218.623046875 125 133.33203125 c 1
 100 133.33203125 l 1
 100 466.66796875 l 1
 125 466.66796875 l 1
 125 381.376953125 193.876953125 312.5 279.16796875 312.5 c 2
 666.66796875 312.5 l 1
 666.66796875 633.33203125 l 2
 666.66796875 718.623046875 597.791015625 787.5 512.5 787.5 c 1
 512.5 812.5 l 1xdff8
603.337890625 787.5 m 1
 637.560546875 767.2578125 664.458984375 736.047851562 679.16796875 698.64453125 c 1
 693.876953125 736.047851562 720.7734375 767.2578125 754.99609375 787.5 c 1
 603.337890625 787.5 l 1
936.669921875 787.5 m 1
 970.893554688 767.256835938 997.791015625 736.046875 1012.5 698.642578125 c 1
 1027.20898438 736.046875 1054.10644531 767.256835938 1088.33007812 787.5 c 1
 936.669921875 787.5 l 1
1279.40625 549.228515625 m 1
 1263.27148438 533.09375 l 1
 1269.4609375 533.037109375 1275.62792969 532.240234375 1281.68164062 530.818359375 c 1
 1280.25976562 536.872070312 1279.46289062 543.0390625 1279.40625 549.228515625 c 1
1262.5 508.2890625 m 0
 1247.62792969 508.2890625 1232.75585938 502.580078125 1221.33789062 491.162109375 c 1
 1221.33789062 491.16015625 l 1
 1209.91992188 479.7421875 1204.2109375 464.870605469 1204.2109375 449.999023438 c 0
 1204.2109375 435.127441406 1209.91992188 420.255859375 1221.33789062 408.837890625 c 2
 1312.5 317.677734375 l 1
 1394.82421875 400 l 1
 1303.66210938 491.162109375 l 2
 1292.24414062 502.580078125 1277.37207031 508.2890625 1262.5 508.2890625 c 0
1179.40625 449.228515625 m 1
 1163.27148438 433.09375 l 1
 1169.4609375 433.037109375 1175.62792969 432.240234375 1181.68164062 430.818359375 c 1
 1180.25976562 436.872070312 1179.46289062 443.0390625 1179.40625 449.228515625 c 1
1162.5 408.2890625 m 0
 1147.62792969 408.2890625 1132.75585938 402.580078125 1121.33789062 391.162109375 c 1
 1121.33789062 391.16015625 l 1
 1109.91992188 379.7421875 1104.2109375 364.870605469 1104.2109375 349.999023438 c 0
 1104.2109375 335.127441406 1109.91992188 320.255859375 1121.33789062 308.837890625 c 2
 1212.5 217.677734375 l 1
 1294.82421875 300 l 1
 1203.66210938 391.162109375 l 2
 1192.24414062 402.580078125 1177.37207031 408.2890625 1162.5 408.2890625 c 0
125 375.830078125 m 1
 125 224.169921875 l 1
 145.243164062 258.393554688 176.453125 285.291015625 213.857421875 300 c 1
 176.453125 314.708984375 145.243164062 341.606445312 125 375.830078125 c 1
1079.40625 349.228515625 m 1
 1063.27148438 333.09375 l 1
 1069.4609375 333.037109375 1075.62792969 332.240234375 1081.68164062 330.818359375 c 1
 1080.25976562 336.872070312 1079.46289062 343.0390625 1079.40625 349.228515625 c 1
1374.9609375 344.783203125 m 1
 1267.71679688 237.5390625 l 1
 1282.42135313 241.313821047 1297.50144302 243.202939566 1312.57769349 243.202939566 c 0
 1336.98864369 243.202939566 1361.38952813 238.25024111 1384.16992188 228.330078125 c 1
 1374.24981324 251.110347065 1369.29748791 275.51108893 1369.29748791 299.921905281 c 0
 1369.29748791 314.99828943 1371.18651832 330.078516421 1374.9609375 344.783203125 c 1
EndSplineSet
EndChar

StartChar: U12101
Encoding: 288 73985 32
Width: 2222
VWidth: 100
Flags: W
HStem: -52.5078 25<1407.17 1620.05> 60.8516 25<1416.46 1618.44 1759.2 1811.23 1838.53 1872.66 1899.04 1933.17 1960.47 2012.5> 187.5 25<1505.9 1557.51 1585.23 1679.87 1707.17 1810.39 1838.53 1933.17 1961.31 2012.5> 287.5 25<219.097 933.332> 323.945 23.9453<1376.95 1397.4> 736.528 24.7503<1440.29 1522.36 1648.63 1730.69 1856.97 1939.03> 787.5 25<779.168 839.238 870.004 1021.66 1052.43 1172.57 1203.34 1355 1385.76 1445.83>
VStem: 100 25<133.332 193.403 224.17 375.83 406.597 466.668> 933.332 25<-200 287.5 312.5 693.403> 1266.67 25<-200 214.836 278.499 321.501 397.408 693.403> 1303.11 19.1432<184.373 200.025> 1366.67 25<-100 -68.0087 -45.4199 -34.5957 -12.0069 51.9757 74.5645 85.3887 107.977 139.969> 1526.24 24.7353<748.463 819.517> 1620.05 25<-100 -52.5078 -27.5078 67.4766 92.4766 123.554> 1734.57 24.7359<748.462 819.512> 1873.35 25<-100 -1.26897> 1942.9 24.7353<748.464 819.517>
LayerCount: 2
Fore
SplineSet
1575.52539062 889.626953125 m 1
 1591.52929688 870.419921875 l 1
 1564.77529133 848.125645339 1550.97160695 816.182139825 1550.97160695 783.98630349 c 0
 1550.97160695 758.604502553 1559.55068198 733.065876455 1577.12695312 711.974609375 c 2
 1705.43554688 558.001953125 l 1
 1686.22851562 541.998046875 l 1
 1557.921875 695.970703125 l 2
 1535.62692069 722.724320657 1503.68292874 736.528074701 1471.48662236 736.528074701 c 0
 1446.10479101 736.528074701 1420.5661489 727.949186313 1399.47460938 710.373046875 c 1
 1383.47070312 729.580078125 l 1
 1575.52539062 889.626953125 l 1
1783.85742188 889.626953125 m 1
 1783.85742188 889.625 l 1
 1799.86132812 870.421875 l 1
 1799.86132812 870.419921875 l 1
 1799.83984375 870.40234375 l 2
 1773.10151942 848.107575211 1759.30483395 816.170843047 1759.30483395 783.982296995 c 0
 1759.30483395 758.60187401 1767.88251226 733.06489324 1785.45703125 711.974609375 c 2
 1913.77148438 558.001953125 l 1
 1894.56445312 541.998046875 l 1
 1766.25195312 695.970703125 l 2
 1743.95767659 722.724708675 1712.01447642 736.528393049 1679.81873855 736.528393049 c 0
 1654.43701525 736.528393049 1628.8983382 727.949318022 1607.80664062 710.373046875 c 1
 1591.80273438 729.580078125 l 1
 1783.85742188 889.626953125 l 1
1992.19335938 889.626953125 m 1
 2008.19726562 870.419921875 l 1
 1981.44326008 848.125645339 1967.6395757 816.18244517 1967.6395757 783.986707305 c 0
 1967.6395757 758.604983996 1976.21865073 733.06630695 1993.79492188 711.974609375 c 2
 2122.10351562 558.001953125 l 1
 2112.5 550 l 1
 2116.09179688 538.02734375 l 1
 1402.48632812 323.9453125 l 1
 1395.30273438 347.890625 l 1
 2090.78320312 556.53515625 l 1
 1974.58984375 695.970703125 l 2
 1952.29513843 722.724240272 1920.34982879 736.527732422 1888.15310801 736.527732422 c 0
 1862.78017898 736.527732422 1837.25111416 727.955244146 1816.16601562 710.392578125 c 2
 1816.14257812 710.373046875 l 1
 1816.14257812 710.375 l 1
 1808.140625 719.9765625 l 1
 1800.13867188 729.578125 l 1
 1800.13867188 729.580078125 l 1
 1992.19335938 889.626953125 l 1
1739.3359375 819.982421875 m 1
 1668.33398438 760.8125 l 1
 1672.10679038 761.123451381 1675.88630446 761.27835155 1679.66256556 761.27835155 c 0
 1700.21031754 761.27835155 1720.66175592 756.692114533 1739.41210938 747.705078125 c 1
 1736.17610093 759.600930828 1734.5689556 771.805946602 1734.5689556 783.984297246 c 0
 1734.5689556 796.120951835 1736.16511473 808.231123573 1739.3359375 819.982421875 c 1
1531.00195312 819.98046875 m 1
 1460.00195312 760.8125 l 1
 1463.77491074 761.123451381 1467.55452936 761.27835155 1471.33085887 761.27835155 c 0
 1491.87898317 761.27835155 1512.32972467 756.692114533 1531.08007812 747.705078125 c 1
 1527.84369991 759.601800953 1526.23631205 771.808002543 1526.23631205 783.98749408 c 0
 1526.23631205 796.122507318 1527.8319813 808.23100523 1531.00195312 819.98046875 c 1
1947.66992188 819.98046875 m 1
 1876.66992188 760.8125 l 1
 1880.44287949 761.123451381 1884.22249811 761.27835155 1887.99882762 761.27835155 c 0
 1908.54695192 761.27835155 1928.99769342 756.692114533 1947.74804688 747.705078125 c 1
 1944.51166866 759.601800953 1942.9042808 771.808002543 1942.9042808 783.98749408 c 0
 1942.9042808 796.122507318 1944.49995005 808.23100523 1947.66992188 819.98046875 c 1
779.16796875 812.5 m 1
 1112.5 812.5 l 1
 1445.83203125 812.5 l 1
 1445.83203125 787.5 l 1
 1360.54101562 787.5 1291.66796875 718.623046875 1291.66796875 633.33203125 c 2
 1291.66796875 368.52734375 l 1
 1311.48040931 352.311938603 1336.56506268 343.089793842 1362.78127781 343.089793842 c 0
 1373.52605692 343.089793842 1384.46091465 344.638920524 1395.30078125 347.890625 c 1
 1402.484375 323.9453125 l 1
 1353.67153088 309.301858811 1322.25454921 264.769483415 1322.25454921 216.385573215 c 0
 1322.25454921 205.640355725 1323.80405411 194.705178166 1327.05664062 183.865234375 c 1
 1303.11132812 176.6796875 l 1
 1303.11132812 176.681640625 l 1
 1303.11132812 176.69140625 l 1
 1291.66796875 214.8359375 l 1
 1291.66796875 -200 l 1
 1266.66796875 -200 l 1
 1266.66796875 298.16796875 l 1
 1231.27734375 416.134765625 l 1
 1255.22070312 423.318359375 l 1
 1258.01074219 414.017578125 1261.88769531 405.348632812 1266.66796875 397.408203125 c 1
 1266.66796875 633.33203125 l 2
 1266.66796875 718.623046875 1197.79101562 787.5 1112.5 787.5 c 0
 1027.20898438 787.5 958.33203125 718.623046875 958.33203125 633.33203125 c 2
 958.33203125 -200 l 1
 933.33203125 -200 l 1
 933.33203125 287.5 l 1
 279.16796875 287.5 l 2
 193.876953125 287.5 125 218.623046875 125 133.33203125 c 1
 100 133.33203125 l 1
 100 466.66796875 l 1
 125 466.66796875 l 1
 125 381.376953125 193.876953125 312.5 279.16796875 312.5 c 2
 933.33203125 312.5 l 1
 933.33203125 633.33203125 l 2
 933.33203125 718.623046875 864.458984375 787.5 779.16796875 787.5 c 1
 779.16796875 812.5 l 1
870.00390625 787.5 m 1
 904.225585938 767.2578125 931.123046875 736.048828125 945.83203125 698.646484375 c 1
 960.541015625 736.048828125 987.440429688 767.2578125 1021.66210938 787.5 c 1
 870.00390625 787.5 l 1
1203.33789062 787.5 m 1
 1237.56054688 767.2578125 1264.45898438 736.047851562 1279.16796875 698.64453125 c 1
 1293.87695312 736.047851562 1320.7734375 767.2578125 1354.99609375 787.5 c 1
 1203.33789062 787.5 l 1
125 375.830078125 m 1
 125 224.169921875 l 1
 145.243164062 258.393554688 176.453125 285.291015625 213.857421875 300 c 1
 176.453125 314.708984375 145.243164062 341.606445312 125 375.830078125 c 1
1291.66796875 338.306640625 m 1
 1291.66796875 301.83203125 l 1
 1304.41796875 259.33203125 l 1
 1312.11328125 282.469726562 1325.87402344 303.3203125 1344.36914062 319.560546875 c 1
 1325.59667969 322.161132812 1307.671875 328.602539062 1291.66796875 338.306640625 c 1
1505.8984375 212.5 m 1
 1759.19921875 212.5 l 1
 2012.5 212.5 l 1
 2012.5 187.5 l 1
 1953.53710938 187.5 1905.24121094 143.125 1899.04101562 85.8515625 c 1
 2012.5 85.8515625 l 1
 2012.5 60.8515625 l 1
 1949.31054688 60.8515625 1898.3515625 9.8896484375 1898.3515625 -53.30078125 c 2
 1898.3515625 -100 l 1
 1873.3515625 -100 l 1
 1873.3515625 -53.30078125 l 2
 1873.3515625 9.888671875 1822.38867188 60.8515625 1759.19921875 60.8515625 c 1
 1759.19921875 85.8515625 l 1
 1872.66210938 85.8515625 l 1
 1866.46191406 143.125 1818.16210938 187.5 1759.19921875 187.5 c 0
 1696.00878906 187.5 1645.05078125 136.541015625 1645.05078125 73.3515625 c 2
 1645.05078125 -100 l 1
 1620.05078125 -100 l 1
 1620.05078125 -52.5078125 l 1
 1439.16015625 -52.5078125 l 2
 1412.78320312 -52.5078125 1391.66796875 -73.623046875 1391.66796875 -100 c 1
 1366.66796875 -100 l 1
 1366.66796875 19.984375 l 1
 1366.66796875 139.96875 l 1
 1391.66796875 139.96875 l 1
 1391.66796875 113.591796875 1412.78320312 92.4765625 1439.16015625 92.4765625 c 2
 1618.43554688 92.4765625 l 1
 1609.37011719 146.5078125 1562.56542969 187.5 1505.8984375 187.5 c 1
 1505.8984375 212.5 l 1
1585.23242188 187.5 m 1
 1605.70703125 173.22265625 1622.12402344 153.588867188 1632.55078125 130.650390625 c 1
 1642.97753906 153.588867188 1659.39160156 173.22265625 1679.86523438 187.5 c 1
 1585.23242188 187.5 l 1
1838.53320312 187.5 m 1
 1859.0078125 173.22265625 1875.42480469 153.588867188 1885.8515625 130.650390625 c 1
 1896.27832031 153.588867188 1912.69238281 173.22265625 1933.16601562 187.5 c 1
 1838.53320312 187.5 l 1
1391.66796875 85.388671875 m 1
 1391.66796875 74.564453125 l 1
 1393.875 76.4892578125 1396.15722656 78.326171875 1398.5859375 79.9765625 c 1
 1396.15722656 81.626953125 1393.875 83.4638671875 1391.66796875 85.388671875 c 1
1439.16015625 67.4765625 m 2
 1412.78320312 67.4765625 1391.66796875 46.361328125 1391.66796875 19.984375 c 0
 1391.66796875 -6.392578125 1412.78320312 -27.5078125 1439.16015625 -27.5078125 c 2
 1620.05078125 -27.5078125 l 1
 1620.05078125 67.4765625 l 1
 1439.16015625 67.4765625 l 2
1838.53125 60.8515625 m 1
 1859.00683594 46.5732421875 1875.42382812 26.9404296875 1885.8515625 4 c 1
 1896.27832031 26.939453125 1912.69335938 46.5732421875 1933.16796875 60.8515625 c 1
 1838.53125 60.8515625 l 1
1391.66796875 -34.595703125 m 1
 1391.66796875 -45.419921875 l 1
 1393.875 -43.4951171875 1396.15722656 -41.658203125 1398.5859375 -40.0078125 c 1
 1396.15722656 -38.357421875 1393.875 -36.5205078125 1391.66796875 -34.595703125 c 1
EndSplineSet
EndChar

StartChar: U12291
Encoding: 289 74385 33
Width: 1712
VWidth: 100
Flags: W
HStem: 287.5 25<219.097 766.668> 787.5 25<612.5 672.571 703.338 854.996 885.762 1005.9 1036.67 1188.33 1219.1 1339.24 1370 1521.66 1552.43 1612.5>
VStem: 100 25<133.332 193.403 224.17 375.83 406.597 466.668> 766.668 25<-200 287.5 312.5 693.403> 1100 25<-200 286.49 313.51 693.403> 1283.66 24.3935<220.167 398.357> 1433.33 25<-200 4.16406 13.8359 586.342 595.836 693.403>
LayerCount: 2
Fore
SplineSet
612.5 812.5 m 1
 945.83203125 812.5 l 1
 1279.16796875 812.5 l 1
 1612.5 812.5 l 1
 1612.5 787.5 l 1
 1527.20898438 787.5 1458.33203125 718.623046875 1458.33203125 633.33203125 c 2
 1458.33203125 -200 l 1
 1433.33203125 -200 l 1
 1433.33203125 4.1640625 l 1
 1420.328125 -8.837890625 l 1
 1125 286.490234375 l 1
 1125 -200 l 1
 1100 -200 l 1
 1100 633.33203125 l 2
 1100 718.623046875 1031.12304688 787.5 945.83203125 787.5 c 0
 860.541015625 787.5 791.66796875 718.623046875 791.66796875 633.33203125 c 2
 791.66796875 -200 l 1
 766.66796875 -200 l 1
 766.66796875 287.5 l 1
 279.16796875 287.5 l 2
 193.876953125 287.5 125 218.623046875 125 133.33203125 c 1
 100 133.33203125 l 1
 100 466.66796875 l 1
 125 466.66796875 l 1
 125 381.376953125 193.876953125 312.5 279.16796875 312.5 c 2
 766.66796875 312.5 l 1
 766.66796875 633.33203125 l 2
 766.66796875 718.623046875 697.791015625 787.5 612.5 787.5 c 1
 612.5 812.5 l 1
703.337890625 787.5 m 1
 737.560546875 767.2578125 764.458984375 736.047851562 779.16796875 698.64453125 c 1
 793.876953125 736.047851562 820.7734375 767.2578125 854.99609375 787.5 c 1
 703.337890625 787.5 l 1
1036.66992188 787.5 m 1
 1070.89355469 767.256835938 1097.79101562 736.046875 1112.5 698.642578125 c 1
 1127.20898438 736.046875 1154.10644531 767.256835938 1188.33007812 787.5 c 1
 1036.66992188 787.5 l 1
1279.16796875 787.5 m 0
 1193.87695312 787.5 1125 718.623046875 1125 633.33203125 c 2
 1125 313.509765625 l 1
 1420.328125 608.837890625 l 1
 1433.33203125 595.8359375 l 1
 1433.33203125 633.33203125 l 2
 1433.33203125 718.623046875 1364.45898438 787.5 1279.16796875 787.5 c 0
1370.00390625 787.5 m 1
 1404.22558594 767.2578125 1431.12304688 736.048828125 1445.83203125 698.646484375 c 1
 1460.54101562 736.048828125 1487.43945312 767.2578125 1521.66210938 787.5 c 1
 1370.00390625 787.5 l 1
1433.33203125 586.341796875 m 1
 1339.33159516 490.287982963 1308.05750865 395.969271135 1308.05750865 311.831653924 c 0
 1308.05750865 268.641962417 1316.29821464 228.134984199 1328.52539062 191.453125 c 0
 1359.65429688 98.0654296875 1417.12402344 31.419921875 1433.33203125 13.8359375 c 1
 1433.33203125 586.341796875 l 1
1323.02539062 476.181640625 m 1
 1146.84570312 300 l 1
 1335.91796875 110.927734375 l 1
 1324.47265625 132.841796875 1313.61914062 157.114257812 1304.80859375 183.546875 c 0
 1292.05939748 221.794918287 1283.66399328 264.529795571 1283.66399328 310.132027021 c 0
 1283.66399328 362.516502208 1294.7423314 418.684656917 1323.02539062 476.181640625 c 1
125 375.830078125 m 1
 125 224.169921875 l 1
 145.243164062 258.393554688 176.453125 285.291015625 213.857421875 300 c 1
 176.453125 314.708984375 145.243164062 341.606445312 125 375.830078125 c 1
EndSplineSet
EndChar

StartChar: U12363
Encoding: 290 74595 34
Width: 1721
VWidth: 100
Flags: W
HStem: 287.5 25<219.097 766.668> 787.5 25<612.5 672.571 703.338 854.996 885.762 1005.9 1036.67 1188.33 1219.1 1279.17>
VStem: 100 25<133.332 193.403 224.17 375.83 406.597 466.668> 766.668 25<-200 287.5 312.5 693.403> 1100 25<-200 19.8223 80.1777 519.822 580.178 693.403> 1239.23 24.3584<-23.4195 139.427 476.581 639.427> 1489.23 24.3584<-23.4195 139.427 476.581 639.427>
LayerCount: 2
Fore
SplineSet
612.5 812.5 m 1
 945.83203125 812.5 l 1
 1279.16796875 812.5 l 1
 1279.16796875 787.5 l 1
 1193.87695312 787.5 1125 718.623046875 1125 633.33203125 c 2
 1125 580.177734375 l 1
 1353.66210938 808.837890625 l 1
 1371.33789062 791.162109375 l 1
 1290.33220131 710.156420064 1263.5863502 630.796519454 1263.5863502 560.096655668 c 0
 1263.5863502 524.270906115 1270.45402686 490.668840994 1280.609375 460.203125 c 0
 1310.80566406 369.615234375 1371.33789062 308.837890625 1371.33789062 308.837890625 c 1
 1362.5 300 l 1
 1371.33789062 291.162109375 l 1
 1290.33220131 210.156420064 1263.5863502 130.796519454 1263.5863502 60.096655668 c 0
 1263.5863502 24.2709061147 1270.45402686 -9.33115900579 1280.609375 -39.796875 c 0
 1310.80566406 -130.384765625 1371.33789062 -191.162109375 1371.33789062 -191.162109375 c 1
 1353.66210938 -208.837890625 l 1
 1125 19.822265625 l 1
 1125 -200 l 1
 1100 -200 l 1
 1100 44.822265625 l 1
 1094.82226562 50 l 1
 1100 55.177734375 l 1
 1100 544.822265625 l 1
 1094.82226562 550 l 1
 1100 555.177734375 l 1
 1100 633.33203125 l 2
 1100 718.623046875 1031.12304688 787.5 945.83203125 787.5 c 0
 860.541015625 787.5 791.66796875 718.623046875 791.66796875 633.33203125 c 2
 791.66796875 -200 l 1
 766.66796875 -200 l 1
 766.66796875 287.5 l 1
 279.16796875 287.5 l 2
 193.876953125 287.5 125 218.623046875 125 133.33203125 c 1
 100 133.33203125 l 1
 100 466.66796875 l 1
 125 466.66796875 l 1
 125 381.376953125 193.876953125 312.5 279.16796875 312.5 c 2
 766.66796875 312.5 l 1
 766.66796875 633.33203125 l 2
 766.66796875 718.623046875 697.791015625 787.5 612.5 787.5 c 1
 612.5 812.5 l 1
1603.66210938 808.837890625 m 1
 1621.33789062 791.162109375 l 1
 1540.33220131 710.156420064 1513.5863502 630.796519454 1513.5863502 560.096655668 c 0
 1513.5863502 524.270906115 1520.45402686 490.668840994 1530.609375 460.203125 c 0
 1560.80566406 369.615234375 1621.33789062 308.837890625 1621.33789062 308.837890625 c 1
 1612.5 300 l 1
 1621.33789062 291.162109375 l 1
 1540.33220131 210.156420064 1513.5863502 130.796519454 1513.5863502 60.096655668 c 0
 1513.5863502 24.2709061147 1520.45402686 -9.33115900579 1530.609375 -39.796875 c 0
 1560.80566406 -130.384765625 1621.33789062 -191.162109375 1621.33789062 -191.162109375 c 1
 1603.66210938 -208.837890625 l 1
 1344.82226562 50 l 1
 1594.82421875 300 l 1
 1344.82226562 550 l 1
 1603.66210938 808.837890625 l 1
703.337890625 787.5 m 1
 737.560546875 767.2578125 764.458984375 736.047851562 779.16796875 698.64453125 c 1
 793.876953125 736.047851562 820.7734375 767.2578125 854.99609375 787.5 c 1
 703.337890625 787.5 l 1
1036.66992188 787.5 m 1
 1070.89355469 767.256835938 1097.79101562 736.046875 1112.5 698.642578125 c 1
 1127.20898438 736.046875 1154.10644531 767.256835938 1188.33007812 787.5 c 1
 1036.66992188 787.5 l 1
1267.2265625 687.05078125 m 1
 1130.17578125 550 l 1
 1277.01953125 403.15625 l 1
 1269.64550781 418.357421875 1262.73242188 434.771484375 1256.890625 452.296875 c 0
 1246.2284544 484.283386809 1239.22796557 520.059735831 1239.22796557 558.239531025 c 0
 1239.22796557 598.999628428 1247.2066558 642.499013469 1267.2265625 687.05078125 c 1
1517.2265625 687.05078125 m 1
 1380.17578125 550 l 1
 1527.01953125 403.15625 l 1
 1519.64550781 418.357421875 1512.73242188 434.771484375 1506.890625 452.296875 c 0
 1496.2284544 484.283386809 1489.22796557 520.059735831 1489.22796557 558.239531025 c 0
 1489.22796557 598.999628428 1497.2066558 642.499013469 1517.2265625 687.05078125 c 1
1125 519.822265625 m 1
 1125 80.177734375 l 1
 1344.82421875 300 l 1
 1125 519.822265625 l 1
125 375.830078125 m 1
 125 224.169921875 l 1
 145.243164062 258.393554688 176.453125 285.291015625 213.857421875 300 c 1
 176.453125 314.708984375 145.243164062 341.606445312 125 375.830078125 c 1
1267.2265625 187.05078125 m 1
 1130.17578125 50 l 1
 1277.01953125 -96.84375 l 1
 1269.64550781 -81.642578125 1262.73242188 -65.228515625 1256.890625 -47.703125 c 0
 1246.2284544 -15.7166131908 1239.22796557 20.059735831 1239.22796557 58.2395310251 c 0
 1239.22796557 98.9996284282 1247.2066558 142.499013469 1267.2265625 187.05078125 c 1
1517.2265625 187.05078125 m 1
 1380.17578125 50 l 1
 1527.01953125 -96.84375 l 1
 1519.64550781 -81.642578125 1512.73242188 -65.228515625 1506.890625 -47.703125 c 0
 1496.2284544 -15.7166131908 1489.22796557 20.059735831 1489.22796557 58.2395310251 c 0
 1489.22796557 98.9996284282 1497.2066558 142.499013469 1517.2265625 187.05078125 c 1
EndSplineSet
EndChar

StartChar: LIG_TU3R_NUN_LAGAR
Encoding: 291 -1 35
Width: 2212
VWidth: 100
Flags: W
HStem: -45.832 25<219.097 1600> 454.168 25<219.097 516.668 1302.43 1600> 787.5 25<362.5 422.571 453.338 604.996 635.762 755.903 786.67 938.33 969.097 1089.24 1120 1271.66 1302.43 1362.5 1445.83 1505.9 1536.67 1688.33 1719.1 1839.24 1870 2021.66 2052.43 2112.5>
VStem: 100 25<-200 -139.929 -109.162 42.4961 73.2617 133.332 300 360.071 390.838 542.496 573.262 633.332> 516.668 25<133.332 454.168 479.168 693.403> 850 25<133.332 693.403> 1183.33 25<133.332 360.071 390.838 542.496 573.262 693.403> 1600 25<-200 -45.832 -20.832 454.168 479.168 693.403> 1933.33 25<-200 693.403>
LayerCount: 2
Fore
SplineSet
362.5 812.5 m 1
 695.83203125 812.5 l 1
 1029.16796875 812.5 l 1
 1362.5 812.5 l 1
 1362.5 787.5 l 1
 1277.20898438 787.5 1208.33203125 718.623046875 1208.33203125 633.33203125 c 0
 1208.33203125 548.041015625 1277.20800781 479.16796875 1362.5 479.16796875 c 2
 1600 479.16796875 l 1
 1600 633.33203125 l 2
 1600 718.623046875 1531.12304688 787.5 1445.83203125 787.5 c 1
 1445.83203125 812.5 l 1
 1779.16796875 812.5 l 1
 2112.5 812.5 l 1
 2112.5 787.5 l 1
 2027.20898438 787.5 1958.33203125 718.623046875 1958.33203125 633.33203125 c 2
 1958.33203125 -200 l 1
 1933.33203125 -200 l 1
 1933.33203125 633.33203125 l 2
 1933.33203125 718.623046875 1864.45898438 787.5 1779.16796875 787.5 c 0
 1693.87695312 787.5 1625 718.623046875 1625 633.33203125 c 2
 1625 -200 l 1
 1600 -200 l 1
 1600 -45.83203125 l 1
 279.16796875 -45.83203125 l 2
 193.876953125 -45.83203125 125 -114.708984375 125 -200 c 1
 100 -200 l 1
 100 133.33203125 l 1
 125 133.33203125 l 1
 125 48.041015625 193.876953125 -20.83203125 279.16796875 -20.83203125 c 2
 1600 -20.83203125 l 1
 1600 454.16796875 l 1
 1362.5 454.16796875 l 2
 1277.20898438 454.16796875 1208.33203125 385.291015625 1208.33203125 300 c 2
 1208.33203125 133.33203125 l 1
 1183.33203125 133.33203125 l 1
 1183.33203125 300 l 1
 1183.33203125 633.33203125 l 2
 1183.33203125 718.623046875 1114.45898438 787.5 1029.16796875 787.5 c 0
 943.876953125 787.5 875 718.623046875 875 633.33203125 c 2
 875 133.33203125 l 1
 850 133.33203125 l 1
 850 633.33203125 l 2
 850 718.623046875 781.123046875 787.5 695.83203125 787.5 c 0
 610.541015625 787.5 541.66796875 718.623046875 541.66796875 633.33203125 c 2
 541.66796875 133.33203125 l 1
 516.66796875 133.33203125 l 1
 516.66796875 454.16796875 l 1
 279.16796875 454.16796875 l 2
 193.876953125 454.16796875 125 385.291015625 125 300 c 1
 100 300 l 1
 100 633.33203125 l 1
 125 633.33203125 l 1
 125 548.041015625 193.876953125 479.16796875 279.16796875 479.16796875 c 2
 516.66796875 479.16796875 l 1
 516.66796875 633.33203125 l 2
 516.66796875 718.623046875 447.791015625 787.5 362.5 787.5 c 1
 362.5 812.5 l 1
453.337890625 787.5 m 1
 487.560546875 767.2578125 514.458984375 736.047851562 529.16796875 698.64453125 c 1
 543.876953125 736.047851562 570.7734375 767.2578125 604.99609375 787.5 c 1
 453.337890625 787.5 l 1
786.669921875 787.5 m 1
 820.893554688 767.256835938 847.791015625 736.046875 862.5 698.642578125 c 1
 877.208984375 736.046875 904.106445312 767.256835938 938.330078125 787.5 c 1
 786.669921875 787.5 l 1
1120.00390625 787.5 m 1
 1154.22558594 767.2578125 1181.12304688 736.048828125 1195.83203125 698.646484375 c 1
 1210.54101562 736.048828125 1237.43945312 767.2578125 1271.66210938 787.5 c 1
 1120.00390625 787.5 l 1
1536.66992188 787.5 m 1
 1570.89355469 767.256835938 1597.79101562 736.046875 1612.5 698.642578125 c 1
 1627.20898438 736.046875 1654.10644531 767.256835938 1688.33007812 787.5 c 1
 1536.66992188 787.5 l 1
1870.00390625 787.5 m 1
 1904.22558594 767.2578125 1931.12304688 736.048828125 1945.83203125 698.646484375 c 1
 1960.54101562 736.048828125 1987.43945312 767.2578125 2021.66210938 787.5 c 1
 1870.00390625 787.5 l 1
125 542.49609375 m 1
 125 390.837890625 l 1
 145.2421875 425.060546875 176.452148438 451.958984375 213.85546875 466.66796875 c 1
 176.452148438 481.376953125 145.2421875 508.2734375 125 542.49609375 c 1
1208.33203125 542.49609375 m 1
 1208.33203125 390.837890625 l 1
 1228.57421875 425.060546875 1259.78417969 451.958984375 1297.1875 466.66796875 c 1
 1259.78417969 481.376953125 1228.57421875 508.2734375 1208.33203125 542.49609375 c 1
125 42.49609375 m 1
 125 -109.162109375 l 1
 145.2421875 -74.939453125 176.452148438 -48.041015625 213.85546875 -33.33203125 c 1
 176.452148438 -18.623046875 145.2421875 8.2734375 125 42.49609375 c 1
EndSplineSet
Ligature2: "ligsubtable" U12263 U121ec
EndChar

StartChar: U121b2
Encoding: 292 74162 36
Width: 2212
VWidth: 100
Flags: W
HStem: 287.5 25<219.097 433.676> 620.875 25<1779.25 1839.31 1870.08 1932.83 1958.92 2021.67 2052.45 2112.5> 787.5 25<279.551 339.607 370.377 521.973 552.746 672.855 703.629 855.223 885.993 1006.1 1036.87 1188.47 1219.24 1279.3 1446 1506.03 1536.83 1688.43 1719.2 1839.85 1870.08 2021.68 2051.9 2112.5>
VStem: 100 25<133.332 193.403 224.17 375.83 406.597 466.668> 433.676 25<-200 287.5 312.5 693.429> 766.926 25<-200 693.429> 1100.17 25<-200 269.822 330.178 693.429> 1193.14 24.325<240.565 370.695> 1359.8 24.325<-92.7672 37.3591 573.9 704.371> 1600.13 25<-200 692.296> 1933.38 25<-200 526.808 645.875 691.752>
LayerCount: 2
Fore
SplineSet
279.55078125 812.5 m 1
 612.80078125 812.5 l 1
 946.046875 812.5 l 1
 1279.296875 812.5 l 1
 1279.296875 787.5 l 1
 1194.02539062 787.5 1125.171875 718.642578125 1125.171875 633.375 c 2
 1125.171875 330.177734375 l 1
 1270.5 475.505859375 l 1
 1288.17773438 457.830078125 l 1
 1234.95010693 404.602450681 1217.46094687 353.012065657 1217.46094687 307.001462888 c 0
 1217.46094687 283.523972834 1222.01456321 261.499279117 1228.69726562 241.451171875 c 0
 1248.4765625 182.11328125 1288.17773438 142.169921875 1288.17773438 142.169921875 c 1
 1270.5 124.4921875 l 1
 1125.171875 269.822265625 l 1
 1125.171875 -200 l 1
 1100.171875 -200 l 1
 1100.171875 294.822265625 l 1
 1094.99414062 300 l 1
 1100.171875 305.177734375 l 1
 1100.171875 633.375 l 2
 1100.171875 718.642578125 1031.31445312 787.5 946.046875 787.5 c 0
 860.778320312 787.5 791.92578125 718.642578125 791.92578125 633.375 c 2
 791.92578125 -200 l 1
 766.92578125 -200 l 1
 766.92578125 633.375 l 2
 766.92578125 718.642578125 698.068359375 787.5 612.80078125 787.5 c 0
 527.533203125 787.5 458.67578125 718.642578125 458.67578125 633.375 c 2
 458.67578125 -200 l 1
 433.67578125 -200 l 1
 433.67578125 287.5 l 1
 279.16796875 287.5 l 2
 193.876953125 287.5 125 218.623046875 125 133.33203125 c 1
 100 133.33203125 l 1
 100 466.66796875 l 1
 125 466.66796875 l 1
 125 381.376953125 193.876953125 312.5 279.16796875 312.5 c 2
 433.67578125 312.5 l 1
 433.67578125 633.375 l 2
 433.67578125 718.642578125 364.822265625 787.5 279.55078125 787.5 c 1
 279.55078125 812.5 l 1
1446.00390625 812.5 m 1
 1779.25390625 812.5 l 1
 2112.5 812.5 l 1
 2112.5 787.5 l 1
 2031.4453125 787.5 1965.26660156 725.265625 1958.91992188 645.875 c 1
 2112.5 645.875 l 1
 2112.5 620.875 l 1
 2027.23144531 620.875 1958.375 552.021484375 1958.375 466.75390625 c 2
 1958.375 -200 l 1
 1933.375 -200 l 1
 1933.375 466.75390625 l 2
 1933.375 552.021484375 1864.52148438 620.875 1779.25390625 620.875 c 1
 1779.25390625 645.875 l 1
 1932.83007812 645.875 l 1
 1926.48339844 725.266601562 1860.30761719 787.5 1779.25390625 787.5 c 0
 1693.98632812 787.5 1625.12890625 718.642578125 1625.12890625 633.375 c 2
 1625.12890625 -200 l 1
 1600.12890625 -200 l 1
 1600.12890625 633.375 l 2
 1600.12890625 716.911132812 1534.02734375 784.65234375 1451.16601562 787.37109375 c 1
 1400.8273707 735.459687017 1384.14341065 685.199834433 1384.14341065 640.265224855 c 0
 1384.14341065 616.814752533 1388.68743223 594.814656443 1395.36328125 574.787109375 c 0
 1415.14257812 515.450195312 1454.84375 475.5078125 1454.84375 475.5078125 c 1
 1437.16601562 457.830078125 l 1
 1261.66210938 633.33203125 l 1
 1437.16601562 808.837890625 l 1
 1446.00390625 800 l 1
 1446.00390625 812.5 l 1
370.376953125 787.5 m 1
 404.584960938 767.263671875 431.471679688 736.065429688 446.17578125 698.677734375 c 1
 460.880859375 736.064453125 487.765625 767.263671875 521.97265625 787.5 c 1
 370.376953125 787.5 l 1
703.62890625 787.5 m 1
 737.8359375 767.263671875 764.720703125 736.064453125 779.42578125 698.677734375 c 1
 794.129882812 736.065429688 821.015625 767.263671875 855.22265625 787.5 c 1
 703.62890625 787.5 l 1
1036.87304688 787.5 m 1
 1071.08105469 767.263671875 1097.96679688 736.065429688 1112.671875 698.677734375 c 1
 1127.37597656 736.065429688 1154.26269531 767.263671875 1188.47070312 787.5 c 1
 1036.87304688 787.5 l 1
1536.83007812 787.5 m 1
 1571.03808594 767.263671875 1597.92382812 736.065429688 1612.62890625 698.677734375 c 1
 1627.33398438 736.064453125 1654.21875 767.263671875 1688.42578125 787.5 c 1
 1536.83007812 787.5 l 1
1870.078125 787.5 m 1
 1904.28515625 767.263671875 1931.17089844 736.06640625 1945.875 698.6796875 c 1
 1960.58007812 736.067382812 1987.46777344 767.263671875 2021.67578125 787.5 c 1
 1870.078125 787.5 l 1
1371.5 707.81640625 m 1
 1297.01757812 633.33203125 l 1
 1376.32226562 554.02734375 l 1
 1374.68261719 558.213867188 1373.11035156 562.48828125 1371.64648438 566.880859375 c 0
 1364.46786959 588.416703742 1359.80275229 612.577354812 1359.80275229 638.366320875 c 0
 1359.80275229 660.524915677 1363.24687914 683.885650324 1371.5 707.81640625 c 1
1870.08007812 620.875 m 1
 1904.28613281 600.639648438 1931.17089844 569.444335938 1945.875 532.05859375 c 1
 1960.58007812 569.444335938 1987.46777344 600.639648438 2021.67382812 620.875 c 1
 1870.08007812 620.875 l 1
125 375.830078125 m 1
 125 224.169921875 l 1
 145.243164062 258.393554688 176.453125 285.291015625 213.857421875 300 c 1
 176.453125 314.708984375 145.243164062 341.606445312 125 375.830078125 c 1
1204.83398438 374.486328125 m 1
 1130.34960938 300 l 1
 1209.66015625 220.689453125 l 1
 1208.02050781 224.876953125 1206.4453125 229.153320312 1204.98046875 233.546875 c 0
 1197.80168599 255.083748557 1193.1359533 279.245551657 1193.1359533 305.035874596 c 0
 1193.1359533 327.194513286 1196.58018568 350.55532131 1204.83398438 374.486328125 c 1
1437.16601562 142.169921875 m 1
 1454.84375 124.494140625 l 1
 1401.61675994 71.2671505631 1384.12740536 19.6774432693 1384.12740536 -26.3328626874 c 0
 1384.12740536 -49.8093450745 1388.68074021 -71.8332362606 1395.36328125 -91.880859375 c 0
 1415.14257812 -151.21875 1454.84375 -191.16015625 1454.84375 -191.16015625 c 1
 1437.16601562 -208.837890625 l 1
 1261.66210938 -33.33203125 l 1
 1437.16601562 142.169921875 l 1
1371.5 41.150390625 m 1
 1297.01757812 -33.33203125 l 1
 1376.32226562 -112.638671875 l 1
 1374.68261719 -108.452148438 1373.11035156 -104.177734375 1371.64648438 -99.78515625 c 0
 1364.4677856 -78.2485346523 1359.80236061 -54.0878924812 1359.80236061 -28.2988446899 c 0
 1359.80236061 -6.14074065519 1363.24654022 17.2195092609 1371.5 41.150390625 c 1
EndSplineSet
EndChar

StartChar: U12263
Encoding: 293 74339 37
Width: 1712
VWidth: 100
Flags: W
HStem: 287.5 25<219.097 372.785> 454.168 25<1067.07 1120.83 1149.47 1257.38 1286.02 1339.79> 787.5 25<248.93 302.691 331.334 439.238 467.883 575.406 604.049 711.953 740.597 848.119 876.762 984.668 1013.31 1067.07 1339.79 1393.55 1422.19 1530.1 1558.74 1612.5>
VStem: 100 25<133.332 193.403 224.17 375.83 406.597 466.668> 372.785 25<-200 287.5 312.5 717.404> 645.5 25<-200 717.404> 918.215 25<-200 717.404> 1190.93 25<-200 384.071> 1463.64 25<-200 717.404>
LayerCount: 2
Fore
SplineSet
248.9296875 812.5 m 1
 521.64453125 812.5 l 1
 794.359375 812.5 l 1
 1067.0703125 812.5 l 1
 1067.0703125 787.5 l 1
 998.521484375 787.5 943.21484375 732.192382812 943.21484375 663.64453125 c 2
 943.21484375 -200 l 1
 918.21484375 -200 l 1
 918.21484375 663.64453125 l 2
 918.21484375 732.192382812 862.908203125 787.5 794.359375 787.5 c 0
 725.805664062 787.5 670.5 732.192382812 670.5 663.64453125 c 2
 670.5 -200 l 1
 645.5 -200 l 1
 645.5 663.64453125 l 2
 645.5 732.193359375 590.197265625 787.5 521.64453125 787.5 c 0
 453.092773438 787.5 397.78515625 732.192382812 397.78515625 663.64453125 c 2
 397.78515625 -200 l 1
 372.78515625 -200 l 1
 372.78515625 287.5 l 1
 279.16796875 287.5 l 2
 193.876953125 287.5 125 218.623046875 125 133.33203125 c 1
 100 133.33203125 l 1
 100 466.66796875 l 1
 125 466.66796875 l 1
 125 381.376953125 193.876953125 312.5 279.16796875 312.5 c 2
 372.78515625 312.5 l 1
 372.78515625 663.64453125 l 2
 372.78515625 732.193359375 317.482421875 787.5 248.9296875 787.5 c 1
 248.9296875 812.5 l 1
1339.78515625 812.5 m 1
 1612.5 812.5 l 1
 1612.5 787.5 l 1
 1543.94824219 787.5 1488.64453125 732.193359375 1488.64453125 663.64453125 c 2
 1488.64453125 -200 l 1
 1463.64453125 -200 l 1
 1463.64453125 663.64453125 l 2
 1463.64453125 732.192382812 1408.33789062 787.5 1339.78515625 787.5 c 1
 1339.78515625 812.5 l 1
331.333984375 787.5 m 1
 354.946289062 771.735351562 373.77734375 749.40234375 385.28515625 723.142578125 c 1
 396.79296875 749.40234375 415.625976562 771.735351562 439.23828125 787.5 c 1
 331.333984375 787.5 l 1
604.048828125 787.5 m 1
 627.661132812 771.735351562 646.4921875 749.40234375 658 723.142578125 c 1
 669.5078125 749.40234375 688.33984375 771.735351562 711.953125 787.5 c 1
 604.048828125 787.5 l 1
876.76171875 787.5 m 1
 900.374023438 771.735351562 919.20703125 749.40234375 930.71484375 723.142578125 c 1
 942.22265625 749.40234375 961.055664062 771.735351562 984.66796875 787.5 c 1
 876.76171875 787.5 l 1
1422.19140625 787.5 m 1
 1445.8046875 771.735351562 1464.63671875 749.40234375 1476.14453125 723.142578125 c 1
 1487.65234375 749.40234375 1506.48339844 771.735351562 1530.09570312 787.5 c 1
 1422.19140625 787.5 l 1
1067.0703125 479.16796875 m 1
 1339.78515625 479.16796875 l 1
 1339.78515625 454.16796875 l 1
 1271.23242188 454.16796875 1215.9296875 398.861328125 1215.9296875 330.30859375 c 2
 1215.9296875 -200 l 1
 1190.9296875 -200 l 1
 1190.9296875 330.30859375 l 2
 1190.9296875 398.861328125 1135.62304688 454.16796875 1067.0703125 454.16796875 c 1
 1067.0703125 479.16796875 l 1
1149.47265625 454.16796875 m 1
 1173.08691406 438.403320312 1191.92089844 416.0703125 1203.4296875 389.80859375 c 1
 1214.93847656 416.0703125 1233.77148438 438.403320312 1257.38476562 454.16796875 c 1
 1149.47265625 454.16796875 l 1
125 375.830078125 m 1
 125 224.169921875 l 1
 145.243164062 258.393554688 176.453125 285.291015625 213.857421875 300 c 1
 176.453125 314.708984375 145.243164062 341.606445312 125 375.830078125 c 1
EndSplineSet
EndChar

StartChar: U122fe
Encoding: 294 74494 38
Width: 1221
VWidth: 100
Flags: W
HStem: 287.5 25<219.097 940.654> 787.5 25<445.832 505.903 536.67 688.33 719.097 779.168>
VStem: 100 25<133.332 193.403 224.17 375.83 406.597 466.668> 600 25<466.668 693.403> 609.63 24.3245<-92.7672 37.3608> 1026.3 24.3251<240.565 370.693>
LayerCount: 2
Fore
SplineSet
445.83203125 812.5 m 1xf4
 779.16796875 812.5 l 1
 779.16796875 787.5 l 1
 693.876953125 787.5 625 718.623046875 625 633.33203125 c 2
 625 466.66796875 l 1
 600 466.66796875 l 1
 600 633.33203125 l 2
 600 718.623046875 531.123046875 787.5 445.83203125 787.5 c 1
 445.83203125 812.5 l 1xf4
536.669921875 787.5 m 1
 570.893554688 767.256835938 597.791015625 736.046875 612.5 698.642578125 c 1
 627.208984375 736.046875 654.106445312 767.256835938 688.330078125 787.5 c 1
 536.669921875 787.5 l 1
1103.66210938 475.505859375 m 1
 1121.33984375 457.830078125 l 1
 1068.1113358 404.601570177 1050.6216213 353.010358817 1050.6216213 306.999179537 c 0
 1050.6216213 283.522544796 1055.17493611 261.498629176 1061.85742188 241.451171875 c 0
 1081.63671875 182.11328125 1121.33984375 142.169921875 1121.33984375 142.169921875 c 1
 1103.66210938 124.4921875 l 1
 940.654296875 287.5 l 1
 279.16796875 287.5 l 2
 193.876953125 287.5 125 218.623046875 125 133.33203125 c 1
 100 133.33203125 l 1
 100 466.66796875 l 1
 125 466.66796875 l 1
 125 381.376953125 193.876953125 312.5 279.16796875 312.5 c 2
 940.654296875 312.5 l 1
 1103.66210938 475.505859375 l 1
125 375.830078125 m 1
 125 224.169921875 l 1
 145.243164062 258.393554688 176.453125 285.291015625 213.857421875 300 c 1
 176.453125 314.708984375 145.243164062 341.606445312 125 375.830078125 c 1
1037.99414062 374.484375 m 1
 963.509765625 300 l 1
 1042.8203125 220.689453125 l 1
 1041.18066406 224.876953125 1039.60546875 229.153320312 1038.140625 233.546875 c 0
 1030.96192622 255.083496598 1026.29650124 279.244703803 1026.29650124 305.03427384 c 0
 1026.29650124 327.192826592 1029.74068084 350.553493636 1037.99414062 374.484375 c 1
686.9921875 142.169921875 m 1
 704.669921875 124.494140625 l 1
 651.44381231 71.2680310601 633.955012162 19.6791500948 633.955012162 -26.3305793337 c 0xec
 633.955012162 -49.8079170267 638.508648561 -71.8325863092 645.19140625 -91.880859375 c 0
 664.970703125 -151.21875 704.669921875 -191.16015625 704.669921875 -191.16015625 c 1
 686.9921875 -208.837890625 l 1
 511.490234375 -33.33203125 l 1
 686.9921875 142.169921875 l 1
621.328125 41.15234375 m 1
 546.845703125 -33.33203125 l 1
 626.15234375 -112.640625 l 1
 624.512695312 -108.453125 622.939453125 -104.178710938 621.474609375 -99.78515625 c 0
 614.295910595 -78.2485346523 609.630485611 -54.0873274466 609.630485611 -28.2977574097 c 0
 609.630485611 -6.13920465844 613.074665218 17.2214623859 621.328125 41.15234375 c 1
EndSplineSet
EndChar

StartChar: U12227
Encoding: 295 74279 39
Width: 1471
VWidth: 100
Flags: W
HStem: 218.542 24.6612<1068.52 1172.25> 287.5 25<219.097 433.375 482.13 607.324> 322.097 24.7039<675.712 739.191> 488.765 24.7033<842.379 905.855> 655.428 24.7049<1009.04 1072.52> 787.5 25<279.25 339.304 370.076 521.674 552.446 612.5>
VStem: 100 25<133.332 193.403 224.17 375.83 406.597 466.668> 364.228 24.3794<-23.4265 138.778> 433.375 25<312.5 693.429> 732.367 24.7039<339.976 403.455> 899.032 24.7033<506.645 570.12> 1065.7 24.7039<673.308 736.787> 1169.3 24.6625<240.246 343.982>
LayerCount: 2
Fore
SplineSet
279.25 812.5 m 1
 612.5 812.5 l 1
 612.5 787.5 l 1
 527.232421875 787.5 458.375 718.642578125 458.375 633.375 c 2
 458.375 312.5 l 1
 607.32421875 312.5 l 1
 770.328125 475.505859375 l 1
 770.330078125 475.505859375 l 1
 936.9921875 642.169921875 l 1
 936.994140625 642.169921875 l 1
 1103.66015625 808.837890625 l 1
 1121.33789062 791.16015625 l 1
 1100.71484375 770.537109375 1090.40332031 743.601074219 1090.40332031 716.665039062 c 0
 1090.40332031 689.729003906 1100.71484375 662.79296875 1121.33789062 642.169921875 c 2
 1288.00585938 475.5078125 l 1
 1270.328125 457.830078125 l 1
 1103.66015625 624.4921875 l 2
 1083.03662109 645.115722656 1056.09979871 655.427734392 1029.16312581 655.427734392 c 0
 1002.22772841 655.427734392 975.292480469 645.116699219 954.669921875 624.494140625 c 1
 954.669921875 624.4921875 l 1
 934.046508791 603.868774416 923.73498535 576.934400885 923.73498535 550.000112068 c 0
 923.73498535 523.065504398 934.046752931 496.130981444 954.669921875 475.5078125 c 2
 1112.5 317.677734375 l 1
 1221.51367188 426.69140625 l 1
 1239.19140625 409.013671875 l 1
 1209.03710938 378.859375 1193.95996094 339.430175781 1193.95996094 300.000976562 c 0
 1193.95996094 260.571777344 1209.03710938 221.142578125 1239.19140625 190.98828125 c 2
 1371.33789062 58.83984375 l 1
 1353.66210938 41.162109375 l 1
 1221.51367188 173.310546875 l 2
 1191.359375 203.46484375 1151.9296875 218.541992188 1112.5 218.541992188 c 0
 1073.0703125 218.541992188 1033.640625 203.46484375 1003.48632812 173.310546875 c 1
 985.810546875 190.986328125 l 1
 1094.82226562 300 l 1
 936.9921875 457.830078125 l 2
 916.369018556 478.453247069 889.434007315 488.76501465 862.498911361 488.76501465 c 0
 835.564134265 488.76501465 808.629272459 478.453491209 788.005859375 457.830078125 c 1
 788.005859375 457.828125 l 1
 767.3828125 437.205078125 757.071289062 410.269042969 757.071289062 383.333007812 c 0
 757.071289062 356.396972656 767.3828125 329.4609375 788.005859375 308.837890625 c 1
 788.0078125 308.837890625 l 1
 954.669921875 142.169921875 l 1
 936.9921875 124.494140625 l 1
 770.328125 291.162109375 l 2
 749.705078125 311.78515625 722.769042969 322.096679688 695.833007812 322.096679688 c 0
 668.896972656 322.096679688 641.9609375 311.78515625 621.337890625 291.162109375 c 1
 612.5 300 l 1
 612.5 287.5 l 1
 492.787109375 287.5 l 1
 414.574607784 207.731518552 388.607415329 129.662061154 388.607415329 60.004300225 c 0
 388.607415329 24.2129588861 395.462959368 -9.35762810334 405.609375 -39.796875 c 0
 435.805664062 -130.384765625 496.337890625 -191.162109375 496.337890625 -191.162109375 c 1
 478.662109375 -208.837890625 l 1
 219.822265625 50 l 1
 457.32421875 287.5 l 1
 279.16796875 287.5 l 2
 193.876953125 287.5 125 218.623046875 125 133.33203125 c 1
 100 133.33203125 l 1
 100 466.66796875 l 1
 125 466.66796875 l 1
 125 381.376953125 193.876953125 312.5 279.16796875 312.5 c 2
 433.375 312.5 l 1
 433.375 633.375 l 2
 433.375 718.642578125 364.517578125 787.5 279.25 787.5 c 1
 279.25 812.5 l 1
370.076171875 787.5 m 1
 404.284179688 767.263671875 431.169921875 736.065429688 445.875 698.677734375 c 1
 460.580078125 736.064453125 487.466796875 767.263671875 521.673828125 787.5 c 1
 370.076171875 787.5 l 1
1067.30078125 737.123046875 m 1
 1008.70898438 678.53125 l 1
 1015.48294902 679.598907346 1022.32006729 680.132585916 1029.15513445 680.132585916 c 0
 1044.13914376 680.132585916 1059.11329575 677.567805086 1073.390625 672.44140625 c 1
 1068.26422616 686.71806486 1065.69944533 701.692467317 1065.69944533 716.676699359 c 0
 1065.69944533 723.511868127 1066.2331239 730.349082231 1067.30078125 737.123046875 c 1
900.6328125 570.455078125 m 1
 842.044921875 511.8671875 l 1
 848.817935813 512.934743215 855.654091355 513.468325994 862.488172375 513.468325994 c 0
 877.472096693 513.468325994 892.446048394 510.903294511 906.72265625 505.77734375 c 1
 901.596705489 520.053951606 899.031674006 535.028363904 899.031674006 550.012260445 c 0
 899.031674006 556.846328796 899.565256785 563.682370077 900.6328125 570.455078125 c 1
733.96875 403.791015625 m 1
 675.376953125 345.19921875 l 1
 682.150917769 346.266876096 688.988131873 346.800554666 695.823300641 346.800554666 c 0
 710.807532683 346.800554666 725.78193514 344.235773836 740.05859375 339.109375 c 1
 734.932194914 353.38603361 732.367414084 368.360436067 732.367414084 383.344668109 c 0
 732.367414084 390.179836877 732.901092654 397.017050981 733.96875 403.791015625 c 1
125 375.830078125 m 1
 125 224.169921875 l 1
 145.243164062 258.393554688 176.453125 285.291015625 213.857421875 300 c 1
 176.453125 314.708984375 145.243164062 341.606445312 125 375.830078125 c 1
1174.9609375 344.783203125 m 1
 1067.71484375 237.5390625 l 1
 1082.41987348 241.31394259 1097.50060338 243.203203584 1112.57756942 243.203203584 c 0
 1136.98840678 243.203203584 1161.38937744 238.250647535 1184.16992188 228.330078125 c 1
 1174.24981324 251.110347065 1169.29748791 275.51108893 1169.29748791 299.921905281 c 0
 1169.29748791 314.99828943 1171.18651832 330.078516421 1174.9609375 344.783203125 c 1
392.2265625 187.05078125 m 1
 255.17578125 50 l 1
 402.01953125 -96.84375 l 1
 394.645507812 -81.642578125 387.732421875 -65.228515625 381.890625 -47.703125 c 0
 371.228454397 -15.7166131908 364.227965571 20.059735831 364.227965571 58.2395310251 c 0
 364.227965571 98.9996284282 372.206655804 142.499013469 392.2265625 187.05078125 c 1
EndSplineSet
EndChar

StartChar: U12246
Encoding: 296 74310 40
Width: 1221
VWidth: 100
Flags: W
HStem: 287.5 25<219.097 540.656 565.464 600 625 773.99> 787.5 25<445.832 505.903 536.67 688.33 719.097 779.168>
VStem: 100 25<133.332 193.403 224.17 375.83 406.597 466.668> 447.56 24.3795<-23.426 138.778> 600 25<312.5 693.403> 859.63 24.3245<-92.7672 37.3608 240.565 370.695 573.9 704.027> 1026.3 24.3251<-92.7663 37.3586 240.565 370.693 573.9 704.025>
LayerCount: 2
Fore
SplineSet
445.83203125 812.5 m 1
 779.16796875 812.5 l 1
 779.16796875 787.5 l 1
 693.876953125 787.5 625 718.623046875 625 633.33203125 c 2
 625 312.5 l 1
 773.990234375 312.5 l 1
 928.154296875 466.66796875 l 1
 761.490234375 633.33203125 l 1
 936.9921875 808.837890625 l 1
 954.669921875 791.162109375 l 1
 901.44381231 737.93470658 883.955012162 686.345816822 883.955012162 640.336512568 c 0
 883.955012162 616.859391828 888.508648561 594.835052493 895.19140625 574.787109375 c 0
 914.970703125 515.450195312 954.669921875 475.505859375 954.669921875 475.505859375 c 1
 945.83203125 466.66796875 l 1
 954.669921875 457.830078125 l 1
 901.44381231 404.60267533 883.955012162 353.012501135 883.955012162 307.002045456 c 0
 883.955012162 283.52433718 888.508648561 261.499444941 895.19140625 241.451171875 c 0
 914.970703125 182.11328125 954.669921875 142.169921875 954.669921875 142.169921875 c 1
 945.83203125 133.33203125 l 1
 954.669921875 124.494140625 l 1
 901.44381231 71.2680310601 883.955012162 19.6791500948 883.955012162 -26.3305793337 c 0
 883.955012162 -49.8079170267 888.508648561 -71.8325863092 895.19140625 -91.880859375 c 0
 914.970703125 -151.21875 954.669921875 -191.16015625 954.669921875 -191.16015625 c 1
 936.9921875 -208.837890625 l 1
 761.490234375 -33.33203125 l 1
 928.154296875 133.33203125 l 1
 773.990234375 287.5 l 1
 576.12109375 287.5 l 1
 497.90772086 207.730629919 471.939968852 129.660321742 471.939968852 60.0019722333 c 0
 471.939968852 24.2115031881 478.795210604 -9.35828806194 488.94140625 -39.796875 c 0
 519.137695312 -130.384765625 579.671875 -191.162109375 579.671875 -191.162109375 c 1
 561.994140625 -208.837890625 l 1
 303.154296875 50 l 1
 540.65625 287.5 l 1
 279.16796875 287.5 l 2
 193.876953125 287.5 125 218.623046875 125 133.33203125 c 1
 100 133.33203125 l 1
 100 466.66796875 l 1
 125 466.66796875 l 1
 125 381.376953125 193.876953125 312.5 279.16796875 312.5 c 2
 600 312.5 l 1
 600 633.33203125 l 2
 600 718.623046875 531.123046875 787.5 445.83203125 787.5 c 1
 445.83203125 812.5 l 1
1103.66210938 808.837890625 m 1
 1121.33984375 791.162109375 l 1
 1068.1113358 737.933601427 1050.6216213 686.343674557 1050.6216213 640.333646721 c 0
 1050.6216213 616.857599489 1055.17493611 594.834236742 1061.85742188 574.787109375 c 0
 1081.63671875 515.450195312 1121.33984375 475.5078125 1121.33984375 475.5078125 c 1
 1112.5 466.66796875 l 1
 1121.33984375 457.830078125 l 1
 1068.1113358 404.601570177 1050.6216213 353.010358817 1050.6216213 306.999179537 c 0
 1050.6216213 283.522544796 1055.17493611 261.498629176 1061.85742188 241.451171875 c 0
 1081.63671875 182.11328125 1121.33984375 142.169921875 1121.33984375 142.169921875 c 1
 1112.50195312 133.33203125 l 1
 1121.33984375 124.4921875 l 1
 1068.1113358 71.2649728088 1050.6216213 19.6767673584 1050.6216213 -26.3325284302 c 0
 1050.6216213 -49.8082021437 1055.17493611 -71.831448949 1061.85742188 -91.87890625 c 0
 1081.63671875 -151.216796875 1121.33984375 -191.16015625 1121.33984375 -191.16015625 c 1
 1103.66210938 -208.837890625 l 1
 928.154296875 -33.33203125 l 1
 1094.82226562 133.33203125 l 1
 928.154296875 300 l 1
 1094.82226562 466.666015625 l 1
 928.154296875 633.33203125 l 1
 1103.66210938 808.837890625 l 1
536.669921875 787.5 m 1
 570.893554688 767.256835938 597.791015625 736.046875 612.5 698.642578125 c 1
 627.208984375 736.046875 654.106445312 767.256835938 688.330078125 787.5 c 1
 536.669921875 787.5 l 1
871.328125 707.818359375 m 1
 796.845703125 633.33203125 l 1
 876.15234375 554.025390625 l 1
 874.512695312 558.212890625 872.939453125 562.487304688 871.474609375 566.880859375 c 0
 864.295910595 588.417480973 859.630485611 612.578405661 859.630485611 638.367866531 c 0
 859.630485611 660.526325485 863.074665218 683.887026706 871.328125 707.818359375 c 1
1037.99414062 707.81640625 m 1
 963.509765625 633.33203125 l 1
 1042.8203125 554.025390625 l 1
 1041.18066406 558.212890625 1039.60546875 562.487304688 1038.140625 566.880859375 c 0
 1030.96192622 588.416955715 1026.29650124 612.577637663 1026.29650124 638.366834398 c 0
 1026.29650124 660.525066406 1029.74068084 683.885524886 1037.99414062 707.81640625 c 1
125 375.830078125 m 1
 125 224.169921875 l 1
 145.243164062 258.393554688 176.453125 285.291015625 213.857421875 300 c 1
 176.453125 314.708984375 145.243164062 341.606445312 125 375.830078125 c 1
871.328125 374.486328125 m 1
 796.845703125 300 l 1
 876.150390625 220.69140625 l 1
 874.510742188 224.877929688 872.938476562 229.154296875 871.474609375 233.546875 c 0
 864.295910595 255.083496598 859.630485611 279.244986321 859.630485611 305.034969436 c 0
 859.630485611 327.193877107 863.074665218 350.554995456 871.328125 374.486328125 c 1
1037.99414062 374.484375 m 1
 963.509765625 300 l 1
 1042.8203125 220.689453125 l 1
 1041.18066406 224.876953125 1039.60546875 229.153320312 1038.140625 233.546875 c 0
 1030.96192622 255.083496598 1026.29650124 279.244703803 1026.29650124 305.03427384 c 0
 1026.29650124 327.192826592 1029.74068084 350.553493636 1037.99414062 374.484375 c 1
475.556640625 187.048828125 m 1
 338.5078125 50 l 1
 485.3515625 -96.841796875 l 1
 477.977539062 -81.6416015625 471.06640625 -65.2275390625 465.224609375 -47.703125 c 0
 454.561815676 -15.714743903 447.56044634 20.0636889071 447.56044634 58.2456498206 c 0
 447.56044634 99.0034460788 455.53833404 142.500003338 475.556640625 187.048828125 c 1
871.328125 41.15234375 m 1
 796.845703125 -33.33203125 l 1
 876.15234375 -112.640625 l 1
 874.512695312 -108.453125 872.939453125 -104.178710938 871.474609375 -99.78515625 c 0
 864.295910595 -78.2485346523 859.630485611 -54.0873274466 859.630485611 -28.2977574097 c 0
 859.630485611 -6.13920465844 863.074665218 17.2214623859 871.328125 41.15234375 c 1
1037.99414062 41.150390625 m 1
 963.509765625 -33.33203125 l 1
 1042.81835938 -112.640625 l 1
 1041.17871094 -108.454101562 1039.60449219 -104.177734375 1038.140625 -99.78515625 c 0
 1030.96192622 -78.2485346523 1026.29650124 -54.0878924812 1026.29650124 -28.2988446899 c 0
 1026.29650124 -6.14074065519 1029.74068084 17.2195092609 1037.99414062 41.150390625 c 1
EndSplineSet
EndChar

StartChar: U12097
Encoding: 297 73879 41
Width: 1212
VWidth: 100
Flags: W
HStem: 287.5 25<219.097 445.832> 787.5 25<445.832 505.903 536.67 688.33 719.097 839.238 870.004 1021.66 1052.43 1112.5>
VStem: 100 25<133.332 193.403 224.17 375.83 406.597 466.668> 600 25<300 693.403> 614.228 24.3584<-23.4195 139.427> 933.332 25<300 693.403> 947.56 24.3584<-23.4189 139.427>
LayerCount: 2
Fore
SplineSet
445.83203125 812.5 m 1xf4
 779.16796875 812.5 l 1
 1112.5 812.5 l 1
 1112.5 787.5 l 1
 1027.20898438 787.5 958.33203125 718.623046875 958.33203125 633.33203125 c 2
 958.33203125 300 l 1
 933.33203125 300 l 1
 933.33203125 633.33203125 l 2
 933.33203125 718.623046875 864.458984375 787.5 779.16796875 787.5 c 0
 693.876953125 787.5 625 718.623046875 625 633.33203125 c 2
 625 300 l 1
 600 300 l 1
 600 633.33203125 l 2
 600 718.623046875 531.123046875 787.5 445.83203125 787.5 c 1
 445.83203125 812.5 l 1xf4
536.669921875 787.5 m 1
 570.893554688 767.256835938 597.791015625 736.046875 612.5 698.642578125 c 1
 627.208984375 736.046875 654.106445312 767.256835938 688.330078125 787.5 c 1
 536.669921875 787.5 l 1
870.00390625 787.5 m 1
 904.225585938 767.2578125 931.123046875 736.048828125 945.83203125 698.646484375 c 1
 960.541015625 736.048828125 987.440429688 767.2578125 1021.66210938 787.5 c 1
 870.00390625 787.5 l 1
100 466.66796875 m 1
 125 466.66796875 l 1
 125 381.376953125 193.876953125 312.5 279.16796875 312.5 c 2
 445.83203125 312.5 l 1
 445.83203125 287.5 l 1
 279.16796875 287.5 l 2
 193.876953125 287.5 125 218.623046875 125 133.33203125 c 1
 100 133.33203125 l 1
 100 466.66796875 l 1
125 375.830078125 m 1
 125 224.169921875 l 1
 145.243164062 258.393554688 176.453125 285.291015625 213.857421875 300 c 1
 176.453125 314.708984375 145.243164062 341.606445312 125 375.830078125 c 1
728.662109375 308.837890625 m 1
 746.337890625 291.162109375 l 1
 665.332201314 210.156420064 638.5863502 130.796519454 638.5863502 60.096655668 c 0xe8
 638.5863502 24.2709061147 645.454026859 -9.33115900579 655.609375 -39.796875 c 0
 685.805664062 -130.384765625 746.337890625 -191.162109375 746.337890625 -191.162109375 c 1
 728.662109375 -208.837890625 l 1
 469.822265625 50 l 1
 728.662109375 308.837890625 l 1
1061.99414062 308.837890625 m 1
 1079.671875 291.162109375 l 1
 998.66530938 210.155543755 971.918895579 130.794802444 971.918895579 60.0943612052 c 0xe2
 971.918895579 24.2694714164 978.786274909 -9.33180939967 988.94140625 -39.796875 c 0
 1019.13769531 -130.384765625 1079.671875 -191.162109375 1079.671875 -191.162109375 c 1
 1061.99414062 -208.837890625 l 1
 803.154296875 50 l 1
 1061.99414062 308.837890625 l 1
642.2265625 187.05078125 m 1
 505.17578125 50 l 1
 652.01953125 -96.84375 l 1
 644.645507812 -81.642578125 637.732421875 -65.228515625 631.890625 -47.703125 c 0
 621.228454397 -15.7166131908 614.227965571 20.059735831 614.227965571 58.2395310251 c 0xe8
 614.227965571 98.9996284282 622.206655804 142.499013469 642.2265625 187.05078125 c 1
975.556640625 187.048828125 m 1
 838.5078125 50 l 1
 985.3515625 -96.841796875 l 1
 977.977539062 -81.6416015625 971.06640625 -65.2275390625 965.224609375 -47.703125 c 0
 954.561815676 -15.714743903 947.56044634 20.0636889071 947.56044634 58.2456498206 c 0xe2
 947.56044634 99.0034460788 955.53833404 142.500003338 975.556640625 187.048828125 c 1
EndSplineSet
EndChar

StartChar: U12239
Encoding: 298 74297 42
Width: 1712
VWidth: 100
Flags: W
HStem: 287.5 25<219.097 820.254 845.254 874.963 905.73 1057.39 1088.16 1117.86 1142.86 1148.23> 787.5 25<683.953 740.109 769.818 895.691 925.402 1037.72 1067.43 1193.3 1223.01 1339.24 1370 1521.66 1552.43 1612.5>
VStem: 100 25<133.332 193.403 224.17 375.83 406.597 466.668> 820.254 25<312.5 707.354> 969.059 25<-200 193.403> 1117.86 25<312.5 707.354> 1433.33 25<-200 693.403>
LayerCount: 2
Fore
SplineSet
683.953125 812.5 m 1
 981.55859375 812.5 l 1
 1279.16796875 812.5 l 1
 1612.5 812.5 l 1
 1612.5 787.5 l 1
 1527.20898438 787.5 1458.33203125 718.623046875 1458.33203125 633.33203125 c 2
 1458.33203125 -200 l 1
 1433.33203125 -200 l 1
 1433.33203125 633.33203125 l 2
 1433.33203125 718.623046875 1364.45898438 787.5 1279.16796875 787.5 c 0
 1203.73925781 787.5 1142.86328125 726.624023438 1142.86328125 651.1953125 c 2
 1142.86328125 312.5 l 1
 1148.2265625 312.5 l 1
 1148.2265625 287.5 l 1
 1062.93554688 287.5 994.05859375 218.623046875 994.05859375 133.33203125 c 2
 994.05859375 -200 l 1
 969.05859375 -200 l 1
 969.05859375 133.33203125 l 2
 969.05859375 218.623046875 900.185546875 287.5 814.890625 287.5 c 2
 279.16796875 287.5 l 2
 193.876953125 287.5 125 218.623046875 125 133.33203125 c 1
 100 133.33203125 l 1
 100 466.66796875 l 1
 125 466.66796875 l 1
 125 381.376953125 193.876953125 312.5 279.16796875 312.5 c 2
 820.25390625 312.5 l 1
 820.25390625 651.1953125 l 2
 820.25390625 726.624023438 759.376953125 787.5 683.953125 787.5 c 1
 683.953125 812.5 l 1
769.818359375 787.5 m 1
 797.681640625 769.881835938 819.87109375 744.091796875 832.75390625 713.3828125 c 1
 845.637695312 744.091796875 867.828125 769.881835938 895.69140625 787.5 c 1
 769.818359375 787.5 l 1
981.55859375 787.5 m 0
 906.134765625 787.5 845.25390625 726.623046875 845.25390625 651.1953125 c 2
 845.25390625 312.5 l 1
 1117.86328125 312.5 l 1
 1117.86328125 651.1953125 l 2
 1117.86328125 726.624023438 1056.98632812 787.5 981.55859375 787.5 c 0
1067.42773438 787.5 m 1
 1095.29101562 769.881835938 1117.48046875 744.091796875 1130.36328125 713.3828125 c 1
 1143.24707031 744.091796875 1165.43554688 769.881835938 1193.29882812 787.5 c 1
 1067.42773438 787.5 l 1
1370.00390625 787.5 m 1
 1404.22558594 767.2578125 1431.12304688 736.048828125 1445.83203125 698.646484375 c 1
 1460.54101562 736.048828125 1487.43945312 767.2578125 1521.66210938 787.5 c 1
 1370.00390625 787.5 l 1
125 375.830078125 m 1
 125 224.169921875 l 1
 145.243164062 258.393554688 176.453125 285.291015625 213.857421875 300 c 1
 176.453125 314.708984375 145.243164062 341.606445312 125 375.830078125 c 1
905.73046875 287.5 m 1
 939.953125 267.2578125 966.849609375 236.046875 981.55859375 198.64453125 c 1
 996.267578125 236.047851562 1023.16601562 267.2578125 1057.38867188 287.5 c 1
 905.73046875 287.5 l 1
EndSplineSet
EndChar

StartChar: U122e9
Encoding: 299 74473 43
Width: 1712
VWidth: 100
Flags: W
HStem: 287.5 25<219.097 766.668 791.668 1005.9 1036.67 1100 1125 1188.33 1219.1 1433.33 1458.33 1612.5> 787.5 25<612.5 672.571 703.338 854.996 885.762 1005.9 1036.67 1188.33 1219.1 1339.24 1370 1521.66 1552.43 1612.5>
VStem: 100 25<133.332 193.403 224.17 375.83 406.597 466.668> 766.668 25<312.5 693.403> 1100 25<-200 193.403 312.5 693.403> 1433.33 25<312.5 693.403>
LayerCount: 2
Fore
SplineSet
612.5 812.5 m 1
 945.83203125 812.5 l 1
 1279.16796875 812.5 l 1
 1612.5 812.5 l 1
 1612.5 787.5 l 1
 1527.20898438 787.5 1458.33203125 718.623046875 1458.33203125 633.33203125 c 2
 1458.33203125 312.5 l 1
 1612.5 312.5 l 1
 1612.5 287.5 l 1
 1279.16796875 287.5 l 2
 1193.87695312 287.5 1125 218.623046875 1125 133.33203125 c 2
 1125 -200 l 1
 1100 -200 l 1
 1100 133.33203125 l 2
 1100 218.623046875 1031.12304688 287.5 945.83203125 287.5 c 2
 279.16796875 287.5 l 2
 193.876953125 287.5 125 218.623046875 125 133.33203125 c 1
 100 133.33203125 l 1
 100 466.66796875 l 1
 125 466.66796875 l 1
 125 381.376953125 193.876953125 312.5 279.16796875 312.5 c 2
 766.66796875 312.5 l 1
 766.66796875 633.33203125 l 2
 766.66796875 718.623046875 697.791015625 787.5 612.5 787.5 c 1
 612.5 812.5 l 1
703.337890625 787.5 m 1
 737.560546875 767.2578125 764.458984375 736.047851562 779.16796875 698.64453125 c 1
 793.876953125 736.047851562 820.7734375 767.2578125 854.99609375 787.5 c 1
 703.337890625 787.5 l 1
945.83203125 787.5 m 0
 860.541015625 787.5 791.66796875 718.623046875 791.66796875 633.33203125 c 2
 791.66796875 312.5 l 1
 945.83203125 312.5 l 1
 1100 312.5 l 1
 1100 633.33203125 l 2
 1100 718.623046875 1031.12304688 787.5 945.83203125 787.5 c 0
1036.66992188 787.5 m 1
 1070.89355469 767.256835938 1097.79101562 736.046875 1112.5 698.642578125 c 1
 1127.20898438 736.046875 1154.10644531 767.256835938 1188.33007812 787.5 c 1
 1036.66992188 787.5 l 1
1279.16796875 787.5 m 0
 1193.87695312 787.5 1125 718.623046875 1125 633.33203125 c 2
 1125 312.5 l 1
 1279.16796875 312.5 l 1
 1433.33203125 312.5 l 1
 1433.33203125 633.33203125 l 2
 1433.33203125 718.623046875 1364.45898438 787.5 1279.16796875 787.5 c 0
1370.00390625 787.5 m 1
 1404.22558594 767.2578125 1431.12304688 736.048828125 1445.83203125 698.646484375 c 1
 1460.54101562 736.048828125 1487.43945312 767.2578125 1521.66210938 787.5 c 1
 1370.00390625 787.5 l 1
125 375.830078125 m 1
 125 224.169921875 l 1
 145.243164062 258.393554688 176.453125 285.291015625 213.857421875 300 c 1
 176.453125 314.708984375 145.243164062 341.606445312 125 375.830078125 c 1
1036.66992188 287.5 m 1
 1070.89355469 267.256835938 1097.79101562 236.046875 1112.5 198.642578125 c 1
 1127.20898438 236.046875 1154.10644531 267.256835938 1188.33007812 287.5 c 1
 1036.66992188 287.5 l 1
EndSplineSet
EndChar

StartChar: U12292
Encoding: 300 74386 44
Width: 1712
VWidth: 100
Flags: W
HStem: -45.832 25<219.097 753.16 791.668 1100 1125 1433.33 1458.33 1612.5> 475.909 24.6607<239.625 341.629> 787.5 25<612.5 672.571 703.338 854.996 885.762 1005.9 1036.67 1188.33 1219.1 1339.24 1370 1521.66 1552.43 1612.5>
VStem: 100 25<-200 -139.929 -109.162 42.4961 73.2617 133.332> 363.099 24.6756<477.901 589.701> 766.668 25<2.30078 693.403> 1100 25<-20.832 693.403> 1433.33 25<-20.832 693.403>
LayerCount: 2
Fore
SplineSet
612.5 812.5 m 1
 945.83203125 812.5 l 1
 1279.16796875 812.5 l 1
 1612.5 812.5 l 1
 1612.5 787.5 l 1
 1527.20898438 787.5 1458.33203125 718.623046875 1458.33203125 633.33203125 c 2
 1458.33203125 -20.83203125 l 1
 1612.5 -20.83203125 l 1
 1612.5 -45.83203125 l 1
 279.16796875 -45.83203125 l 2
 193.876953125 -45.83203125 125 -114.708984375 125 -200 c 1
 100 -200 l 1
 100 133.33203125 l 1
 125 133.33203125 l 1
 125 48.041015625 193.876953125 -20.83203125 279.16796875 -20.83203125 c 2
 753.16015625 -20.83203125 l 1
 402.1171875 417.96875 l 2
 371.624714921 456.084061294 326.879494922 475.909226234 281.69779292 475.909226234 c 0
 247.928016025 475.909226234 213.914403285 464.834117 185.42578125 442.04296875 c 1
 169.80859375 461.56640625 l 1
 430.09765625 669.798828125 l 1
 445.71484375 650.27734375 l 1
 407.600670138 619.783992909 387.774817962 575.036753766 387.774817962 529.853634724 c 0
 387.774817962 496.085072715 398.848819591 462.073044012 421.638671875 433.5859375 c 2
 766.66796875 2.30078125 l 1
 766.66796875 633.33203125 l 2
 766.66796875 718.623046875 697.791015625 787.5 612.5 787.5 c 1
 612.5 812.5 l 1
703.337890625 787.5 m 1
 737.560546875 767.2578125 764.458984375 736.047851562 779.16796875 698.64453125 c 1
 793.876953125 736.047851562 820.7734375 767.2578125 854.99609375 787.5 c 1
 703.337890625 787.5 l 1
945.83203125 787.5 m 0
 860.541015625 787.5 791.66796875 718.623046875 791.66796875 633.33203125 c 2
 791.66796875 -20.83203125 l 1
 1100 -20.83203125 l 1
 1100 633.33203125 l 2
 1100 718.623046875 1031.12304688 787.5 945.83203125 787.5 c 0
1036.66992188 787.5 m 1
 1070.89355469 767.256835938 1097.79101562 736.046875 1112.5 698.642578125 c 1
 1127.20898438 736.046875 1154.10644531 767.256835938 1188.33007812 787.5 c 1
 1036.66992188 787.5 l 1
1279.16796875 787.5 m 0
 1193.87695312 787.5 1125 718.623046875 1125 633.33203125 c 2
 1125 -20.83203125 l 1
 1433.33203125 -20.83203125 l 1
 1433.33203125 633.33203125 l 2
 1433.33203125 718.623046875 1364.45898438 787.5 1279.16796875 787.5 c 0
1370.00390625 787.5 m 1
 1404.22558594 767.2578125 1431.12304688 736.048828125 1445.83203125 698.646484375 c 1
 1460.54101562 736.048828125 1487.43945312 767.2578125 1521.66210938 787.5 c 1
 1370.00390625 787.5 l 1
374.78515625 593.53125 m 1
 256.361328125 498.791015625 l 1
 264.755645235 499.979197145 273.2014242 500.569950475 281.632929493 500.569950475 c 0
 312.743014714 500.569950475 343.658775287 492.527315722 371.078125 476.77734375 c 1
 365.734005492 494.049414994 363.099238455 511.88351384 363.099238455 529.663843747 c 0
 363.099238455 551.408871639 367.040021535 573.073478103 374.78515625 593.53125 c 1
125 42.49609375 m 1
 125 -109.162109375 l 1
 145.2421875 -74.939453125 176.452148438 -48.041015625 213.85546875 -33.33203125 c 1
 176.452148438 -18.623046875 145.2421875 8.2734375 125 42.49609375 c 1
EndSplineSet
EndChar

StartChar: U12141
Encoding: 301 74049 45
Width: 1712
VWidth: 100
Flags: W
HStem: -45.832 25<220.777 266.668 291.668 1100> 287.5 25<385.762 1100> 787.5 25<112.5 172.571 203.338 354.996 385.762 445.832 945.832 1005.9 1036.67 1188.33 1219.1 1339.24 1370 1521.66 1552.43 1612.5>
VStem: 100 25<-200 -139.383 -109.162 42.4961 72.716 133.332> 266.668 25<-200 -46.377 -20.2871 193.403 224.17 375.83 406.597 693.403> 1100 25<-200 -45.832 -20.832 287.5 312.5 693.403> 1433.33 25<-200 693.403>
LayerCount: 2
Fore
SplineSet
112.5 812.5 m 1
 445.83203125 812.5 l 1
 445.83203125 787.5 l 1
 360.541015625 787.5 291.66796875 718.623046875 291.66796875 633.33203125 c 2
 291.66796875 466.66796875 l 2
 291.66796875 381.376953125 360.541015625 312.5 445.83203125 312.5 c 2
 1100 312.5 l 1
 1100 633.33203125 l 2
 1100 718.623046875 1031.12304688 787.5 945.83203125 787.5 c 1
 945.83203125 812.5 l 1
 1279.16796875 812.5 l 1
 1612.5 812.5 l 1
 1612.5 787.5 l 1
 1527.20898438 787.5 1458.33203125 718.623046875 1458.33203125 633.33203125 c 2
 1458.33203125 -200 l 1
 1433.33203125 -200 l 1
 1433.33203125 633.33203125 l 2
 1433.33203125 718.623046875 1364.45898438 787.5 1279.16796875 787.5 c 0
 1193.87695312 787.5 1125 718.623046875 1125 633.33203125 c 2
 1125 -200 l 1
 1100 -200 l 1
 1100 -45.83203125 l 1
 291.66796875 -45.83203125 l 1
 291.66796875 -200 l 1
 266.66796875 -200 l 1
 266.66796875 -46.376953125 l 1
 187.252929688 -52.7236328125 125 -118.921875 125 -200 c 1
 100 -200 l 1
 100 133.33203125 l 1
 125 133.33203125 l 1
 125 52.25390625 187.252929688 -13.9404296875 266.66796875 -20.287109375 c 1
 266.66796875 133.33203125 l 1
 266.66796875 466.66796875 l 1
 266.66796875 633.33203125 l 2
 266.66796875 718.623046875 197.791015625 787.5 112.5 787.5 c 1
 112.5 812.5 l 1
203.337890625 787.5 m 1
 237.560546875 767.2578125 264.458984375 736.047851562 279.16796875 698.64453125 c 1
 293.876953125 736.047851562 320.7734375 767.2578125 354.99609375 787.5 c 1
 203.337890625 787.5 l 1
1036.66992188 787.5 m 1
 1070.89355469 767.256835938 1097.79101562 736.046875 1112.5 698.642578125 c 1
 1127.20898438 736.046875 1154.10644531 767.256835938 1188.33007812 787.5 c 1
 1036.66992188 787.5 l 1
1370.00390625 787.5 m 1
 1404.22558594 767.2578125 1431.12304688 736.048828125 1445.83203125 698.646484375 c 1
 1460.54101562 736.048828125 1487.43945312 767.2578125 1521.66210938 787.5 c 1
 1370.00390625 787.5 l 1
291.66796875 375.830078125 m 1
 291.66796875 224.169921875 l 1
 311.91015625 258.392578125 343.118164062 285.291015625 380.521484375 300 c 1
 343.118164062 314.708984375 311.91015625 341.607421875 291.66796875 375.830078125 c 1
445.83203125 287.5 m 2
 360.541015625 287.5 291.66796875 218.623046875 291.66796875 133.33203125 c 2
 291.66796875 -20.83203125 l 1
 1100 -20.83203125 l 1
 1100 287.5 l 1
 445.83203125 287.5 l 2
125 42.49609375 m 1
 125 -109.162109375 l 1
 145.2421875 -74.939453125 176.452148438 -48.041015625 213.85546875 -33.33203125 c 1
 176.452148438 -18.623046875 145.2421875 8.2734375 125 42.49609375 c 1
EndSplineSet
EndChar

StartChar: U121c7
Encoding: 302 74183 46
Width: 1712
VWidth: 100
Flags: W
HStem: -45.832 25<220.777 266.668 291.668 600 625 1410.2 1458.33 1612.5> 620.832 25<458.332 503.831 638.508 668.396 718.975 1432.79> 787.5 25<112.5 172.571 203.338 354.996 1279.17 1339.78 1370 1521.66 1552.43 1612.5>
VStem: 100 25<-200 -139.929 -109.162 42.4961 72.716 133.332> 266.668 25<-20.2871 693.403> 433.332 25<466.668 526.694 557.504 620.287 645.832 709.162 741.22 786.955> 600 25<-20.832 526.859> 667.873 24.6828<645.832 701.472> 1433.33 25<-7.32617 620.832 645.832 691.723>
LayerCount: 2
Fore
SplineSet
112.5 812.5 m 1
 445.83203125 812.5 l 1
 445.83203125 800 l 1
 458.33203125 800 l 1
 458.33203125 716.684570312 524.063476562 649.0703125 606.609375 645.98046875 c 1
 706.85546875 771.28515625 l 1
 706.857421875 771.28515625 l 1
 726.376953125 755.66796875 l 1
 726.37890625 755.66796875 l 1
 726.359375 755.642578125 l 2
 703.590842236 727.172229842 692.555517057 693.18684165 692.555517057 659.439932576 c 0
 692.555517057 654.894954916 692.755678599 650.354302851 693.154296875 645.83203125 c 1
 779.16796875 645.83203125 l 1
 1432.78515625 645.83203125 l 1
 1426.43847656 725.247070312 1360.24609375 787.5 1279.16796875 787.5 c 1
 1279.16796875 812.5 l 1
 1612.5 812.5 l 1
 1612.5 787.5 l 1
 1527.20898438 787.5 1458.33203125 718.623046875 1458.33203125 633.33203125 c 2
 1458.33203125 -20.83203125 l 1
 1612.5 -20.83203125 l 1
 1612.5 -45.83203125 l 1
 279.16796875 -45.83203125 l 2
 193.876953125 -45.83203125 125 -114.708984375 125 -200 c 1
 100 -200 l 1
 100 133.33203125 l 1
 125 133.33203125 l 1
 125 52.25390625 187.252929688 -13.9404296875 266.66796875 -20.287109375 c 1
 266.66796875 633.33203125 l 2
 266.66796875 718.623046875 197.791015625 787.5 112.5 787.5 c 1
 112.5 812.5 l 1
203.337890625 787.5 m 1
 237.560546875 767.2578125 264.458984375 736.047851562 279.16796875 698.64453125 c 1
 293.876953125 736.047851562 320.7734375 767.2578125 354.99609375 787.5 c 1
 203.337890625 787.5 l 1
1370.00390625 787.5 m 1
 1404.22558594 767.2578125 1431.12304688 736.048828125 1445.83203125 698.646484375 c 1
 1460.54101562 736.048828125 1487.43945312 767.2578125 1521.66210938 787.5 c 1
 1370.00390625 787.5 l 1
433.33203125 786.955078125 m 1
 353.91796875 780.608398438 291.66796875 714.41015625 291.66796875 633.33203125 c 2
 291.66796875 -20.83203125 l 1
 600 -20.83203125 l 1
 600 466.66796875 l 2
 600 494.029296875 592.881835938 519.681640625 580.4375 541.931640625 c 1
 556.821289062 532.330078125 535.237304688 516.745117188 518.14453125 495.37890625 c 1
 498.62109375 510.99609375 l 1
 552.353515625 578.16015625 l 1
 545.240234375 584.95703125 537.481445312 591.075195312 529.166015625 596.41796875 c 1
 486.536132812 569.024414062 458.33203125 521.22265625 458.33203125 466.66796875 c 1
 433.33203125 466.66796875 l 1
 433.33203125 786.955078125 l 1
458.33203125 709.162109375 m 1
 458.33203125 645.83203125 l 1
 521.66015625 645.83203125 l 1
 495.58984375 661.252929688 473.766601562 683.068359375 458.33203125 709.162109375 c 1
669.630859375 684.734375 m 1
 638.5078125 645.83203125 l 1
 668.396484375 645.83203125 l 1
 668.04849131 650.426025437 667.872699248 655.034441613 667.872699248 659.646856942 c 0
 667.872699248 668.016955456 668.451599298 676.400223566 669.630859375 684.734375 c 1
618.5078125 620.83203125 m 1
 585.048828125 579.0078125 l 2
 587.0390625 576.547851562 588.983398438 574.05078125 590.84375 571.486328125 c 0
 606.575195312 575.8203125 622.81640625 578.0078125 639.10546875 577.9765625 c 1
 649.255859375 590.71484375 661.111328125 602.029296875 674.322265625 611.60546875 c 0
 673.48046875 614.661132812 672.75 617.740234375 672.072265625 620.83203125 c 2
 618.5078125 620.83203125 l 1
779.16796875 620.83203125 m 2
 751.806640625 620.83203125 726.153320312 613.715820312 703.90234375 601.271484375 c 1
 713.502929688 577.654296875 729.087890625 556.071289062 750.453125 538.978515625 c 2
 1433.33203125 -7.326171875 l 1
 1433.33203125 620.83203125 l 1
 779.16796875 620.83203125 l 2
458.33203125 620.287109375 m 1
 458.33203125 557.50390625 l 1
 470.243164062 577.640625 485.974609375 595.212890625 504.5078125 609.287109375 c 1
 490.090820312 615.208007812 474.571289062 618.989257812 458.33203125 620.287109375 c 1
584.423828125 618.24609375 m 1
 573.796875 616.297851562 563.552734375 613.284179688 553.814453125 609.283203125 c 1
 558.684570312 605.58984375 563.357421875 601.654296875 567.8203125 597.494140625 c 1
 584.423828125 618.24609375 l 1
683.0078125 587.220703125 m 1
 678.345703125 583.500976562 673.891601562 579.536132812 669.6953125 575.30859375 c 1
 677.081054688 574.015625 684.413085938 572.255859375 691.646484375 570.017578125 c 1
 688.43359375 575.611328125 685.576171875 581.364257812 683.0078125 587.220703125 c 1
651.208984375 552.798828125 m 1
 634.65625 528.223632812 625 498.596679688 625 466.66796875 c 2
 625 -20.83203125 l 1
 1410.19726562 -20.83203125 l 1
 734.8359375 519.45703125 l 2
 709.904296875 539.40234375 680.739257812 550.37109375 651.208984375 552.798828125 c 1
622.08203125 552.42578125 m 1
 616.159179688 551.790039062 610.280273438 550.787109375 604.462890625 549.470703125 c 1
 607.431640625 543.805664062 610.138671875 537.982421875 612.5 531.978515625 c 1
 615.271484375 539.025390625 618.477539062 545.850585938 622.08203125 552.42578125 c 1
125 42.49609375 m 1
 125 -109.162109375 l 1
 145.2421875 -74.939453125 176.452148438 -48.041015625 213.85546875 -33.33203125 c 1
 176.452148438 -18.623046875 145.2421875 8.2734375 125 42.49609375 c 1
EndSplineSet
EndChar

StartChar: U12084
Encoding: 303 73860 47
Width: 2212
VWidth: 100
Flags: W
HStem: -45.832 25<219.097 779.168> 254.148 25<360.041 779.168> 520.781 25<360.041 779.168> 620.832 25<1779.17 1839.24 1870 1932.79 1958.88 2021.66 2052.43 2112.5> 787.5 25<112.5 172.571 203.338 354.996 386.43 445.832 779.168 839.238 870.004 1021.66 1052.43 1172.57 1203.34 1355 1385.76 1505.9 1536.67 1688.33 1719.1 1839.78 1870 2021.66 2051.88 2112.5>
VStem: 100 25<-200 -139.929 -109.162 42.4961 73.2617 133.332> 266.668 25<133.332 185.775 214.873 318.424 347.521 452.408 481.506 585.057> 933.332 25<300 693.403> 947.56 24.3584<-23.4189 139.427> 1266.67 25<300 693.403> 1280.9 24.3566<-23.4198 139.425> 1600 25<300 693.403> 1614.23 24.3584<-23.4195 139.427> 1933.33 25<-200 526.738 645.832 691.723>
LayerCount: 2
Fore
SplineSet
112.5 812.5 m 1xfe04
 445.83203125 812.5 l 1
 445.83203125 787.5 l 1
 366.516601562 787.5 301.434570312 727.92578125 292.69921875 650.98828125 c 1
 300.328125 591.532226562 350.905273438 545.78125 412.484375 545.78125 c 2
 779.16796875 545.78125 l 1
 779.16796875 520.78125 l 1
 412.484375 520.78125 l 2
 345.610351562 520.78125 291.66796875 466.837890625 291.66796875 399.96484375 c 0
 291.66796875 333.091796875 345.610351562 279.1484375 412.484375 279.1484375 c 2
 779.16796875 279.1484375 l 1
 779.16796875 254.1484375 l 1
 412.484375 254.1484375 l 2
 345.610351562 254.1484375 291.66796875 200.205078125 291.66796875 133.33203125 c 1
 266.66796875 133.33203125 l 1
 266.66796875 399.96484375 l 1
 266.66796875 633.33203125 l 2
 266.66796875 718.623046875 197.791015625 787.5 112.5 787.5 c 1
 112.5 812.5 l 1xfe04
779.16796875 812.5 m 1
 1112.5 812.5 l 1
 1445.83203125 812.5 l 1
 1779.16796875 812.5 l 1
 2112.5 812.5 l 1
 2112.5 787.5 l 1
 2031.421875 787.5 1965.22363281 725.247070312 1958.87695312 645.83203125 c 1
 2112.5 645.83203125 l 1
 2112.5 620.83203125 l 1
 2027.20898438 620.83203125 1958.33203125 551.958984375 1958.33203125 466.66796875 c 2
 1958.33203125 -200 l 1
 1933.33203125 -200 l 1
 1933.33203125 466.66796875 l 2
 1933.33203125 551.959960938 1864.45898438 620.83203125 1779.16796875 620.83203125 c 1
 1779.16796875 645.83203125 l 1
 1932.78515625 645.83203125 l 1
 1926.43847656 725.247070312 1860.24609375 787.5 1779.16796875 787.5 c 0
 1693.87695312 787.5 1625 718.623046875 1625 633.33203125 c 2
 1625 300 l 1
 1600 300 l 1
 1600 633.33203125 l 2
 1600 718.623046875 1531.12304688 787.5 1445.83203125 787.5 c 0
 1360.54101562 787.5 1291.66796875 718.623046875 1291.66796875 633.33203125 c 2
 1291.66796875 300 l 1
 1266.66796875 300 l 1
 1266.66796875 633.33203125 l 2
 1266.66796875 718.623046875 1197.79101562 787.5 1112.5 787.5 c 0
 1027.20898438 787.5 958.33203125 718.623046875 958.33203125 633.33203125 c 2
 958.33203125 300 l 1
 933.33203125 300 l 1
 933.33203125 633.33203125 l 2xff54
 933.33203125 718.623046875 864.458984375 787.5 779.16796875 787.5 c 1
 779.16796875 812.5 l 1
203.337890625 787.5 m 1
 237.560546875 767.2578125 264.458984375 736.047851562 279.16796875 698.64453125 c 1
 293.876953125 736.047851562 320.7734375 767.2578125 354.99609375 787.5 c 1
 203.337890625 787.5 l 1
870.00390625 787.5 m 1
 904.225585938 767.2578125 931.123046875 736.048828125 945.83203125 698.646484375 c 1
 960.541015625 736.048828125 987.440429688 767.2578125 1021.66210938 787.5 c 1
 870.00390625 787.5 l 1
1203.33789062 787.5 m 1
 1237.56054688 767.2578125 1264.45898438 736.047851562 1279.16796875 698.64453125 c 1
 1293.87695312 736.047851562 1320.7734375 767.2578125 1354.99609375 787.5 c 1
 1203.33789062 787.5 l 1
1536.66992188 787.5 m 1
 1570.89355469 767.256835938 1597.79101562 736.046875 1612.5 698.642578125 c 1
 1627.20898438 736.046875 1654.10644531 767.256835938 1688.33007812 787.5 c 1
 1536.66992188 787.5 l 1
1870.00390625 787.5 m 1
 1904.22558594 767.2578125 1931.12304688 736.048828125 1945.83203125 698.646484375 c 1
 1960.54101562 736.048828125 1987.43945312 767.2578125 2021.66210938 787.5 c 1
 1870.00390625 787.5 l 1
1870.00390625 620.83203125 m 1
 1904.2265625 600.58984375 1931.12402344 569.379882812 1945.83203125 531.9765625 c 1
 1960.54101562 569.380859375 1987.43847656 600.58984375 2021.66210938 620.83203125 c 1
 1870.00390625 620.83203125 l 1
291.66796875 585.056640625 m 1
 291.66796875 481.505859375 l 1
 306.969726562 504.100585938 328.48046875 522.118164062 353.673828125 533.28125 c 1
 328.48046875 544.444335938 306.969726562 562.461914062 291.66796875 585.056640625 c 1
291.66796875 318.423828125 m 1
 291.66796875 214.873046875 l 1
 306.969726562 237.46875 328.481445312 255.485351562 353.67578125 266.6484375 c 1
 328.481445312 277.811523438 306.969726562 295.828125 291.66796875 318.423828125 c 1
1061.99414062 308.837890625 m 1
 1079.671875 291.162109375 l 1
 998.66530938 210.155543755 971.918895579 130.794802444 971.918895579 60.0943612052 c 0xfe84
 971.918895579 24.2694714164 978.786274909 -9.33180939967 988.94140625 -39.796875 c 0
 1019.13769531 -130.384765625 1079.671875 -191.162109375 1079.671875 -191.162109375 c 1
 1061.99414062 -208.837890625 l 1
 803.154296875 50 l 1
 1061.99414062 308.837890625 l 1
1395.328125 308.837890625 m 1
 1413.00585938 291.162109375 l 1
 1331.99929375 210.155543755 1305.25287995 130.794802444 1305.25287995 60.0943612052 c 0xfe24
 1305.25287995 24.2694714164 1312.12025928 -9.33180939967 1322.27539062 -39.796875 c 0
 1352.47167969 -130.384765625 1413.00585938 -191.162109375 1413.00585938 -191.162109375 c 1
 1395.328125 -208.837890625 l 1
 1136.49023438 50 l 1
 1395.328125 308.837890625 l 1
1728.66210938 308.837890625 m 1
 1746.33789062 291.162109375 l 1
 1665.33220131 210.156420064 1638.5863502 130.796519454 1638.5863502 60.096655668 c 0xfe0c
 1638.5863502 24.2709061147 1645.45402686 -9.33115900579 1655.609375 -39.796875 c 0
 1685.80566406 -130.384765625 1746.33789062 -191.162109375 1746.33789062 -191.162109375 c 1
 1728.66210938 -208.837890625 l 1
 1469.82226562 50 l 1
 1728.66210938 308.837890625 l 1
1642.2265625 187.05078125 m 1
 1505.17578125 50 l 1
 1652.01953125 -96.84375 l 1
 1644.64550781 -81.642578125 1637.73242188 -65.228515625 1631.890625 -47.703125 c 0
 1621.2284544 -15.7166131908 1614.22796557 20.059735831 1614.22796557 58.2395310251 c 0
 1614.22796557 98.9996284282 1622.2066558 142.499013469 1642.2265625 187.05078125 c 1
975.556640625 187.048828125 m 1
 838.5078125 50 l 1
 985.3515625 -96.841796875 l 1
 977.977539062 -81.6416015625 971.06640625 -65.2275390625 965.224609375 -47.703125 c 0
 954.561815676 -15.714743903 947.56044634 20.0636889071 947.56044634 58.2456498206 c 0xfe84
 947.56044634 99.0034460788 955.53833404 142.500003338 975.556640625 187.048828125 c 1
1308.89453125 187.048828125 m 1
 1171.84570312 50 l 1
 1318.6875 -96.841796875 l 1
 1311.31347656 -81.6416015625 1304.40039062 -65.2275390625 1298.55859375 -47.703125 c 0
 1287.89651866 -15.7168997316 1280.89628818 20.0588664128 1280.89628818 58.237930135 c 0xfe24
 1280.89628818 98.9979537814 1288.87496081 142.497190753 1308.89453125 187.048828125 c 1
100 133.33203125 m 1
 125 133.33203125 l 1
 125 48.041015625 193.876953125 -20.83203125 279.16796875 -20.83203125 c 2
 779.16796875 -20.83203125 l 1
 779.16796875 -45.83203125 l 1
 279.16796875 -45.83203125 l 2
 193.876953125 -45.83203125 125 -114.708984375 125 -200 c 1
 100 -200 l 1
 100 133.33203125 l 1
125 42.49609375 m 1
 125 -109.162109375 l 1
 145.2421875 -74.939453125 176.452148438 -48.041015625 213.85546875 -33.33203125 c 1
 176.452148438 -18.623046875 145.2421875 8.2734375 125 42.49609375 c 1
EndSplineSet
EndChar

StartChar: U121a5
Encoding: 304 74149 48
Width: 1722
VWidth: 100
Flags: W
HStem: -45.832 25<220.777 266.668 291.668 933.332 958.332 1586.49> 162.512 25<337.638 933.332> 370.832 25<337.637 933.332> 475.909 24.6624<1072.96 1174.96> 579.152 25<337.637 933.332> 787.5 25<112.5 172.571 203.338 354.996 387.724 445.832 779.168 839.238 870.004 1021.66 1052.43 1112.5>
VStem: 100 25<-200 -139.929 -109.162 42.4961 72.716 133.332> 266.668 25<-20.2871 116.543 142.742 207.281 233.482 324.863 351.064 415.602 441.803 533.183 559.385 623.922> 933.332 25<-20.832 162.512 187.512 370.832 395.832 579.152 604.152 693.403> 1196.43 24.6772<477.901 589.702>
LayerCount: 2
Fore
SplineSet
112.5 812.5 m 1
 445.83203125 812.5 l 1
 445.83203125 787.5 l 1
 372.684570312 787.5 311.655273438 736.823242188 295.748046875 668.595703125 c 1
 307.291992188 631.193359375 342.041992188 604.15234375 383.328125 604.15234375 c 2
 933.33203125 604.15234375 l 1
 933.33203125 633.33203125 l 2
 933.33203125 718.623046875 864.458984375 787.5 779.16796875 787.5 c 1
 779.16796875 812.5 l 1
 1112.5 812.5 l 1
 1112.5 787.5 l 1
 1027.20898438 787.5 958.33203125 718.623046875 958.33203125 633.33203125 c 2
 958.33203125 -20.83203125 l 1
 1586.4921875 -20.83203125 l 1
 1235.44921875 417.96875 l 2
 1204.95898161 456.084061294 1160.21311867 475.909226234 1115.03064071 475.909226234 c 0
 1081.26028385 475.909226234 1047.24601683 464.834117 1018.7578125 442.04296875 c 1
 1003.140625 461.56640625 l 1
 1263.43359375 669.798828125 l 1
 1279.05078125 650.27734375 l 1
 1240.93476618 619.784308145 1221.1095729 575.037998777 1221.1095729 529.855446406 c 0
 1221.1095729 496.086491722 1232.18374181 462.073855747 1254.97265625 433.5859375 c 2
 1622.25976562 -25.5234375 l 1
 1612.5 -33.33203125 l 1
 1612.5 -45.83203125 l 1
 279.16796875 -45.83203125 l 2
 193.876953125 -45.83203125 125 -114.708984375 125 -200 c 1
 100 -200 l 1
 100 133.33203125 l 1
 125 133.33203125 l 1
 125 52.25390625 187.252929688 -13.9404296875 266.66796875 -20.287109375 c 1
 266.66796875 70.8515625 l 1
 266.66796875 279.171875 l 1
 266.66796875 487.4921875 l 1
 266.66796875 633.33203125 l 2
 266.66796875 718.623046875 197.791015625 787.5 112.5 787.5 c 1
 112.5 812.5 l 1
203.337890625 787.5 m 1
 237.560546875 767.2578125 264.458984375 736.047851562 279.16796875 698.64453125 c 1
 293.876953125 736.047851562 320.7734375 767.2578125 354.99609375 787.5 c 1
 203.337890625 787.5 l 1
870.00390625 787.5 m 1
 904.225585938 767.2578125 931.123046875 736.048828125 945.83203125 698.646484375 c 1
 960.541015625 736.048828125 987.440429688 767.2578125 1021.66210938 787.5 c 1
 870.00390625 787.5 l 1
291.66796875 623.921875 m 1
 291.66796875 559.384765625 l 1
 302.250976562 572.84375 315.705078125 583.88671875 331.12109375 591.65234375 c 1
 315.705078125 599.418945312 302.250976562 610.462890625 291.66796875 623.921875 c 1
1208.1171875 593.53125 m 1
 1089.69335938 498.79296875 l 1
 1098.08689199 499.981009756 1106.53187429 500.571675085 1114.96258459 500.571675085 c 0
 1146.0744128 500.571675085 1176.99188085 492.527820521 1204.41210938 476.77734375 c 1
 1199.06754882 494.050840442 1196.43239266 511.886457508 1196.43239266 529.668245929 c 0
 1196.43239266 551.411795568 1200.37257544 573.074858631 1208.1171875 593.53125 c 1
383.328125 579.15234375 m 2
 332.556640625 579.15234375 291.66796875 538.264648438 291.66796875 487.4921875 c 0
 291.66796875 436.723632812 332.556640625 395.83203125 383.328125 395.83203125 c 2
 933.33203125 395.83203125 l 1
 933.33203125 579.15234375 l 1
 383.328125 579.15234375 l 2
291.66796875 415.6015625 m 1
 291.66796875 351.064453125 l 1
 302.250976562 364.5234375 315.705078125 375.56640625 331.12109375 383.33203125 c 1
 315.705078125 391.098632812 302.250976562 402.142578125 291.66796875 415.6015625 c 1
383.328125 370.83203125 m 2
 332.556640625 370.83203125 291.66796875 329.944335938 291.66796875 279.171875 c 0
 291.66796875 228.403320312 332.557617188 187.51171875 383.328125 187.51171875 c 2
 933.33203125 187.51171875 l 1
 933.33203125 370.83203125 l 1
 383.328125 370.83203125 l 2
291.66796875 207.28125 m 1
 291.66796875 142.7421875 l 1
 302.250976562 156.201171875 315.705078125 167.24609375 331.12109375 175.01171875 c 1
 315.705078125 182.778320312 302.250976562 193.822265625 291.66796875 207.28125 c 1
383.328125 162.51171875 m 2
 332.556640625 162.51171875 291.66796875 121.624023438 291.66796875 70.8515625 c 2
 291.66796875 -20.83203125 l 1
 933.33203125 -20.83203125 l 1
 933.33203125 162.51171875 l 1
 383.328125 162.51171875 l 2
125 42.49609375 m 1
 125 -109.162109375 l 1
 145.2421875 -74.939453125 176.452148438 -48.041015625 213.85546875 -33.33203125 c 1
 176.452148438 -18.623046875 145.2421875 8.2734375 125 42.49609375 c 1
EndSplineSet
EndChar

StartChar: U1245a
Encoding: 305 74842 49
Width: 1212
VWidth: 100
Flags: W
HStem: -45.832 25<219.097 350 375 850 875 1112.5> 787.5 25<195.832 255.903 286.67 438.33 469.097 529.168 695.832 755.903 786.67 938.33 969.097 1029.17>
VStem: 100 25<-200 -139.929 -109.162 42.4961 73.2617 133.332> 350 25<-20.832 693.403> 850 25<-20.832 693.403>
LayerCount: 2
Fore
SplineSet
195.83203125 812.5 m 1
 529.16796875 812.5 l 1
 529.16796875 787.5 l 1
 443.876953125 787.5 375 718.623046875 375 633.33203125 c 2
 375 -20.83203125 l 1
 850 -20.83203125 l 1
 850 633.33203125 l 2
 850 718.623046875 781.123046875 787.5 695.83203125 787.5 c 1
 695.83203125 812.5 l 1
 1029.16796875 812.5 l 1
 1029.16796875 787.5 l 1
 943.876953125 787.5 875 718.623046875 875 633.33203125 c 2
 875 -20.83203125 l 1
 1112.5 -20.83203125 l 1
 1112.5 -45.83203125 l 1
 279.16796875 -45.83203125 l 2
 193.876953125 -45.83203125 125 -114.708984375 125 -200 c 1
 100 -200 l 1
 100 133.33203125 l 1
 125 133.33203125 l 1
 125 48.041015625 193.876953125 -20.83203125 279.16796875 -20.83203125 c 2
 350 -20.83203125 l 1
 350 633.33203125 l 2
 350 718.623046875 281.123046875 787.5 195.83203125 787.5 c 1
 195.83203125 812.5 l 1
286.669921875 787.5 m 1
 320.893554688 767.256835938 347.791015625 736.046875 362.5 698.642578125 c 1
 377.208984375 736.046875 404.106445312 767.256835938 438.330078125 787.5 c 1
 286.669921875 787.5 l 1
786.669921875 787.5 m 1
 820.893554688 767.256835938 847.791015625 736.046875 862.5 698.642578125 c 1
 877.208984375 736.046875 904.106445312 767.256835938 938.330078125 787.5 c 1
 786.669921875 787.5 l 1
125 42.49609375 m 1
 125 -109.162109375 l 1
 145.2421875 -74.939453125 176.452148438 -48.041015625 213.85546875 -33.33203125 c 1
 176.452148438 -18.623046875 145.2421875 8.2734375 125 42.49609375 c 1
EndSplineSet
EndChar

StartChar: U1218f
Encoding: 306 74127 50
Width: 1712
VWidth: 100
Flags: W
HStem: -45.832 25<219.097 1612.5> 454.168 25<719.097 1273.99> 787.5 25<112.5 172.571 203.338 354.996 385.762 505.903 536.67 688.33 719.097 779.168 1279.17 1339.24 1370 1521.66 1552.43 1612.5>
VStem: 100 25<-200 -139.929 -109.162 42.4961 73.2617 133.332> 266.668 25<133.332 693.403> 600 25<133.332 360.071 390.838 542.496 573.262 693.403> 1350.39 24.3193<408.903 527.894> 1433.33 25<133.332 320.832 330.633 603.012 612.504 693.403>
LayerCount: 2
Fore
SplineSet
112.5 812.5 m 1
 445.83203125 812.5 l 1
 779.16796875 812.5 l 1
 779.16796875 787.5 l 1
 693.876953125 787.5 625 718.623046875 625 633.33203125 c 0
 625 548.041015625 693.876953125 479.16796875 779.16796875 479.16796875 c 2
 1273.99023438 479.16796875 l 1
 1420.328125 625.505859375 l 1
 1433.33203125 612.50390625 l 1
 1433.33203125 633.33203125 l 2
 1433.33203125 718.623046875 1364.45898438 787.5 1279.16796875 787.5 c 1
 1279.16796875 812.5 l 1
 1612.5 812.5 l 1
 1612.5 787.5 l 1
 1527.20898438 787.5 1458.33203125 718.623046875 1458.33203125 633.33203125 c 2
 1458.33203125 133.33203125 l 1
 1433.33203125 133.33203125 l 1
 1433.33203125 320.83203125 l 1
 1420.328125 307.828125 l 1
 1273.99023438 454.16796875 l 1
 779.16796875 454.16796875 l 2
 693.876953125 454.16796875 625 385.291015625 625 300 c 2
 625 133.33203125 l 1
 600 133.33203125 l 1
 600 300 l 1
 600 633.33203125 l 2
 600 718.623046875 531.123046875 787.5 445.83203125 787.5 c 0
 360.541015625 787.5 291.66796875 718.623046875 291.66796875 633.33203125 c 2
 291.66796875 133.33203125 l 1
 266.66796875 133.33203125 l 1
 266.66796875 633.33203125 l 2
 266.66796875 718.623046875 197.791015625 787.5 112.5 787.5 c 1
 112.5 812.5 l 1
203.337890625 787.5 m 1
 237.560546875 767.2578125 264.458984375 736.047851562 279.16796875 698.64453125 c 1
 293.876953125 736.047851562 320.7734375 767.2578125 354.99609375 787.5 c 1
 203.337890625 787.5 l 1
536.669921875 787.5 m 1
 570.893554688 767.256835938 597.791015625 736.046875 612.5 698.642578125 c 1
 627.208984375 736.046875 654.106445312 767.256835938 688.330078125 787.5 c 1
 536.669921875 787.5 l 1
1370.00390625 787.5 m 1
 1404.22558594 767.2578125 1431.12304688 736.048828125 1445.83203125 698.646484375 c 1
 1460.54101562 736.048828125 1487.43945312 767.2578125 1521.66210938 787.5 c 1
 1370.00390625 787.5 l 1
1433.33203125 603.01171875 m 1
 1389.32076359 557.039227285 1374.70827357 512.699072566 1374.70827357 472.999251387 c 0
 1374.70827357 452.011493504 1378.79221229 432.320628746 1384.77539062 414.37109375 c 0
 1398.64550781 372.759765625 1423.24414062 342.081054688 1433.33203125 330.6328125 c 1
 1433.33203125 603.01171875 l 1
625 542.49609375 m 1
 625 390.837890625 l 1
 645.2421875 425.060546875 676.452148438 451.958984375 713.85546875 466.66796875 c 1
 676.452148438 481.376953125 645.2421875 508.2734375 625 542.49609375 c 1
1359.38476562 529.208984375 m 1
 1296.84570312 466.66796875 l 1
 1363.3203125 400.193359375 l 1
 1362.55957031 402.27734375 1361.77050781 404.328125 1361.05859375 406.46484375 c 0
 1354.58007818 425.900390473 1350.38899416 447.725065916 1350.38899416 471.021768569 c 0
 1350.38899416 489.633846686 1353.06401511 509.185467795 1359.38476562 529.208984375 c 1
100 133.33203125 m 1
 125 133.33203125 l 1
 125 48.041015625 193.876953125 -20.83203125 279.16796875 -20.83203125 c 2
 1612.5 -20.83203125 l 1
 1612.5 -45.83203125 l 1
 279.16796875 -45.83203125 l 2
 193.876953125 -45.83203125 125 -114.708984375 125 -200 c 1
 100 -200 l 1
 100 133.33203125 l 1
125 42.49609375 m 1
 125 -109.162109375 l 1
 145.2421875 -74.939453125 176.452148438 -48.041015625 213.85546875 -33.33203125 c 1
 176.452148438 -18.623046875 145.2421875 8.2734375 125 42.49609375 c 1
EndSplineSet
EndChar

